<?xml version="1.0" encoding="UTF-8"?> <svg xmlns="http://www.w3.org/2000/svg" width="274" height="64" viewBox="0 0 274 64" fill="none"> <rect x="0.5" y="0.5" width="273" height="63" rx="31.5" fill="white"></rect> <path d="M44.5464 32.528C44.5464 34.192 44.1304 35.5467 43.2984 36.592C42.4771 37.6267 41.2984 38.144 39.7624 38.144C38.0771 38.144 36.8344 37.6587 36.0344 36.688C35.2451 35.7067 34.8504 34.336 34.8504 32.576C34.8504 31.776 34.9411 31.04 35.1224 30.368C35.3038 29.696 35.5811 29.0933 35.9544 28.56C36.3384 28.0267 36.8504 27.6107 37.4904 27.312C38.1411 27.0027 38.8984 26.848 39.7624 26.848C40.6264 26.848 41.3731 27.0027 42.0024 27.312C42.6424 27.6107 43.1438 28.032 43.5064 28.576C43.8691 29.1093 44.1304 29.7067 44.2904 30.368C44.4611 31.0187 44.5464 31.7387 44.5464 32.528ZM42.6424 32.576C42.6424 29.632 41.6824 28.16 39.7624 28.16C37.7464 28.16 36.7384 29.6373 36.7384 32.592C36.7384 33.9893 36.9784 35.04 37.4584 35.744C37.9384 36.448 38.7064 36.8 39.7624 36.8C40.7224 36.8 41.4424 36.4107 41.9224 35.632C42.4024 34.8533 42.6424 33.8347 42.6424 32.576ZM52.6701 26.832C53.7047 26.832 54.6541 26.9813 55.5181 27.28L55.1981 28.608C54.4621 28.3733 53.6887 28.256 52.8781 28.256C51.7794 28.256 50.9474 28.624 50.3821 29.36C49.8167 30.096 49.5341 31.1573 49.5341 32.544C49.5341 33.8987 49.7847 34.9333 50.2861 35.648C50.7874 36.352 51.6674 36.704 52.9261 36.704C53.7901 36.704 54.6541 36.5813 55.5181 36.336L55.8381 37.6C54.8781 37.9627 53.7901 38.144 52.5741 38.144C49.2781 38.144 47.6301 36.288 47.6301 32.576C47.6301 32.0533 47.6727 31.5413 47.7581 31.04C47.8541 30.5387 48.0194 30.0267 48.2541 29.504C48.4994 28.9813 48.8034 28.528 49.1661 28.144C49.5287 27.76 50.0087 27.4453 50.6061 27.2C51.2141 26.9547 51.9021 26.832 52.6701 26.832ZM63.3164 38H61.5244V28.384H58.0204V27.024H66.8204V28.384H63.3324L63.3164 38ZM77.2873 38H75.4153C75.3086 37.6587 75.154 37.168 74.9513 36.528C74.7486 35.8773 74.6206 35.4667 74.5673 35.296H70.3913L69.5433 38H67.7193C68.1353 36.752 68.754 34.9067 69.5753 32.464C70.4073 30.0107 71.0153 28.1973 71.3993 27.024H73.6873L77.2873 38ZM74.1833 34L73.4153 31.408C73.3726 31.2693 73.0793 30.272 72.5353 28.416H72.4713L71.6233 31.344C71.6126 31.3867 71.4793 31.8187 71.2233 32.64C70.978 33.4613 70.8393 33.9147 70.8073 34H74.1833ZM86.1543 32.224V32.288C87.2743 32.6933 87.8343 33.5467 87.8343 34.848C87.8343 35.7973 87.5303 36.56 86.9223 37.136C86.325 37.712 85.5516 38 84.6023 38H79.9463V27.04H84.2663C85.333 27.04 86.149 27.3013 86.7143 27.824C87.2796 28.336 87.5623 29.0293 87.5623 29.904C87.5623 30.9707 87.093 31.744 86.1543 32.224ZM86.0423 34.816C86.0423 34.2827 85.8716 33.84 85.5303 33.488C85.189 33.136 84.6983 32.96 84.0583 32.96H81.7383V36.688H84.0583C84.7516 36.688 85.253 36.5173 85.5623 36.176C85.8823 35.8347 86.0423 35.3813 86.0423 34.816ZM85.2263 31.28C85.5676 30.9813 85.7383 30.5707 85.7383 30.048C85.7383 29.5253 85.5783 29.1147 85.2583 28.816C84.9383 28.5067 84.453 28.352 83.8023 28.352H81.7383V31.712H83.8023C84.421 31.712 84.8956 31.568 85.2263 31.28ZM98.2321 27.024L99.9761 27.056V38H98.2161V29.76H98.1681C97.3787 31.04 96.2054 32.96 94.6481 35.52C94.0401 36.5333 93.5281 37.36 93.1121 38H91.3201V27.056H93.1121C93.1121 27.9733 93.1067 29.3493 93.0961 31.184C93.0961 33.0187 93.0961 34.3947 93.0961 35.312H93.1601L94.7121 32.784C96.8561 29.2853 98.0294 27.3653 98.2321 27.024ZM108.061 38H106.269V28.384H102.765V27.024H111.565V28.384H108.077L108.061 38ZM114.349 38V27.024H116.157V31.44H118.621C119.763 31.44 120.664 31.744 121.325 32.352C121.987 32.96 122.317 33.7547 122.317 34.736C122.317 35.7813 122.003 36.5867 121.373 37.152C120.744 37.7173 119.912 38 118.877 38H114.349ZM118.349 32.704H116.157V36.736H118.509C119.075 36.736 119.539 36.5653 119.901 36.224C120.275 35.872 120.461 35.3707 120.461 34.72C120.461 34.0587 120.253 33.5573 119.837 33.216C119.432 32.8747 118.936 32.704 118.349 32.704ZM134.501 26.848C135.653 26.848 136.581 27.0613 137.285 27.488C137.989 27.9147 138.341 28.6027 138.341 29.552C138.341 30 138.191 30.448 137.893 30.896C137.605 31.3333 137.199 31.6747 136.677 31.92L136.709 32C137.285 32.192 137.749 32.5227 138.101 32.992C138.463 33.4613 138.645 34 138.645 34.608C138.645 35.7173 138.223 36.576 137.381 37.184C136.549 37.7813 135.487 38.08 134.197 38.08C132.693 38.08 131.466 37.8613 130.517 37.424L130.917 36.208C131.983 36.5387 132.975 36.704 133.893 36.704C135.813 36.704 136.773 35.9947 136.773 34.576C136.773 33.9893 136.538 33.5307 136.069 33.2C135.61 32.8693 135.013 32.704 134.277 32.704H132.917V31.504H134.181C134.842 31.504 135.386 31.3227 135.813 30.96C136.239 30.5973 136.453 30.192 136.453 29.744C136.453 28.7093 135.701 28.192 134.197 28.192C133.226 28.192 132.282 28.384 131.365 28.768L130.981 27.584C132.015 27.0933 133.189 26.848 134.501 26.848ZM150.45 38H148.578C148.472 37.6587 148.317 37.168 148.114 36.528C147.912 35.8773 147.784 35.4667 147.73 35.296H143.554L142.706 38H140.882C141.298 36.752 141.917 34.9067 142.738 32.464C143.57 30.0107 144.178 28.1973 144.562 27.024H146.85L150.45 38ZM147.346 34L146.578 31.408C146.536 31.2693 146.242 30.272 145.698 28.416H145.634L144.786 31.344C144.776 31.3867 144.642 31.8187 144.386 32.64C144.141 33.4613 144.002 33.9147 143.97 34H147.346ZM154.853 32.96V32.896C154.277 32.6933 153.829 32.3467 153.509 31.856C153.189 31.3653 153.029 30.8053 153.029 30.176C153.029 29.2373 153.317 28.48 153.893 27.904C154.469 27.3173 155.312 27.024 156.421 27.024H160.549V38H158.741V33.392H157.237C156.693 33.392 156.251 33.5147 155.909 33.76C155.579 34.0053 155.317 34.4373 155.125 35.056L154.277 38H152.469L153.365 34.88C153.525 34.3147 153.717 33.888 153.941 33.6C154.165 33.312 154.469 33.0987 154.853 32.96ZM156.773 32.08H158.741V28.352H156.789C156.213 28.352 155.749 28.512 155.397 28.832C155.045 29.152 154.869 29.6267 154.869 30.256C154.869 30.928 155.056 31.4027 155.429 31.68C155.813 31.9467 156.261 32.08 156.773 32.08ZM170.488 32.224V32.288C171.608 32.6933 172.168 33.5467 172.168 34.848C172.168 35.7973 171.864 36.56 171.256 37.136C170.659 37.712 169.885 38 168.936 38H164.28V27.04H168.6C169.667 27.04 170.483 27.3013 171.048 27.824C171.613 28.336 171.896 29.0293 171.896 29.904C171.896 30.9707 171.427 31.744 170.488 32.224ZM170.376 34.816C170.376 34.2827 170.205 33.84 169.864 33.488C169.523 33.136 169.032 32.96 168.392 32.96H166.072V36.688H168.392C169.085 36.688 169.587 36.5173 169.896 36.176C170.216 35.8347 170.376 35.3813 170.376 34.816ZM169.56 31.28C169.901 30.9813 170.072 30.5707 170.072 30.048C170.072 29.5253 169.912 29.1147 169.592 28.816C169.272 28.5067 168.787 28.352 168.136 28.352H166.072V31.712H168.136C168.755 31.712 169.229 31.568 169.56 31.28ZM177.446 38H175.654V27.04H177.446V31.488H179.11C180.102 31.488 180.736 30.944 181.014 29.856L181.734 27.056H183.462L182.726 30.112C182.47 31.1893 181.947 31.872 181.158 32.16C182.096 32.3307 182.72 33.0027 183.03 34.176L184.022 38H182.23L181.286 34.56C181.115 33.9307 180.88 33.4933 180.582 33.248C180.283 33.0027 179.84 32.88 179.254 32.88H177.446V38ZM190.36 34.096H190.44L191.4 31.376L192.984 27.024H194.776L191.112 36.496C190.877 37.104 190.584 37.5413 190.232 37.808C189.891 38.064 189.448 38.192 188.904 38.192C188.243 38.192 187.571 38.096 186.888 37.904L187.208 36.592C187.784 36.72 188.211 36.784 188.488 36.784C188.755 36.784 188.968 36.7307 189.128 36.624C189.288 36.5173 189.427 36.304 189.544 35.984L189.816 35.248H189.288L185.896 27.024H187.688L189.368 31.376L190.36 34.096Z" fill="#052920"></path> <circle cx="242" cy="32" r="31.5" stroke="#AB9173"></circle> <path fill-rule="evenodd" clip-rule="evenodd" d="M252.5 32L243.5 22L247.3 31.5H229V32.5H247.3L243.5 42L252.5 32Z" fill="#816546"></path> <rect x="0.5" y="0.5" width="273" height="63" rx="31.5" stroke="#AF9578"></rect> </svg> 