<?xml version="1.0" encoding="UTF-8"?> <svg xmlns="http://www.w3.org/2000/svg" width="66" height="66" viewBox="0 0 66 66" fill="none"> <path d="M30.0798 32.9999C30.0798 31.5973 31.2165 30.46 32.619 30.46C34.0216 30.46 35.1589 31.5973 35.1589 32.9999C35.1589 34.4025 34.0216 35.5398 32.619 35.5398C31.2165 35.5398 30.0798 34.4025 30.0798 32.9999ZM28.7068 32.9999C28.7068 35.1607 30.4583 36.9122 32.619 36.9122C34.7798 36.9122 36.5313 35.1607 36.5313 32.9999C36.5313 30.8391 34.7798 29.0876 32.619 29.0876C30.4583 29.0876 28.7068 30.8391 28.7068 32.9999ZM35.7719 28.9325C35.7719 29.1133 35.8254 29.2901 35.9258 29.4405C36.0262 29.5909 36.169 29.7081 36.336 29.7774C36.503 29.8467 36.6869 29.8649 36.8642 29.8296C37.0416 29.7944 37.2045 29.7074 37.3325 29.5796C37.4604 29.4518 37.5475 29.2889 37.5829 29.1116C37.6182 28.9342 37.6002 28.7504 37.531 28.5833C37.4619 28.4162 37.3448 28.2734 37.1945 28.1729C37.0442 28.0723 36.8674 28.0186 36.6866 28.0186C36.4442 28.0187 36.2114 28.115 36.04 28.2864C35.8685 28.4577 35.7721 28.6901 35.7719 28.9325ZM29.541 39.2016C28.7981 39.1678 28.3944 39.0441 28.1261 38.9395C27.7703 38.801 27.5165 38.6361 27.2497 38.3696C26.9828 38.1031 26.8177 37.8496 26.6798 37.4939C26.5752 37.2257 26.4515 36.8218 26.4177 36.079C26.3808 35.2759 26.3734 35.0346 26.3734 33C26.3734 30.9653 26.3814 30.7247 26.4177 29.921C26.4515 29.1781 26.5762 28.7751 26.6798 28.5061C26.8183 28.1504 26.9832 27.8965 27.2497 27.6297C27.5162 27.3628 27.7697 27.1977 28.1261 27.0598C28.3943 26.9552 28.7981 26.8315 29.541 26.7977C30.3441 26.7608 30.5853 26.7534 32.619 26.7534C34.6528 26.7534 34.8943 26.7614 35.6981 26.7977C36.4409 26.8315 36.844 26.9562 37.1129 27.0598C37.4687 27.1977 37.7225 27.3632 37.9893 27.6297C38.2562 27.8962 38.4207 28.1504 38.5592 28.5061C38.6638 28.7743 38.7876 29.1781 38.8213 29.921C38.8583 30.7247 38.8656 30.9653 38.8656 33C38.8656 35.0346 38.8583 35.2752 38.8213 36.079C38.7875 36.8218 38.6631 37.2256 38.5592 37.4939C38.4207 37.8496 38.2558 38.1034 37.9893 38.3696C37.7228 38.6359 37.4687 38.801 37.1129 38.9395C36.8448 39.0441 36.4409 39.1679 35.6981 39.2016C34.8949 39.2386 34.6537 39.2459 32.619 39.2459C30.5844 39.2459 30.3438 39.2386 29.541 39.2016ZM29.4779 25.427C28.6668 25.4639 28.1125 25.5925 27.6285 25.7809C27.1272 25.9754 26.7029 26.2363 26.2788 26.6597C25.8548 27.0831 25.5945 27.5081 25.4 28.0094C25.2117 28.4937 25.0831 29.0476 25.0461 29.8587C25.0086 30.6711 25 30.9308 25 32.9999C25 35.069 25.0086 35.3287 25.0461 36.1411C25.0831 36.9522 25.2117 37.5061 25.4 37.9904C25.5945 38.4914 25.8549 38.9169 26.2788 39.3401C26.7028 39.7633 27.1272 40.0239 27.6285 40.2189C28.1134 40.4073 28.6668 40.5359 29.4779 40.5728C30.2907 40.6097 30.55 40.619 32.619 40.619C34.6881 40.619 34.9479 40.6104 35.7602 40.5728C36.5714 40.5359 37.1253 40.4073 37.6096 40.2189C38.1106 40.0239 38.5352 39.7635 38.9593 39.3401C39.3833 38.9167 39.643 38.4914 39.8381 37.9904C40.0264 37.5061 40.1556 36.9522 40.192 36.1411C40.2289 35.3281 40.2375 35.069 40.2375 32.9999C40.2375 30.9308 40.2289 30.6711 40.192 29.8587C40.155 29.0476 40.0264 28.4934 39.8381 28.0094C39.643 27.5084 39.3826 27.0837 38.9593 26.6597C38.5359 26.2357 38.1106 25.9754 37.6102 25.7809C37.1253 25.5925 36.5713 25.4633 35.7608 25.427C34.9485 25.3901 34.6887 25.3809 32.6197 25.3809C30.5506 25.3809 30.2907 25.3895 29.4779 25.427Z" fill="#FAF1E0"></path> <rect x="1" y="1" width="64" height="64" rx="32" stroke="#AB9173"></rect> </svg> 