<?xml version="1.0" encoding="UTF-8"?> <svg xmlns="http://www.w3.org/2000/svg" width="801" height="802" viewBox="0 0 801 802" fill="none"> <circle cx="400" cy="401" r="400" stroke="#AB9173"></circle> <path d="M247.725 301.528L235.693 285.784C235.351 285.4 235.01 285.08 234.669 284.824C234.37 284.568 233.943 284.269 233.389 283.928L230.765 282.712L231.149 282.264L232.173 282.136L232.557 282.072L235.949 282.2L239.277 282.328L242.733 282.2L244.077 282.008L245.357 281.944C246.167 281.944 246.594 282.115 246.637 282.456C246.637 282.883 246.231 283.096 245.421 283.096C243.415 283.096 242.413 283.629 242.413 284.696C242.413 285.037 242.477 285.379 242.605 285.72C242.775 286.061 243.223 286.68 243.949 287.576L251.501 297.304L255.213 292.568C256.279 291.373 257.197 290.051 257.965 288.6C258.775 287.107 259.181 285.976 259.181 285.208C259.181 284.44 258.903 283.928 258.349 283.672C258.221 283.587 257.687 283.48 256.749 283.352C255.981 283.352 255.469 283.224 255.213 282.968L255.021 282.648C255.191 282.435 255.341 282.285 255.469 282.2L256.173 282.008L260.269 282.2H261.613L265.773 282.008L266.733 281.944C267.287 281.944 267.65 282.093 267.821 282.392C267.821 282.776 267.479 283.053 266.797 283.224L265.453 283.48C264.599 283.779 263.682 284.419 262.701 285.4L260.525 288.024L252.461 298.52L265.645 315.288C266.37 316.269 267.629 317.08 269.421 317.72C270.061 317.933 270.381 318.168 270.381 318.424C270.253 318.851 269.805 319.064 269.037 319.064L268.013 319L263.405 318.808L257.069 319L255.341 319.128C254.402 319.128 253.933 318.936 253.933 318.552C253.933 318.296 254.103 318.083 254.445 317.912L255.533 317.72L257.517 317.528C258.071 317.4 258.37 317.059 258.413 316.504C258.413 315.992 258.199 315.331 257.773 314.52L256.621 312.856L248.749 302.808L242.797 310.488L241.069 312.856C240.471 313.923 240.173 314.84 240.173 315.608C240.173 316.376 240.45 316.909 241.005 317.208C241.602 317.464 242.327 317.656 243.181 317.784C244.077 317.784 244.525 317.997 244.525 318.424L244.461 318.744C244.375 319 243.949 319.128 243.181 319.128L241.197 318.936L238.829 318.872L232.877 319.064C231.981 319.064 231.49 318.872 231.405 318.488L231.469 318.296C231.682 318.168 231.853 318.083 231.981 318.04C232.407 317.827 232.663 317.699 232.749 317.656L234.925 316.888C235.778 316.504 236.631 315.821 237.485 314.84L239.597 312.088L247.725 301.528ZM286.835 294.104C290.206 294.104 293.171 295.341 295.731 297.816C298.334 300.248 299.635 303.213 299.635 306.712C299.635 310.296 298.334 313.368 295.731 315.928C293.129 318.445 290.035 319.704 286.451 319.704C282.782 319.704 279.667 318.509 277.107 316.12C274.59 313.688 273.331 310.659 273.331 307.032C273.331 303.32 274.654 300.248 277.299 297.816C279.945 295.341 283.123 294.104 286.835 294.104ZM284.787 295.32C282.654 295.917 281.054 297.432 279.987 299.864C279.091 301.869 278.643 304.259 278.643 307.032L278.835 309.464L279.091 311.384C279.518 313.517 280.371 315.288 281.651 316.696C282.974 318.019 284.531 318.68 286.323 318.68L287.475 318.552L288.883 318.232C290.803 317.592 292.233 316.141 293.171 313.88C293.897 312.045 294.259 309.848 294.259 307.288V305.624C294.259 304.6 294.238 303.853 294.195 303.384C294.153 302.872 294.003 302.189 293.747 301.336C293.449 300.013 292.873 298.84 292.019 297.816C290.611 296.067 288.734 295.192 286.387 295.192L284.787 295.32ZM305.907 294.744H325.875C326.686 294.744 327.155 295.021 327.283 295.576L327.475 297.368C327.475 298.221 327.518 298.883 327.603 299.352V299.8C327.603 300.184 327.475 300.419 327.219 300.504C326.878 300.504 326.601 300.248 326.387 299.736L326.067 298.648C325.769 297.795 325.129 297.133 324.147 296.664C323.209 296.195 321.971 295.96 320.435 295.96C319.71 295.96 319.177 296.195 318.835 296.664C318.494 297.091 318.323 298.072 318.323 299.608V314.264C318.323 315.8 318.579 316.76 319.091 317.144L321.907 317.976C322.078 318.104 322.163 318.211 322.163 318.296L322.291 318.552L321.971 319L321.139 319.064L315.891 318.808L310.579 319.064L309.747 319L309.491 318.808L309.427 318.552L309.555 318.232C309.641 318.061 309.726 317.976 309.811 317.976L312.627 317.144C313.182 316.803 313.459 315.843 313.459 314.264V299.608C313.459 298.157 313.267 297.197 312.883 296.728C312.542 296.216 312.009 295.96 311.283 295.96C309.961 295.96 309.001 296.067 308.403 296.28C307.081 296.664 306.163 297.453 305.651 298.648L305.331 299.864C305.203 300.248 304.969 300.461 304.627 300.504C304.243 300.504 304.051 300.269 304.051 299.8L304.115 299.352L304.371 296.152C304.499 295.213 305.011 294.744 305.907 294.744ZM352.206 301.72L340.046 313.816V314.264L339.982 314.584C339.982 315.949 340.26 316.824 340.814 317.208L343.694 317.976C343.865 318.061 343.95 318.147 343.95 318.232L344.014 318.488L343.694 319L342.862 319.064L337.614 318.808L332.302 319.064L331.534 319L331.278 318.808L331.15 318.552L331.342 318.232L331.534 317.976L334.35 317.144C334.905 316.803 335.182 315.843 335.182 314.264V299.608C335.182 298.072 334.926 297.112 334.414 296.728C334.03 296.643 333.625 296.557 333.198 296.472C332.772 296.344 332.217 296.131 331.534 295.832L331.278 295.64L331.15 295.32L331.534 294.872L332.302 294.808L337.614 295.064L342.862 294.808L343.694 294.872C343.865 294.957 343.95 295.043 343.95 295.128L344.014 295.32L343.694 295.832L340.878 296.664C340.281 297.005 339.982 297.901 339.982 299.352L340.046 299.608V312.216L352.206 300.12V299.352C352.206 297.987 351.929 297.112 351.374 296.728C350.649 296.557 350.137 296.429 349.838 296.344C349.54 296.259 349.113 296.088 348.558 295.832L348.238 295.64L348.174 295.32L348.558 294.872L349.326 294.808L354.574 295.064L359.886 294.808L360.718 294.872L360.974 295.32L360.654 295.832L357.838 296.728C357.284 297.069 357.006 298.029 357.006 299.608V314.264C357.006 315.843 357.262 316.803 357.774 317.144L360.654 317.976L360.846 318.232L360.974 318.552C360.932 318.68 360.889 318.787 360.846 318.872C360.804 318.915 360.761 318.957 360.718 319L359.886 319.064L354.574 318.808L349.326 319.064L348.558 319L348.238 318.808L348.174 318.488L348.302 318.232C348.388 318.061 348.473 317.976 348.558 317.976L351.31 317.208C351.908 316.867 352.206 315.992 352.206 314.584V301.72ZM367.225 294.744H387.193C388.003 294.744 388.473 295.021 388.601 295.576L388.793 297.368C388.793 298.221 388.835 298.883 388.921 299.352V299.8C388.921 300.184 388.793 300.419 388.537 300.504C388.195 300.504 387.918 300.248 387.705 299.736L387.385 298.648C387.086 297.795 386.446 297.133 385.465 296.664C384.526 296.195 383.289 295.96 381.753 295.96C381.027 295.96 380.494 296.195 380.153 296.664C379.811 297.091 379.641 298.072 379.641 299.608V314.264C379.641 315.8 379.897 316.76 380.409 317.144L383.225 317.976C383.395 318.104 383.481 318.211 383.481 318.296L383.609 318.552L383.289 319L382.457 319.064L377.209 318.808L371.897 319.064L371.065 319L370.809 318.808L370.745 318.552L370.873 318.232C370.958 318.061 371.043 317.976 371.129 317.976L373.945 317.144C374.499 316.803 374.777 315.843 374.777 314.264V299.608C374.777 298.157 374.585 297.197 374.201 296.728C373.859 296.216 373.326 295.96 372.601 295.96C371.278 295.96 370.318 296.067 369.721 296.28C368.398 296.664 367.481 297.453 366.969 298.648L366.649 299.864C366.521 300.248 366.286 300.461 365.945 300.504C365.561 300.504 365.369 300.269 365.369 299.8L365.433 299.352L365.689 296.152C365.817 295.213 366.329 294.744 367.225 294.744ZM398.164 303.896L397.972 306.52C397.972 309.848 398.889 312.579 400.724 314.712C402.388 316.717 404.457 317.72 406.932 317.72C409.065 317.72 410.985 316.931 412.692 315.352L413.268 314.648C413.481 314.349 413.78 314.179 414.164 314.136L414.484 314.2C414.612 314.285 414.718 314.477 414.804 314.776C414.804 315.075 414.59 315.501 414.164 316.056C413.737 316.568 413.225 317.08 412.628 317.592C411.732 318.232 410.622 318.744 409.3 319.128C407.977 319.555 406.633 319.768 405.268 319.768C402.153 319.768 399.422 318.915 397.076 317.208C395.582 316.056 394.43 314.648 393.62 312.984C392.852 311.277 392.468 309.485 392.468 307.608C392.468 303.469 393.982 300.013 397.012 297.24C398.121 296.173 399.38 295.405 400.788 294.936C402.196 294.424 403.753 294.168 405.46 294.168C407.806 294.168 409.897 294.744 411.732 295.896C413.566 297.048 414.825 298.755 415.508 301.016L415.7 302.168L415.828 302.808C415.828 303.533 415.337 303.896 414.356 303.896H398.164ZM398.484 302.296H409.748C410.388 302.296 410.708 301.869 410.708 301.016C410.708 300.291 410.516 299.459 410.132 298.52C409.748 297.581 409.364 296.92 408.98 296.536C407.956 295.725 406.74 295.32 405.332 295.32C403.966 295.32 402.814 295.619 401.876 296.216C400.937 296.771 400.19 297.56 399.636 298.584C399.124 299.565 398.74 300.803 398.484 302.296ZM462.037 294.68L462.165 295.064L461.973 295.704C461.077 295.832 460.458 296.131 460.117 296.6C459.818 297.069 459.669 297.773 459.669 298.712L459.605 307.096C460.373 306.328 461.098 305.581 461.781 304.856C462.634 303.96 463.317 303.213 463.829 302.616C466.346 299.757 467.605 297.859 467.605 296.92L467.477 296.472C467.349 296.301 466.858 296.152 466.005 296.024C465.279 296.024 464.831 295.832 464.661 295.448L464.597 295.256C464.597 294.872 464.831 294.68 465.301 294.68L466.837 294.808C467.733 294.808 468.437 294.851 468.949 294.936L469.589 294.872L470.933 294.68L472.469 294.616C473.109 294.616 473.535 294.659 473.749 294.744C474.005 294.744 474.133 294.872 474.133 295.128C474.133 295.427 473.898 295.661 473.429 295.832L472.213 296.152C471.359 296.408 470.378 297.112 469.269 298.264L467.733 299.992L463.573 304.6L473.877 315.16L475.413 316.696C476.01 317.208 476.607 317.528 477.205 317.656C477.717 317.699 478.015 317.955 478.101 318.424C478.015 318.595 477.951 318.701 477.909 318.744C477.866 318.787 477.823 318.808 477.781 318.808L476.117 319L473.301 318.808L471.829 318.936C471.317 318.936 470.89 318.787 470.549 318.488L461.973 309.272L461.013 308.312C460.671 308.099 460.266 307.949 459.797 307.864L459.669 314.264L459.605 314.584C459.605 315.949 459.882 316.824 460.437 317.208L463.317 317.976C463.487 318.061 463.573 318.147 463.573 318.232L463.637 318.488L463.317 319L462.485 319.064L457.237 318.808L451.925 319.064L451.157 319L450.901 318.808L450.837 318.488L451.157 317.976L453.973 317.208C454.527 316.909 454.805 316.035 454.805 314.584V307.864C454.335 307.864 453.887 308.013 453.461 308.312L452.501 309.272L443.925 318.488C443.711 318.701 443.263 318.851 442.581 318.936L441.173 318.808L438.293 319L436.693 318.808L436.373 318.616L436.309 318.424C436.309 318.04 436.586 317.784 437.141 317.656C437.738 317.528 438.357 317.208 438.997 316.696L440.597 315.16L450.901 304.6L446.677 299.992L444.757 297.752C444.031 297.027 443.199 296.493 442.261 296.152L440.853 295.832C440.469 295.747 440.277 295.576 440.277 295.32L440.341 295.128C440.341 294.787 440.874 294.616 441.941 294.616L443.477 294.68L444.885 294.872L445.461 294.936L447.445 294.808L449.045 294.68C449.557 294.723 449.834 294.893 449.877 295.192L449.813 295.448C449.77 295.661 449.322 295.832 448.469 295.96C447.743 295.96 447.253 296.131 446.997 296.472L446.805 296.92C446.805 297.859 448.063 299.736 450.581 302.552L454.869 307.032V298.648C454.869 297.581 454.719 296.877 454.421 296.536C454.165 296.195 453.525 295.917 452.501 295.704L452.309 295.448L452.245 295.064L452.437 294.68L453.589 294.616L457.045 294.68L460.693 294.616L462.037 294.68ZM502.719 301.72L490.559 313.816V314.264L490.495 314.584C490.495 315.949 490.772 316.824 491.327 317.208L494.207 317.976C494.377 318.061 494.463 318.147 494.463 318.232L494.527 318.488L494.207 319L493.375 319.064L488.127 318.808L482.815 319.064L482.047 319L481.791 318.808L481.663 318.552L481.855 318.232L482.047 317.976L484.863 317.144C485.417 316.803 485.695 315.843 485.695 314.264V299.608C485.695 298.072 485.439 297.112 484.927 296.728C484.543 296.643 484.137 296.557 483.711 296.472C483.284 296.344 482.729 296.131 482.047 295.832L481.791 295.64L481.663 295.32L482.047 294.872L482.815 294.808L488.127 295.064L493.375 294.808L494.207 294.872C494.377 294.957 494.463 295.043 494.463 295.128L494.527 295.32L494.207 295.832L491.391 296.664C490.793 297.005 490.495 297.901 490.495 299.352L490.559 299.608V312.216L502.719 300.12V299.352C502.719 297.987 502.441 297.112 501.887 296.728C501.161 296.557 500.649 296.429 500.351 296.344C500.052 296.259 499.625 296.088 499.071 295.832L498.751 295.64L498.687 295.32L499.071 294.872L499.839 294.808L505.087 295.064L510.399 294.808L511.231 294.872L511.487 295.32L511.167 295.832L508.351 296.728C507.796 297.069 507.519 298.029 507.519 299.608V314.264C507.519 315.843 507.775 316.803 508.287 317.144L511.167 317.976L511.359 318.232L511.487 318.552C511.444 318.68 511.401 318.787 511.359 318.872C511.316 318.915 511.273 318.957 511.231 319L510.399 319.064L505.087 318.808L499.839 319.064L499.071 319L498.751 318.808L498.687 318.488L498.815 318.232C498.9 318.061 498.985 317.976 499.071 317.976L501.823 317.208C502.42 316.867 502.719 315.992 502.719 314.584V301.72ZM517.737 294.744H537.705C538.516 294.744 538.985 295.021 539.113 295.576L539.305 297.368C539.305 298.221 539.348 298.883 539.433 299.352V299.8C539.433 300.184 539.305 300.419 539.049 300.504C538.708 300.504 538.431 300.248 538.217 299.736L537.897 298.648C537.599 297.795 536.959 297.133 535.977 296.664C535.039 296.195 533.801 295.96 532.265 295.96C531.54 295.96 531.007 296.195 530.665 296.664C530.324 297.091 530.153 298.072 530.153 299.608V314.264C530.153 315.8 530.409 316.76 530.921 317.144L533.737 317.976C533.908 318.104 533.993 318.211 533.993 318.296L534.121 318.552L533.801 319L532.969 319.064L527.721 318.808L522.409 319.064L521.577 319L521.321 318.808L521.257 318.552L521.385 318.232C521.471 318.061 521.556 317.976 521.641 317.976L524.457 317.144C525.012 316.803 525.289 315.843 525.289 314.264V299.608C525.289 298.157 525.097 297.197 524.713 296.728C524.372 296.216 523.839 295.96 523.113 295.96C521.791 295.96 520.831 296.067 520.233 296.28C518.911 296.664 517.993 297.453 517.481 298.648L517.161 299.864C517.033 300.248 516.799 300.461 516.457 300.504C516.073 300.504 515.881 300.269 515.881 299.8L515.945 299.352L516.201 296.152C516.329 295.213 516.841 294.744 517.737 294.744ZM556.292 318.04C558.383 318.04 560.068 317.528 561.348 316.504C562.671 315.48 563.332 314.136 563.332 312.472C563.332 310.509 562.372 308.952 560.452 307.8C558.916 306.904 557.06 306.456 554.884 306.456H553.604C553.092 306.456 552.687 306.541 552.388 306.712C552.132 306.84 551.962 307.16 551.876 307.672V314.84C551.876 315.992 552.218 316.824 552.9 317.336C553.711 317.805 554.842 318.04 556.292 318.04ZM547.012 299.416L546.948 297.752C546.82 296.984 546.202 296.451 545.092 296.152L543.684 295.832C543.343 295.704 543.13 295.512 543.044 295.256L543.236 294.872C543.364 294.744 543.727 294.659 544.324 294.616L546.5 294.808L548.292 294.936L549.508 295L554.564 294.808L555.524 294.872C555.695 294.957 555.78 295.043 555.78 295.128L555.844 295.32L555.524 295.832L552.708 296.792C552.196 297.133 551.94 297.987 551.94 299.352V304.472C551.94 305.112 552.282 305.453 552.964 305.496L554.116 305.432H555.972C558.66 305.432 560.794 305.624 562.372 306.008C563.951 306.392 565.295 306.947 566.404 307.672C567.002 308.056 567.492 308.675 567.876 309.528C568.26 310.381 568.452 311.277 568.452 312.216C568.452 313.368 568.239 314.371 567.812 315.224C567.044 316.589 565.508 317.635 563.204 318.36C561.455 318.829 559.215 319.064 556.484 319.064L552.708 318.936L549.444 318.808L544.132 319.064L543.364 319L543.108 318.808L542.98 318.552L543.172 318.232L543.364 317.976L546.18 317.144C546.735 316.803 547.012 315.843 547.012 314.264V299.416Z" fill="white"></path> <path d="M284.717 366.616L285.245 366.712C286.237 366.712 287.341 366.216 288.557 365.224C289.805 364.2 290.621 363.176 291.005 362.152L291.197 360.904C291.197 360.168 290.973 359.56 290.525 359.08C290.109 358.568 289.565 358.312 288.893 358.312C288.285 358.6 287.501 358.92 286.541 359.272C285.581 359.592 284.765 359.832 284.093 359.992C283.805 361.24 283.629 362.104 283.565 362.584C283.501 363.032 283.469 363.512 283.469 364.024C283.469 364.76 283.549 365.352 283.709 365.8C283.901 366.216 284.237 366.488 284.717 366.616ZM291.341 348.184C292.461 348.184 293.405 348.44 294.173 348.952C294.973 349.464 295.373 350.184 295.373 351.112C295.373 352.2 294.925 353.288 294.029 354.376C293.357 355.208 292.381 356.056 291.101 356.92C292.125 356.92 292.941 357.192 293.549 357.736C294.157 358.28 294.461 359 294.461 359.896C294.461 360.344 294.397 360.76 294.269 361.144C293.789 362.712 292.653 364.168 290.861 365.512C289.069 366.824 287.197 367.48 285.245 367.48L283.901 367.336C282.781 367.112 281.917 366.552 281.309 365.656C280.701 364.728 280.397 363.704 280.397 362.584C280.397 360.888 280.733 359.208 281.405 357.544C282.077 355.848 282.941 354.312 283.997 352.936C285.085 351.56 286.157 350.488 287.213 349.72C288.589 348.696 289.965 348.184 291.341 348.184ZM288.365 350.392C287.437 351.416 286.621 352.712 285.917 354.28C285.213 355.848 284.701 357.416 284.381 358.984C286.045 358.504 287.517 357.816 288.797 356.92C290.109 355.992 291.149 354.888 291.917 353.608C292.173 353.192 292.381 352.744 292.541 352.264C292.701 351.784 292.781 351.304 292.781 350.824C292.781 350.248 292.637 349.8 292.349 349.48C292.093 349.128 291.709 348.952 291.197 348.952C290.685 348.952 290.173 349.096 289.661 349.384C289.149 349.64 288.717 349.976 288.365 350.392ZM319.614 357.256C320.222 355.272 320.526 353.656 320.526 352.408C320.526 351.192 320.27 350.328 319.758 349.816C319.246 349.272 318.622 349 317.886 349C317.406 349 316.862 349.128 316.254 349.384C315.678 349.64 315.182 349.944 314.766 350.296C314.19 350.84 313.662 351.464 313.182 352.168C312.734 352.84 312.286 353.592 311.838 354.424L311.166 354.04C311.934 352.28 312.878 350.888 313.998 349.864C315.31 348.68 316.782 348.088 318.414 348.088C318.67 348.088 318.894 348.088 319.086 348.088C319.31 348.088 319.646 348.152 320.094 348.28C321.278 348.504 322.174 349.176 322.782 350.296C323.294 351.256 323.55 352.408 323.55 353.752C323.55 355.576 323.182 357.352 322.446 359.08C321.71 360.776 320.686 362.344 319.374 363.784C318.51 364.776 317.55 365.608 316.494 366.28C315.246 367.08 314.062 367.48 312.942 367.48L312.03 367.384C311.454 367.256 310.942 367.016 310.494 366.664C310.046 366.312 309.774 365.864 309.678 365.32L309.63 364.984C309.63 364.536 309.758 364.136 310.014 363.784C310.27 363.432 310.606 363.256 311.022 363.256C311.47 363.256 311.822 363.4 312.078 363.688C312.334 363.976 312.462 364.296 312.462 364.648C312.462 365.032 312.318 365.368 312.03 365.656L311.838 366.088C311.838 366.376 312.158 366.52 312.798 366.52C313.246 366.52 313.742 366.424 314.286 366.232C314.83 366.008 315.278 365.704 315.63 365.32C316.814 364.008 318.03 361.592 319.278 358.072H314.382L314.718 357.256H319.614ZM326.763 367H323.979L326.283 358.84C326.667 357.336 327.067 355.816 327.483 354.28C327.803 352.84 327.963 351.736 327.963 350.968C327.963 350.296 327.851 349.864 327.627 349.672C327.499 349.608 327.307 349.576 327.051 349.576C326.315 349.576 325.467 350.44 324.507 352.168C324.411 352.328 323.899 353.4 322.971 355.384L322.299 355.048C322.971 353.16 323.611 351.736 324.219 350.776C325.307 349.08 326.539 348.232 327.915 348.232L328.443 348.28C329.115 348.376 329.595 348.728 329.883 349.336C330.203 349.912 330.363 350.632 330.363 351.496C330.363 352.296 330.267 353.192 330.075 354.184C329.883 355.144 329.755 355.768 329.691 356.056C330.811 353.784 331.755 352.136 332.523 351.112C334.027 349.128 335.547 348.136 337.083 348.136H337.515C338.251 348.264 338.763 348.584 339.051 349.096C339.371 349.608 339.531 350.264 339.531 351.064C339.531 351.576 339.467 352.168 339.339 352.84C339.211 353.48 338.987 354.344 338.667 355.432C339.819 353.384 340.747 351.912 341.451 351.016C342.923 349.128 344.331 348.184 345.675 348.184L346.635 348.328C347.307 348.52 347.771 348.872 348.027 349.384C348.315 349.896 348.459 350.552 348.459 351.352C348.459 352.056 348.331 352.952 348.075 354.04C347.947 354.52 347.739 355.256 347.451 356.248L344.955 363.976C344.891 364.168 344.843 364.312 344.811 364.408C344.683 364.824 344.619 365.144 344.619 365.368C344.619 365.976 344.891 366.28 345.435 366.28L345.723 366.232C346.491 366.104 347.339 365.288 348.267 363.784C348.427 363.528 349.003 362.44 349.995 360.52L350.619 360.808C350.011 362.504 349.323 363.88 348.555 364.936C347.467 366.44 346.267 367.272 344.955 367.432H344.523C343.659 367.432 343.035 367.176 342.651 366.664C342.299 366.152 342.123 365.48 342.123 364.648C342.123 364.168 342.171 363.688 342.267 363.208C342.395 362.696 342.555 362.168 342.747 361.624L345.147 354.568C345.339 353.864 345.531 353.16 345.723 352.456C345.947 351.72 346.059 351.176 346.059 350.824C346.059 350.504 346.027 350.264 345.963 350.104C345.803 349.688 345.499 349.48 345.051 349.48H344.715C344.139 349.576 343.531 349.928 342.891 350.536C342.411 350.984 341.947 351.56 341.499 352.264C340.635 353.544 339.867 354.808 339.195 356.056C338.555 357.304 338.027 358.6 337.611 359.944L335.403 367H332.619L336.219 354.808C336.411 354.072 336.619 353.336 336.843 352.6C337.035 351.8 337.131 351.208 337.131 350.824C337.131 350.376 337.051 350.024 336.891 349.768C336.763 349.512 336.507 349.384 336.123 349.384H335.931C334.683 349.544 333.307 350.984 331.803 353.704C330.779 355.56 329.931 357.528 329.259 359.608L326.763 367ZM355.068 366.76L355.596 366.808C357.164 366.808 358.492 365.736 359.58 363.592C360.188 362.376 360.78 360.632 361.356 358.36C361.58 357.528 361.772 356.648 361.932 355.72C362.124 354.792 362.22 353.912 362.22 353.08C362.22 351.992 362.06 351.112 361.74 350.44C361.42 349.736 360.86 349.288 360.06 349.096L359.436 349.048C358.028 349.048 356.732 350.136 355.548 352.312C354.812 353.656 354.156 355.352 353.58 357.4C353.356 358.232 353.148 359.064 352.956 359.896C352.668 361.208 352.524 362.264 352.524 363.064C352.524 364.056 352.716 364.888 353.1 365.56C353.484 366.232 354.14 366.632 355.068 366.76ZM350.316 357.64C350.892 354.92 352.108 352.664 353.964 350.872C355.852 349.08 357.82 348.184 359.868 348.184C361.404 348.184 362.684 348.856 363.708 350.2C364.732 351.544 365.244 353.24 365.244 355.288C365.244 355.96 365.164 356.776 365.004 357.736C364.428 360.392 363.164 362.696 361.212 364.648C359.292 366.568 357.34 367.528 355.356 367.528C353.82 367.528 352.54 366.872 351.516 365.56C350.492 364.216 349.98 362.52 349.98 360.472C349.98 359.896 349.996 359.432 350.028 359.08C350.06 358.728 350.156 358.248 350.316 357.64ZM371.663 351.352C369.615 362.52 367.279 368.104 364.655 368.104C364.271 368.104 363.903 368.024 363.551 367.864C363.167 367.704 362.895 367.448 362.735 367.096C362.543 366.744 362.447 366.344 362.447 365.896C362.447 365.32 362.607 364.808 362.927 364.36C363.247 363.88 363.711 363.64 364.319 363.64C364.895 363.704 365.279 363.848 365.471 364.072C365.695 364.264 365.807 364.504 365.807 364.792C365.807 364.984 365.775 365.176 365.711 365.368C365.647 365.56 365.599 365.736 365.567 365.896L365.903 366.136C366.927 365.88 368.015 363.48 369.167 358.936C369.775 356.44 370.463 353 371.231 348.616H374.159C374.159 350.408 374.351 352.888 374.735 356.056C375.119 359.192 375.503 362.2 375.887 365.08L384.863 348.664H387.839L385.583 356.248C385.199 357.304 384.799 358.792 384.383 360.712C383.999 362.6 383.807 363.928 383.807 364.696C383.807 365.432 383.951 365.912 384.239 366.136L384.767 366.28C385.567 366.28 386.463 365.4 387.455 363.64C387.743 363.16 388.271 362.04 389.039 360.28L389.759 360.568C389.055 362.584 388.351 364.088 387.647 365.08C386.495 366.744 385.167 367.576 383.663 367.576H383.471C382.735 367.576 382.191 367.288 381.839 366.712C381.487 366.104 381.311 365.336 381.311 364.408C381.311 363.672 381.423 362.728 381.647 361.576C381.903 360.424 382.063 359.704 382.127 359.416L384.095 351.784L375.599 367.288H373.439C373.247 365.944 372.847 362.376 372.239 356.584C372.015 354.44 371.823 352.696 371.663 351.352ZM409.855 366.616L410.623 366.76C411.871 366.76 413.103 365.864 414.319 364.072C415.151 362.824 415.823 361.432 416.335 359.896C416.783 358.744 417.151 357.672 417.439 356.68C417.919 355.016 418.159 353.608 418.159 352.456C418.159 351.816 418.063 351.256 417.871 350.776C417.711 350.296 417.439 349.928 417.055 349.672C416.671 349.416 416.287 349.288 415.903 349.288C414.239 349.288 412.543 350.952 410.815 354.28C409.087 357.576 408.223 360.568 408.223 363.256C408.223 365.112 408.767 366.232 409.855 366.616ZM407.647 365.512L405.535 373.576C405.439 374.056 405.327 374.536 405.199 375.016C405.071 375.528 405.007 375.88 405.007 376.072C405.007 376.616 405.215 377.016 405.631 377.272C406.079 377.528 406.831 377.656 407.887 377.656L407.599 378.424H398.479L398.671 377.704C399.215 377.704 399.679 377.656 400.063 377.56C400.415 377.496 400.751 377.336 401.071 377.08C401.359 376.856 401.631 376.424 401.887 375.784C402.143 375.176 402.415 374.296 402.703 373.144L408.367 350.872C406.511 352.44 405.407 353.4 405.055 353.752C403.967 354.904 403.263 356.168 402.943 357.544L402.175 357.448C402.463 355.656 403.983 353.576 406.735 351.208C408.111 350.024 408.959 348.792 409.279 347.512L410.479 342.664C410.639 342.152 410.927 341.896 411.343 341.896L412.063 341.944C412.767 341.944 413.119 342.152 413.119 342.568L412.879 343.624L410.191 353.704C410.895 352.52 411.487 351.608 411.967 350.968C413.375 349.144 414.895 348.232 416.527 348.232C417.999 348.232 419.151 348.872 419.983 350.152C420.687 351.24 421.039 352.584 421.039 354.184V354.52C421.039 357.08 420.271 359.624 418.735 362.152C417.071 364.904 415.055 366.616 412.687 367.288C411.887 367.512 411.247 367.624 410.767 367.624C409.423 367.624 408.383 366.92 407.647 365.512ZM430.476 361.816C429.676 363.576 428.844 364.888 427.98 365.752C426.796 366.936 425.372 367.528 423.708 367.528C422.236 367.528 421.132 367.032 420.396 366.04C419.66 365.016 419.292 363.752 419.292 362.248L419.388 361.048C419.74 358.04 421.148 355.144 423.612 352.36C426.076 349.576 428.38 348.184 430.524 348.184C432.156 348.184 433.244 349.112 433.788 350.968C433.948 350.232 434.044 349.736 434.076 349.48C434.236 348.808 434.588 348.472 435.132 348.472L435.852 348.52C436.3 348.552 436.524 348.792 436.524 349.24L436.476 349.96L432.972 362.104C432.62 363.352 432.444 364.312 432.444 364.984C432.444 365.976 432.7 366.472 433.212 366.472C433.724 366.472 434.364 365.944 435.132 364.888C436.028 363.64 436.796 362.088 437.436 360.232L438.108 360.472C437.724 362.104 437.164 363.528 436.428 364.744C435.404 366.44 434.252 367.368 432.972 367.528L432.252 367.576C431.388 367.576 430.78 367.352 430.428 366.904C430.108 366.456 429.948 365.816 429.948 364.984C429.948 364.6 430.012 364.056 430.14 363.352C430.3 362.648 430.412 362.136 430.476 361.816ZM423.708 366.52C424.092 366.648 424.38 366.712 424.572 366.712C425.916 366.712 427.276 365.656 428.652 363.544C429.452 362.328 430.252 360.744 431.052 358.792C431.532 357.64 431.916 356.632 432.204 355.768C432.716 354.2 432.972 352.888 432.972 351.832C432.972 351.192 432.876 350.664 432.684 350.248C432.524 349.832 432.236 349.528 431.82 349.336C431.436 349.112 431.068 349 430.716 349C429.436 349 428.092 349.96 426.684 351.88C425.82 353.064 425.004 354.52 424.236 356.248C423.468 357.944 422.892 359.4 422.508 360.616C422.156 361.832 421.98 362.84 421.98 363.64C421.98 365.144 422.556 366.104 423.708 366.52ZM453.246 348.664H456.174L453.966 356.248C453.582 357.304 453.182 358.792 452.766 360.712C452.382 362.6 452.19 363.928 452.19 364.696C452.19 365.432 452.334 365.912 452.622 366.136L453.15 366.28C453.95 366.28 454.846 365.4 455.838 363.64C456.126 363.16 456.654 362.04 457.422 360.28L458.094 360.568C457.358 362.648 456.67 364.152 456.03 365.08C454.91 366.744 453.582 367.576 452.046 367.576H451.806C451.038 367.576 450.478 367.272 450.126 366.664C449.806 366.056 449.646 365.288 449.646 364.36C449.646 363.656 449.758 362.728 449.982 361.576C450.238 360.424 450.398 359.704 450.462 359.416C449.342 361.592 448.302 363.272 447.342 364.456C445.71 366.472 444.11 367.48 442.542 367.48C441.39 367.48 440.558 367.128 440.046 366.424C439.534 365.688 439.278 364.776 439.278 363.688C439.278 363.176 439.326 362.664 439.422 362.152C439.518 361.64 439.646 361.112 439.806 360.568L442.542 351.928C442.574 351.768 442.638 351.528 442.734 351.208C442.83 350.856 442.878 350.52 442.878 350.2C442.878 349.528 442.622 349.192 442.11 349.192C441.214 349.192 440.254 349.976 439.23 351.544C438.942 351.96 438.35 353.08 437.454 354.904L436.83 354.52C437.694 352.536 438.414 351.16 438.99 350.392C440.078 348.888 441.326 348.136 442.734 348.136H443.358C444.126 348.232 444.67 348.536 444.99 349.048C445.342 349.56 445.518 350.2 445.518 350.968C445.518 351.576 445.406 352.296 445.182 353.128C444.958 353.928 444.798 354.488 444.702 354.808L442.446 361.528C442.286 362.136 442.126 362.744 441.966 363.352C441.838 363.928 441.774 364.408 441.774 364.792C441.774 365.336 441.854 365.752 442.014 366.04C442.206 366.328 442.542 366.472 443.022 366.472L443.31 366.424C444.302 366.328 445.278 365.736 446.238 364.648C446.654 364.168 447.358 363.128 448.35 361.528C449.342 359.928 450.286 357.752 451.182 355C452.078 352.248 452.766 350.136 453.246 348.664ZM445.854 344.344L445.758 343.864C445.758 343.448 445.854 343.096 446.046 342.808C446.27 342.52 446.622 342.344 447.102 342.28L447.438 342.232C447.854 342.232 448.206 342.36 448.494 342.616C448.782 342.872 448.926 343.16 448.926 343.48L448.878 344.056C448.878 344.536 449.022 344.92 449.31 345.208C449.63 345.464 450.046 345.592 450.558 345.592C451.518 345.592 452.446 345.176 453.342 344.344C454.366 343.384 454.958 342.152 455.118 340.648H455.934C455.678 342.536 454.846 344.056 453.438 345.208C452.222 346.232 450.862 346.744 449.358 346.744C448.494 346.744 447.742 346.552 447.102 346.168C446.494 345.752 446.078 345.144 445.854 344.344ZM462.751 366.76L463.279 366.808C464.847 366.808 466.175 365.736 467.263 363.592C467.871 362.376 468.463 360.632 469.039 358.36C469.263 357.528 469.455 356.648 469.615 355.72C469.807 354.792 469.903 353.912 469.903 353.08C469.903 351.992 469.743 351.112 469.423 350.44C469.103 349.736 468.543 349.288 467.743 349.096L467.119 349.048C465.711 349.048 464.415 350.136 463.231 352.312C462.495 353.656 461.839 355.352 461.263 357.4C461.039 358.232 460.831 359.064 460.639 359.896C460.351 361.208 460.207 362.264 460.207 363.064C460.207 364.056 460.399 364.888 460.783 365.56C461.167 366.232 461.823 366.632 462.751 366.76ZM457.999 357.64C458.575 354.92 459.791 352.664 461.647 350.872C463.535 349.08 465.503 348.184 467.551 348.184C469.087 348.184 470.367 348.856 471.391 350.2C472.415 351.544 472.927 353.24 472.927 355.288C472.927 355.96 472.847 356.776 472.687 357.736C472.111 360.392 470.847 362.696 468.895 364.648C466.975 366.568 465.023 367.528 463.039 367.528C461.503 367.528 460.223 366.872 459.199 365.56C458.175 364.216 457.663 362.52 457.663 360.472C457.663 359.896 457.679 359.432 457.711 359.08C457.743 358.728 457.839 358.248 457.999 357.64ZM478.386 358.072C478.162 358.808 477.762 360.344 477.186 362.68C476.642 364.984 476.274 366.424 476.082 367H473.106L475.362 359.56C475.842 357.8 476.242 356.136 476.562 354.568C476.882 353 477.042 351.848 477.042 351.112C477.042 350.28 476.914 349.784 476.658 349.624L476.082 349.528C475.314 349.528 474.434 350.408 473.442 352.168C473.218 352.552 472.706 353.656 471.906 355.48L471.186 355.24C471.89 353.256 472.562 351.752 473.202 350.728C474.322 349 475.586 348.136 476.994 348.136H477.474C478.21 348.232 478.738 348.6 479.058 349.24C479.378 349.848 479.538 350.616 479.538 351.544C479.538 352.408 479.394 353.496 479.106 354.808C478.85 356.12 478.69 356.936 478.626 357.256H485.634L487.89 348.664H490.818L488.61 356.248C488.226 357.304 487.826 358.792 487.41 360.712C487.026 362.6 486.834 363.928 486.834 364.696C486.834 365.432 486.978 365.912 487.266 366.136L487.794 366.28C488.594 366.28 489.49 365.4 490.482 363.64C490.77 363.16 491.298 362.04 492.066 360.28L492.738 360.568C492.034 362.552 491.33 364.056 490.626 365.08C489.474 366.744 488.146 367.576 486.642 367.576H486.45C485.714 367.576 485.17 367.272 484.818 366.664C484.498 366.024 484.338 365.224 484.338 364.264C484.338 363.24 484.482 362.04 484.77 360.664C484.962 359.8 485.17 358.936 485.394 358.072H478.386ZM495.716 358.984C498.692 357.896 500.948 356.072 502.484 353.512C502.74 353.096 502.964 352.648 503.156 352.168C503.38 351.656 503.492 351.16 503.492 350.68C503.492 350.104 503.348 349.688 503.06 349.432C502.804 349.144 502.468 349 502.052 349C501.668 349 501.252 349.144 500.804 349.432C500.388 349.72 500.02 350.04 499.7 350.392C498.804 351.352 497.988 352.648 497.252 354.28C496.548 355.88 496.036 357.448 495.716 358.984ZM503.108 361.48L503.828 361.864C502.836 363.496 501.796 364.792 500.708 365.752C499.268 367 497.796 367.624 496.292 367.624C496.068 367.624 495.78 367.592 495.428 367.528C495.108 367.464 494.82 367.4 494.564 367.336C493.636 367.048 492.932 366.472 492.452 365.608C491.972 364.712 491.732 363.72 491.732 362.632V362.44C491.732 360.776 492.068 359.16 492.74 357.592C493.412 355.992 494.324 354.472 495.476 353.032C496.852 351.208 498.164 349.912 499.412 349.144C500.436 348.504 501.492 348.184 502.58 348.184C503.444 348.184 504.164 348.472 504.74 349.048C505.316 349.624 505.604 350.344 505.604 351.208C505.604 353.288 504.388 355.176 501.956 356.872C500.26 358.056 498.084 359.096 495.428 359.992C495.236 360.728 495.076 361.336 494.948 361.816C494.724 362.744 494.612 363.496 494.612 364.072C494.612 364.712 494.708 365.24 494.9 365.656C495.124 366.072 495.508 366.344 496.052 366.472L497.012 366.616C498.164 366.616 499.348 366.008 500.564 364.792C501.3 364.056 502.148 362.952 503.108 361.48ZM513.217 351.592L516.625 348.568C517.457 347.8 518.097 346.968 518.545 346.072C519.025 345.144 519.265 344.248 519.265 343.384C519.265 342.296 518.913 341.384 518.209 340.648C517.505 339.912 516.513 339.544 515.233 339.544H514.417C513.329 339.672 512.465 340.12 511.825 340.888C511.185 341.656 510.865 342.472 510.865 343.336C510.865 344.04 511.041 344.632 511.393 345.112C511.777 345.56 512.337 345.784 513.073 345.784L513.409 345.736C513.697 345.736 513.905 345.704 514.033 345.64C514.193 345.544 514.321 345.448 514.417 345.352C514.417 345.288 514.241 345.048 513.889 344.632C513.569 344.184 513.409 343.8 513.409 343.48L513.457 343.336C513.553 342.568 514.001 342.184 514.801 342.184C515.217 342.184 515.617 342.36 516.001 342.712C516.417 343.032 516.625 343.464 516.625 344.008V344.296C516.561 345.064 516.225 345.672 515.617 346.12C515.009 346.536 514.321 346.744 513.553 346.744C512.593 346.744 511.729 346.424 510.961 345.784C510.193 345.144 509.809 344.296 509.809 343.24L509.857 343.048C509.857 341.608 510.369 340.488 511.393 339.688C512.449 338.888 513.729 338.488 515.233 338.488C516.993 338.488 518.497 338.984 519.745 339.976C521.185 341.096 521.905 342.632 521.905 344.584V344.824C521.905 346.584 521.233 348.2 519.889 349.672C519.249 350.376 517.921 351.496 515.905 353.032C514.305 354.248 513.329 355.304 512.977 356.2C512.817 356.52 512.737 356.824 512.737 357.112C512.737 357.464 512.881 357.752 513.169 357.976C513.457 358.2 513.809 358.312 514.225 358.312C515.217 358.312 516.113 357.864 516.913 356.968L517.489 357.544C516.945 358.12 516.353 358.568 515.713 358.888C515.073 359.176 514.433 359.32 513.793 359.32C512.865 359.32 512.081 359.048 511.441 358.504C510.833 357.928 510.529 357.176 510.529 356.248C510.529 355.576 510.753 354.824 511.201 353.992C511.649 353.16 512.321 352.36 513.217 351.592ZM513.025 363.496C513.665 363.88 513.985 364.504 513.985 365.368C513.985 365.752 513.953 366.04 513.889 366.232C513.569 367.096 512.849 367.528 511.729 367.528H511.393C510.881 367.464 510.449 367.224 510.097 366.808C509.745 366.392 509.569 365.912 509.569 365.368L509.761 364.552C510.113 363.624 510.785 363.16 511.777 363.16C512.225 363.16 512.641 363.272 513.025 363.496Z" fill="#AB9173"></path> <rect x="265" y="455.5" width="270" height="63" rx="31.5" fill="white"></rect> <path d="M307.546 487.528C307.546 489.192 307.13 490.547 306.298 491.592C305.477 492.627 304.298 493.144 302.762 493.144C301.077 493.144 299.834 492.659 299.034 491.688C298.245 490.707 297.85 489.336 297.85 487.576C297.85 486.776 297.941 486.04 298.122 485.368C298.304 484.696 298.581 484.093 298.954 483.56C299.338 483.027 299.85 482.611 300.49 482.312C301.141 482.003 301.898 481.848 302.762 481.848C303.626 481.848 304.373 482.003 305.002 482.312C305.642 482.611 306.144 483.032 306.506 483.576C306.869 484.109 307.13 484.707 307.29 485.368C307.461 486.019 307.546 486.739 307.546 487.528ZM305.642 487.576C305.642 484.632 304.682 483.16 302.762 483.16C300.746 483.16 299.738 484.637 299.738 487.592C299.738 488.989 299.978 490.04 300.458 490.744C300.938 491.448 301.706 491.8 302.762 491.8C303.722 491.8 304.442 491.411 304.922 490.632C305.402 489.853 305.642 488.835 305.642 487.576ZM315.67 481.832C316.705 481.832 317.654 481.981 318.518 482.28L318.198 483.608C317.462 483.373 316.689 483.256 315.878 483.256C314.779 483.256 313.947 483.624 313.382 484.36C312.817 485.096 312.534 486.157 312.534 487.544C312.534 488.899 312.785 489.933 313.286 490.648C313.787 491.352 314.667 491.704 315.926 491.704C316.79 491.704 317.654 491.581 318.518 491.336L318.838 492.6C317.878 492.963 316.79 493.144 315.574 493.144C312.278 493.144 310.63 491.288 310.63 487.576C310.63 487.053 310.673 486.541 310.758 486.04C310.854 485.539 311.019 485.027 311.254 484.504C311.499 483.981 311.803 483.528 312.166 483.144C312.529 482.76 313.009 482.445 313.606 482.2C314.214 481.955 314.902 481.832 315.67 481.832ZM326.316 493H324.524V483.384H321.02V482.024H329.82V483.384H326.332L326.316 493ZM340.287 493H338.415C338.309 492.659 338.154 492.168 337.951 491.528C337.749 490.877 337.621 490.467 337.567 490.296H333.391L332.543 493H330.719C331.135 491.752 331.754 489.907 332.575 487.464C333.407 485.011 334.015 483.197 334.399 482.024H336.687L340.287 493ZM337.183 489L336.415 486.408C336.373 486.269 336.079 485.272 335.535 483.416H335.471L334.623 486.344C334.613 486.387 334.479 486.819 334.223 487.64C333.978 488.461 333.839 488.915 333.807 489H337.183ZM349.154 487.224V487.288C350.274 487.693 350.834 488.547 350.834 489.848C350.834 490.797 350.53 491.56 349.922 492.136C349.325 492.712 348.552 493 347.602 493H342.946V482.04H347.266C348.333 482.04 349.149 482.301 349.714 482.824C350.28 483.336 350.562 484.029 350.562 484.904C350.562 485.971 350.093 486.744 349.154 487.224ZM349.042 489.816C349.042 489.283 348.872 488.84 348.53 488.488C348.189 488.136 347.698 487.96 347.058 487.96H344.738V491.688H347.058C347.752 491.688 348.253 491.517 348.562 491.176C348.882 490.835 349.042 490.381 349.042 489.816ZM348.226 486.28C348.568 485.981 348.738 485.571 348.738 485.048C348.738 484.525 348.578 484.115 348.258 483.816C347.938 483.507 347.453 483.352 346.802 483.352H344.738V486.712H346.802C347.421 486.712 347.896 486.568 348.226 486.28ZM361.232 482.024L362.976 482.056V493H361.216V484.76H361.168C360.379 486.04 359.205 487.96 357.648 490.52C357.04 491.533 356.528 492.36 356.112 493H354.32V482.056H356.112C356.112 482.973 356.107 484.349 356.096 486.184C356.096 488.019 356.096 489.395 356.096 490.312H356.16L357.712 487.784C359.856 484.285 361.029 482.365 361.232 482.024ZM371.061 493H369.269V483.384H365.765V482.024H374.565V483.384H371.077L371.061 493ZM377.349 493V482.024H379.157V486.44H381.621C382.763 486.44 383.664 486.744 384.325 487.352C384.987 487.96 385.317 488.755 385.317 489.736C385.317 490.781 385.003 491.587 384.373 492.152C383.744 492.717 382.912 493 381.877 493H377.349ZM381.349 487.704H379.157V491.736H381.509C382.075 491.736 382.539 491.565 382.901 491.224C383.275 490.872 383.461 490.371 383.461 489.72C383.461 489.059 383.253 488.557 382.837 488.216C382.432 487.875 381.936 487.704 381.349 487.704ZM397.501 481.848C398.653 481.848 399.581 482.061 400.285 482.488C400.989 482.915 401.341 483.603 401.341 484.552C401.341 485 401.191 485.448 400.893 485.896C400.605 486.333 400.199 486.675 399.677 486.92L399.709 487C400.285 487.192 400.749 487.523 401.101 487.992C401.463 488.461 401.645 489 401.645 489.608C401.645 490.717 401.223 491.576 400.381 492.184C399.549 492.781 398.487 493.08 397.197 493.08C395.693 493.08 394.466 492.861 393.517 492.424L393.917 491.208C394.983 491.539 395.975 491.704 396.893 491.704C398.813 491.704 399.773 490.995 399.773 489.576C399.773 488.989 399.538 488.531 399.069 488.2C398.61 487.869 398.013 487.704 397.277 487.704H395.917V486.504H397.181C397.842 486.504 398.386 486.323 398.813 485.96C399.239 485.597 399.453 485.192 399.453 484.744C399.453 483.709 398.701 483.192 397.197 483.192C396.226 483.192 395.282 483.384 394.365 483.768L393.981 482.584C395.015 482.093 396.189 481.848 397.501 481.848ZM413.45 493H411.578C411.472 492.659 411.317 492.168 411.114 491.528C410.912 490.877 410.784 490.467 410.73 490.296H406.554L405.706 493H403.882C404.298 491.752 404.917 489.907 405.738 487.464C406.57 485.011 407.178 483.197 407.562 482.024H409.85L413.45 493ZM410.346 489L409.578 486.408C409.536 486.269 409.242 485.272 408.698 483.416H408.634L407.786 486.344C407.776 486.387 407.642 486.819 407.386 487.64C407.141 488.461 407.002 488.915 406.97 489H410.346ZM417.853 487.96V487.896C417.277 487.693 416.829 487.347 416.509 486.856C416.189 486.365 416.029 485.805 416.029 485.176C416.029 484.237 416.317 483.48 416.893 482.904C417.469 482.317 418.312 482.024 419.421 482.024H423.549V493H421.741V488.392H420.237C419.693 488.392 419.251 488.515 418.909 488.76C418.579 489.005 418.317 489.437 418.125 490.056L417.277 493H415.469L416.365 489.88C416.525 489.315 416.717 488.888 416.941 488.6C417.165 488.312 417.469 488.099 417.853 487.96ZM419.773 487.08H421.741V483.352H419.789C419.213 483.352 418.749 483.512 418.397 483.832C418.045 484.152 417.869 484.627 417.869 485.256C417.869 485.928 418.056 486.403 418.429 486.68C418.813 486.947 419.261 487.08 419.773 487.08ZM433.488 487.224V487.288C434.608 487.693 435.168 488.547 435.168 489.848C435.168 490.797 434.864 491.56 434.256 492.136C433.659 492.712 432.885 493 431.936 493H427.28V482.04H431.6C432.667 482.04 433.483 482.301 434.048 482.824C434.613 483.336 434.896 484.029 434.896 484.904C434.896 485.971 434.427 486.744 433.488 487.224ZM433.376 489.816C433.376 489.283 433.205 488.84 432.864 488.488C432.523 488.136 432.032 487.96 431.392 487.96H429.072V491.688H431.392C432.085 491.688 432.587 491.517 432.896 491.176C433.216 490.835 433.376 490.381 433.376 489.816ZM432.56 486.28C432.901 485.981 433.072 485.571 433.072 485.048C433.072 484.525 432.912 484.115 432.592 483.816C432.272 483.507 431.787 483.352 431.136 483.352H429.072V486.712H431.136C431.755 486.712 432.229 486.568 432.56 486.28ZM440.446 493H438.654V482.04H440.446V486.488H442.11C443.102 486.488 443.736 485.944 444.014 484.856L444.734 482.056H446.462L445.726 485.112C445.47 486.189 444.947 486.872 444.158 487.16C445.096 487.331 445.72 488.003 446.03 489.176L447.022 493H445.23L444.286 489.56C444.115 488.931 443.88 488.493 443.582 488.248C443.283 488.003 442.84 487.88 442.254 487.88H440.446V493ZM453.36 489.096H453.44L454.4 486.376L455.984 482.024H457.776L454.112 491.496C453.877 492.104 453.584 492.541 453.232 492.808C452.891 493.064 452.448 493.192 451.904 493.192C451.243 493.192 450.571 493.096 449.888 492.904L450.208 491.592C450.784 491.72 451.211 491.784 451.488 491.784C451.755 491.784 451.968 491.731 452.128 491.624C452.288 491.517 452.427 491.304 452.544 490.984L452.816 490.248H452.288L448.896 482.024H450.688L452.368 486.376L453.36 489.096Z" fill="#052920"></path> <circle cx="503.5" cy="487" r="31.5" stroke="#AB9173"></circle> <path fill-rule="evenodd" clip-rule="evenodd" d="M514 487L505 477L508.8 486.5H490.5V487.5H508.8L505 497L514 487Z" fill="#816546"></path> <rect x="265" y="455.5" width="270" height="63" rx="31.5" stroke="#AF9578"></rect> <path fill-rule="evenodd" clip-rule="evenodd" d="M572.177 39.544C574.447 39.4903 575.733 39.5969 576.034 39.7474C576.254 38.3739 577.602 37.5032 580.077 37.1313C580.381 36.5069 579.37 34.5895 577.046 31.3771C573.311 27.5445 571.522 25.4719 571.683 25.1505C572.468 24.1816 577.472 27.8831 586.699 36.2431C590.166 39.7802 590.373 42.6098 587.316 44.7394C590.07 45.7615 591.948 47.4358 592.947 49.7498C593.522 50.0346 593.89 50.4182 594.06 50.9056C593.5 51.0239 592.937 51.0398 592.368 50.9699C591.12 51.9249 588.096 52.4613 583.297 52.5758C583.634 56.4798 575.908 58.7254 560.113 59.2983C551.333 59.4057 546.906 59.0083 546.833 58.1044C546.779 57.6261 548.76 57.09 552.773 56.4972C559.949 53.1429 565.527 50.9139 569.518 49.8128C569.746 47.9631 570.294 46.547 571.168 45.5646C570.608 45.3712 570.073 44.9308 569.56 44.2435C568.86 43.3267 566.438 42.4456 562.299 41.6051C548.053 39.0639 541.697 37.4022 543.221 36.6144C544.367 36.6682 548.891 37.4756 556.794 39.0888C561.824 39.465 564.092 39.0895 563.601 38.0169C561.184 34.5288 558.561 31.9731 555.723 30.3432C552.114 28.1588 550.616 26.9227 551.226 26.633C552.043 26.2192 556.137 28.719 563.514 34.1401C567.591 36.6625 570.478 38.4629 572.177 39.5414" fill="#AB9173"></path> </svg> 