<?xml version="1.0" encoding="UTF-8"?> <svg xmlns="http://www.w3.org/2000/svg" width="308" height="240" viewBox="0 0 308 240" fill="none"> <path fill-rule="evenodd" clip-rule="evenodd" d="M154.011 3.71305C157.409 5.12891 160.356 7.41657 162.573 10.2942C164.448 12.7279 165.802 15.5842 166.471 18.6941L174.262 18.6941C173.426 15.1023 171.598 11.8913 169.083 9.36988C165.569 5.8471 160.712 3.66713 155.35 3.66713C154.899 3.66713 154.453 3.68367 154.011 3.71305ZM165.385 27.7746L165.385 29.4163C160.033 22.2253 149.75 15.196 143.317 11.577C143.142 11.4794 142.923 11.5309 142.809 11.6961C142.695 11.8629 142.726 12.0866 142.881 12.2146C146.748 15.429 151.974 19.478 153.841 23.8513C156.834 26.0715 160.549 30.1681 162.944 34.5407C160.039 31.2803 156.934 28.3657 154.518 26.4968C154.59 27.4348 154.474 28.3828 154.125 29.3366C156.776 31.1662 159.629 33.7105 161.985 36.3496C158.947 34.2039 155.923 32.1774 153.441 30.737C153.249 31.0496 153.032 31.3632 152.785 31.6759C152.531 31.9983 152.242 32.3556 151.965 32.7387C154.878 34.1227 158.087 36.1639 160.708 38.5542C157.343 36.6614 153.917 35.0757 151.171 34.0545C150.796 34.8655 150.642 35.7356 151.022 36.6023C151.783 38.3318 150.729 38.9735 149.315 37.9869C144.933 34.9303 140.946 29.4884 135.927 25.0103L135.927 23.1378C135.927 19.3607 137.001 15.8346 138.858 12.8477C140.119 10.8196 141.742 9.03997 143.637 7.60178C145.757 5.99317 148.219 4.80963 150.895 4.18095L150.867 4.29018C155.088 5.39074 158.754 7.88195 161.345 11.2446C163.013 13.4098 164.237 15.9388 164.877 18.6941L164.012 18.6941L163.212 18.6941L163.212 23.9857L165.385 23.9857L165.385 27.0532L165.385 27.7746ZM166.942 31.7621L166.942 30.1205L166.942 27.0532L166.942 23.9857L170.037 23.9857L170.037 39.5613C169.523 39.7453 169.008 39.9979 168.491 40.3237C169.385 37.6538 168.662 34.7236 166.942 31.7621ZM150.878 48.1641C150.11 48.5285 149.478 48.7426 148.84 49.0358C150.276 50.0519 151.948 51.141 153.833 52.2844C151.539 51.5293 149.47 50.6503 147.672 49.6849C147.181 50.0139 146.646 50.4515 146.014 51.0752C148.039 52.163 150.35 53.3063 152.716 54.4276C150.112 53.8589 147.416 53.0167 145.005 52.0317C144.238 52.7171 143.459 53.3212 142.656 53.8622C145.166 54.7518 148.213 55.6276 151.369 56.313C147.839 56.3608 144.102 55.7596 141.013 54.8652C139.453 55.7294 137.783 56.4187 135.927 57.0524L135.927 41.5532C138.546 42.1655 141.31 42.8059 144.206 43.4913C147.903 44.3967 148.054 45.1002 150.933 47.5312C151.032 47.6152 151.08 47.7314 151.07 47.8618C151.058 47.9915 150.996 48.1082 150.878 48.1641ZM134.37 57.5599C132.592 58.1122 130.652 58.6366 128.476 59.2489C128.291 59.3001 128.173 59.4747 128.194 59.6651C128.215 59.8564 128.368 60.0007 128.559 60.0105C145.629 60.8969 157.302 58.6242 163.579 53.193C164.236 53.1544 164.834 53.0545 165.385 52.9067L165.385 60.4482C169.103 60.4482 172.611 60.4482 176.329 60.4482L176.329 44.0428C176.586 43.9295 176.855 43.826 177.133 43.7423C177.5 43.5864 177.839 43.437 178.152 43.2935C178.326 43.7875 178.537 44.2761 178.785 44.7544L178.813 44.7997C178.634 46.1023 177.546 47.7513 179.146 50.2104C179.714 49.643 180.043 48.759 180.133 47.5599C180.587 48.3511 180.521 49.0341 181.113 49.8779C181.736 50.7667 182.725 51.3767 184.078 51.7083C183.828 49.8056 182.785 48.3224 180.949 47.257C182.369 47.7158 183.295 47.8752 183.724 47.7331C183.29 46.2368 181.458 46.3639 179.388 44.5345C179.382 44.5084 179.373 44.4817 179.36 44.4574C179.116 43.9845 178.909 43.5052 178.742 43.016C178.997 42.892 179.23 42.773 179.438 42.6604C179.451 42.3206 179.095 41.9728 178.369 41.6166L178.337 41.4393C178.159 40.3984 178.141 39.3256 178.287 38.2224C178.31 38.0461 178.185 37.8827 178.009 37.8598C177.833 37.8363 177.67 37.9623 177.647 38.1386C177.504 39.2263 177.508 40.2843 177.66 41.3102C177.483 41.2413 177.293 41.1732 177.09 41.1044C176.836 40.9122 176.582 40.7359 176.329 40.5724L176.329 23.9857L178.501 23.9857L178.501 18.6941L175.859 18.6941C174.995 14.6696 172.983 11.0738 170.183 8.26662C166.387 4.4606 161.142 2.10581 155.35 2.10582C150.6 2.10582 146.217 3.68996 142.7 6.35916C140.403 8.10343 138.473 10.3128 137.051 12.8475C136.838 13.2266 136.636 13.6133 136.446 14.0081C135.117 16.7691 134.37 19.8654 134.37 23.1362L134.37 23.682C133.131 22.6723 131.83 21.7302 130.427 20.925C130.266 20.8305 130.063 20.8637 129.939 21.0055C129.816 21.1466 129.811 21.3527 129.927 21.5005C131.273 23.2183 132.832 25.098 134.37 26.9489L134.37 38.1529C130.107 37.7539 124.799 36.9601 120.709 36.8814C120.515 36.8814 120.35 37.0169 120.321 37.2099C120.29 37.4027 120.405 37.5849 120.592 37.6416C124.501 38.8211 129.127 39.9538 134.37 41.1864L134.37 57.5599ZM166.942 52.3033C168.168 51.6682 169.138 50.7593 170.037 49.7556L170.037 58.8869L166.942 58.8869L166.942 52.3033ZM171.676 47.8317C172.585 46.7604 173.549 45.7157 174.772 44.8923L174.772 58.8869L171.676 58.8869L171.676 47.8317ZM174.772 39.7466C173.725 39.3142 172.69 39.1321 171.676 39.2092L171.676 23.9857L174.772 23.9857L174.772 39.7466ZM135.927 28.8285C139.274 32.88 142.097 36.4578 141.725 37.4132C141.34 38.4008 139.043 38.509 135.927 38.2849L135.927 28.8285ZM166.93 22.4139L170.037 22.4139L171.676 22.4139L174.758 22.4139L176.316 22.4139L176.901 22.4139L176.901 20.2653L164.812 20.2653L164.812 22.4139L165.371 22.4139L166.93 22.4139Z" fill="#AB9173"></path> <path fill-rule="evenodd" clip-rule="evenodd" d="M177.339 143.478L176.171 143.478C170.269 143.478 169.785 142.789 169.785 137.696L169.785 122.473L172.738 122.473C177.407 122.473 186.201 122.611 188.398 123.575L188.673 118.921C186.75 119.403 177.406 119.885 172.738 119.885L169.785 119.885L169.785 106.246C169.785 101.152 170.265 100.463 176.171 100.463L176.515 100.463C183.245 100.463 190.527 100.945 195.196 103.286L195.196 97.8746L163.399 97.8746L163.399 146.067L196.021 146.067L196.021 140.655C191.42 142.996 184.066 143.478 177.339 143.478ZM139.542 97.8746C142.151 99.9396 143.799 106.343 143.799 113.709L143.799 134.776L117.91 97.8746L110.796 97.8746L110.796 146.067L117.703 146.067C115.163 144.002 113.446 137.599 113.446 130.232L113.446 103.52L143.799 146.961L146.518 146.961L146.518 97.8746L139.542 97.8746ZM76.0576 143.478L74.8902 143.478C68.9879 143.478 68.5039 142.79 68.5039 137.696L68.5039 122.473L71.4572 122.473C76.1264 122.473 84.9195 122.611 87.1171 123.575L87.3915 118.921C85.4691 119.403 76.124 119.885 71.4572 119.885L68.5039 119.885L68.5039 106.246C68.5039 101.152 68.9845 100.463 74.8902 100.463L75.2332 100.463C81.9639 100.463 89.2458 100.945 93.915 103.286L93.915 97.8746L62.1179 97.8746L62.1179 146.067L94.7396 146.067L94.7396 140.655C90.1383 142.996 82.7845 143.478 76.0576 143.478ZM16.239 107.751C16.239 102.725 19.6041 100.729 24.2054 100.729C30.4548 100.729 37.0063 102.9 42.5689 107.582L42.5689 99.8714C38.5857 98.1502 33.2296 96.8421 28.0102 96.8421C19.4944 96.8421 11.5289 100.491 11.5289 112.332C11.5289 127.134 42.4591 123.052 42.4591 135.168C42.4591 140.057 37.3773 142.328 30.7847 142.328C23.6428 142.328 16.7474 140.627 10.9106 135.74L10.842 143.864C15.3745 145.791 21.2113 147.099 26.7737 147.099C37.0063 147.099 46.4833 142.899 46.4833 131.059C46.4833 116.876 16.239 122.277 16.239 107.751ZM275.344 97.8746L268.339 97.8746L270.774 104.127L253.623 146.067L261.424 146.067C260.737 143.519 260.737 139.457 261.767 134.776L282.898 134.776L287.361 146.067L295.053 146.067L275.344 97.8746ZM262.487 131.927C262.931 130.084 263.718 128.442 264.414 126.687L272.076 107.358L281.756 131.925L262.487 131.927ZM242.722 136.577C242.408 137.025 242.065 137.445 241.703 137.852C234.261 146.232 228.186 145.928 219.634 136.312C211.093 126.71 206.679 115.205 214.12 106.84C221.561 98.4727 230.191 100.626 238.731 110.239C238.971 110.508 239.225 110.794 239.456 111.089L244.546 105.613C244.306 105.318 244.053 105.023 243.801 104.727C235.081 94.9228 220.962 94.9229 212.241 104.739C203.532 114.52 203.533 130.42 212.241 140.212C220.951 149.992 235.081 150.004 243.791 140.212C244.158 139.786 244.515 139.373 244.852 138.924L242.722 136.577Z" fill="#AB9173"></path> <path fill-rule="evenodd" clip-rule="evenodd" d="M239.033 168.928L242.345 168.928L245.254 175.651L247.698 169.9C247.765 169.752 247.822 169.593 247.869 169.424C247.916 169.255 247.96 169.09 248.001 168.928L251.394 168.928C251.138 169.103 250.949 169.312 250.828 169.555C250.707 169.798 250.66 170.062 250.687 170.345L251.131 177.331C251.145 177.682 251.205 177.966 251.313 178.181C251.421 178.397 251.602 178.587 251.859 178.749L248.486 178.749C248.714 178.587 248.889 178.394 249.01 178.171C249.132 177.949 249.186 177.668 249.173 177.331L248.809 170.569L245.153 179.052L244.769 178.708C244.621 178.587 244.5 178.458 244.406 178.323C244.312 178.188 244.183 177.925 244.022 177.534L241.053 170.569L240.548 177.331C240.521 177.655 240.568 177.932 240.69 178.162C240.811 178.39 240.993 178.587 241.235 178.749L238.407 178.749C238.595 178.627 238.764 178.432 238.912 178.162C239.06 177.891 239.148 177.615 239.174 177.331L239.74 170.345C239.754 170.062 239.7 169.798 239.579 169.555C239.457 169.312 239.276 169.103 239.033 168.928ZM224.203 168.523C225.874 168.537 227.213 169.063 228.223 170.102C229.233 171.142 229.738 172.37 229.738 173.788C229.738 175.313 229.19 176.568 228.092 177.554C226.995 178.539 225.638 179.039 224.022 179.052C222.352 179.052 221.013 178.533 220.003 177.493C218.993 176.453 218.494 175.218 218.508 173.788C218.508 172.276 219.054 171.021 220.144 170.022C221.235 169.023 222.588 168.523 224.203 168.523ZM224.082 170.062C223.033 170.062 222.191 170.403 221.558 171.085C220.925 171.766 220.608 172.667 220.608 173.788C220.608 174.814 220.919 175.691 221.538 176.42C222.157 177.149 223.033 177.513 224.163 177.513C225.2 177.527 226.038 177.193 226.678 176.511C227.318 175.83 227.637 174.922 227.637 173.788C227.624 172.776 227.307 171.901 226.688 171.165C226.068 170.43 225.2 170.062 224.082 170.062ZM201.013 168.928L209.051 168.928C208.795 169.103 208.613 169.303 208.506 169.525C208.398 169.748 208.344 170.022 208.344 170.345L208.344 177.331L209.92 177.331L209.92 181.482L208.91 182.049C208.936 180.874 208.802 180.031 208.506 179.517C208.209 179.004 207.698 178.749 206.971 178.749L201.78 178.749C201.08 178.749 200.592 179.032 200.315 179.599C200.039 180.166 199.921 180.983 199.962 182.049L198.952 181.482L198.952 177.331L200.164 177.331C200.757 176.467 201.204 175.533 201.507 174.527C201.81 173.521 201.962 172.363 201.962 171.054C201.962 170.474 201.884 170.019 201.729 169.688C201.575 169.357 201.335 169.103 201.013 168.928ZM206.425 170.345L203.497 170.345C203.51 170.521 203.516 170.7 203.516 170.882C203.516 171.064 203.524 171.283 203.537 171.54C203.537 172.472 203.392 173.46 203.103 174.506C202.813 175.552 202.413 176.495 201.901 177.331L206.425 177.331L206.425 170.345ZM173.154 176.477L177.84 169.475C177.934 169.326 178.018 169.215 178.092 169.141C178.167 169.066 178.251 168.996 178.345 168.928L180.869 168.928C180.614 169.103 180.432 169.303 180.324 169.525C180.217 169.748 180.163 170.022 180.163 170.345L180.163 177.331C180.163 177.668 180.217 177.949 180.324 178.171C180.432 178.394 180.614 178.587 180.869 178.749L177.537 178.749C177.779 178.587 177.955 178.394 178.062 178.171C178.17 177.949 178.231 177.668 178.244 177.331L178.244 171.195L173.558 178.202C173.451 178.364 173.36 178.482 173.285 178.556C173.212 178.63 173.134 178.694 173.053 178.749L170.529 178.749C170.771 178.587 170.946 178.394 171.053 178.171C171.162 177.949 171.222 177.668 171.235 177.331L171.235 170.345C171.235 170.022 171.178 169.748 171.063 169.525C170.949 169.303 170.771 169.103 170.529 168.928L173.861 168.928C173.606 169.103 173.42 169.303 173.306 169.525C173.191 169.748 173.141 170.022 173.154 170.345L173.154 176.477ZM172.629 164.554L174.406 164.554C174.124 164.986 174.137 165.375 174.447 165.718C174.757 166.063 175.174 166.235 175.699 166.235C176.211 166.235 176.622 166.063 176.931 165.718C177.241 165.375 177.261 164.986 176.992 164.554L178.769 164.554C178.796 165.338 178.52 166.006 177.941 166.559C177.362 167.113 176.614 167.39 175.699 167.39C174.77 167.39 174.016 167.113 173.437 166.559C172.858 166.006 172.589 165.338 172.629 164.554ZM148.691 168.928L152.023 168.928C151.767 169.103 151.586 169.303 151.477 169.525C151.37 169.748 151.316 170.022 151.316 170.345L151.316 177.189C151.532 177.243 151.747 177.28 151.962 177.301C152.178 177.321 152.4 177.331 152.629 177.331C153.41 177.331 154.006 177.149 154.417 176.784C154.827 176.42 155.032 175.921 155.032 175.286C155.032 174.746 154.821 174.304 154.396 173.96C153.972 173.615 153.363 173.444 152.569 173.444C152.38 173.457 152.198 173.474 152.023 173.493C151.849 173.514 151.673 173.538 151.498 173.565L152.386 172.168C152.576 172.126 152.764 172.093 152.952 172.066C153.14 172.039 153.33 172.026 153.518 172.026C154.595 172.026 155.467 172.296 156.134 172.836C156.8 173.375 157.133 174.124 157.133 175.083C157.133 176.176 156.759 177.06 156.013 177.736C155.265 178.411 154.137 178.748 152.629 178.748L148.691 178.748C148.933 178.586 149.111 178.393 149.226 178.171C149.341 177.949 149.397 177.668 149.397 177.33L149.397 170.345C149.397 170.021 149.341 169.748 149.226 169.525C149.111 169.302 148.933 169.103 148.691 168.928ZM158.001 168.928L161.334 168.928C161.078 169.103 160.893 169.303 160.778 169.525C160.665 169.748 160.614 170.022 160.627 170.345L160.627 177.331C160.627 177.668 160.681 177.949 160.789 178.171C160.896 178.394 161.078 178.587 161.334 178.749L158.001 178.749C158.244 178.587 158.422 178.394 158.537 178.171C158.651 177.949 158.709 177.668 158.709 177.331L158.709 170.345C158.709 170.022 158.651 169.748 158.537 169.525C158.422 169.303 158.244 169.103 158.001 168.928ZM131.943 172.613L136.83 172.613L136.83 170.345C136.83 170.022 136.773 169.748 136.658 169.525C136.544 169.303 136.366 169.103 136.124 168.928L139.456 168.928C139.2 169.103 139.015 169.303 138.901 169.525C138.786 169.748 138.735 170.022 138.749 170.345L138.749 177.331C138.749 177.668 138.803 177.949 138.911 178.171C139.018 178.394 139.2 178.587 139.456 178.749L136.124 178.749C136.366 178.587 136.544 178.394 136.658 178.171C136.773 177.949 136.83 177.668 136.83 177.331L136.83 174.031L131.943 174.031L131.943 177.331C131.943 177.668 131.996 177.949 132.104 178.171C132.212 178.394 132.394 178.587 132.649 178.749L129.317 178.749C129.559 178.587 129.738 178.394 129.852 178.171C129.967 177.949 130.023 177.668 130.023 177.331L130.023 170.345C130.023 170.022 129.967 169.748 129.852 169.525C129.738 169.303 129.559 169.103 129.317 168.928L132.649 168.928C132.394 169.103 132.212 169.303 132.104 169.525C131.996 169.748 131.943 170.022 131.943 170.345L131.943 172.613ZM119.214 164.211L118.183 166.376C117.403 166.485 116.574 166.539 115.699 166.539C114.824 166.539 114.123 166.62 113.599 166.782C112.71 167.052 112.033 167.588 111.569 168.392C111.104 169.194 110.845 170.196 110.791 171.398C111.168 170.562 111.74 169.927 112.508 169.495C113.275 169.063 114.144 168.847 115.113 168.847C116.554 168.861 117.753 169.312 118.708 170.204C119.665 171.095 120.143 172.296 120.143 173.808C120.143 175.387 119.628 176.656 118.597 177.615C117.567 178.573 116.258 179.052 114.669 179.052C112.959 179.052 111.63 178.505 110.68 177.412C109.731 176.319 109.256 174.793 109.256 172.836C109.256 171.203 109.489 169.776 109.953 168.553C110.418 167.332 111.061 166.397 111.882 165.75C112.434 165.304 113.063 165 113.771 164.838C114.477 164.676 115.497 164.588 116.83 164.575L118.082 164.575C118.392 164.575 118.627 164.548 118.789 164.493C118.951 164.439 119.092 164.345 119.214 164.211ZM114.81 170.386C113.747 170.386 112.902 170.717 112.275 171.378C111.649 172.039 111.343 172.87 111.357 173.869C111.357 174.975 111.666 175.86 112.285 176.521C112.905 177.183 113.74 177.513 114.79 177.513C115.719 177.513 116.494 177.216 117.113 176.623C117.733 176.028 118.042 175.198 118.042 174.131C118.042 172.998 117.749 172.094 117.164 171.419C116.578 170.744 115.794 170.399 114.81 170.386ZM89.8217 168.928L91.5787 168.868C92.1412 168.854 92.4638 168.854 92.5448 168.868C92.6259 168.881 92.7062 168.908 92.7871 168.949L96.0997 176.447L98.2605 171.179C98.3554 170.933 98.429 170.71 98.4831 170.508C98.5372 170.305 98.5634 170.103 98.5634 169.901C98.5503 169.698 98.4962 169.509 98.4022 169.334C98.3079 169.158 98.1729 169.023 97.9985 168.929L101.152 168.929L96.3658 179.883C95.8812 180.977 95.2885 181.766 94.5884 182.252C93.8885 182.738 93.0598 182.981 92.1035 182.981C91.6057 182.981 91.1308 182.93 90.6798 182.829C90.2286 182.727 89.7882 182.596 89.3567 182.434L91.2357 181.057C91.4101 181.192 91.5991 181.29 91.8006 181.351C92.0029 181.412 92.2182 181.442 92.4474 181.442C92.9452 181.428 93.3694 181.287 93.7198 181.017C94.07 180.747 94.3927 180.288 94.6891 179.639L95.214 178.445C94.9586 178.215 94.7432 177.983 94.5681 177.747C94.3927 177.51 94.2519 177.257 94.1439 176.987L91.1752 170.387C91.013 170.022 90.8214 169.715 90.5995 169.465C90.3769 169.215 90.1182 169.036 89.8217 168.928ZM81.6369 170.345L81.6369 177.331C81.6369 177.668 81.6908 177.949 81.798 178.171C81.9063 178.394 82.0879 178.587 82.3433 178.749L79.0112 178.749C79.2535 178.587 79.432 178.394 79.5467 178.171C79.6613 177.949 79.7178 177.668 79.7178 177.331L79.7178 170.345L76.5271 170.345L76.5271 171.581C76.5271 174.2 76.2544 176.099 75.7092 177.28C75.1639 178.462 74.346 179.052 73.2546 179.052C73.1203 179.052 72.9788 179.035 72.8305 179.002C72.6823 178.968 72.5349 178.924 72.3868 178.87L72.1642 176.886C72.3531 177.034 72.5447 177.149 72.7395 177.23C72.9353 177.312 73.1203 177.352 73.2955 177.352C73.8743 177.365 74.3018 176.859 74.5776 175.833C74.8535 174.807 74.9919 173.275 74.9919 171.237C74.9919 170.589 74.9142 170.089 74.7595 169.738C74.6047 169.388 74.3591 169.117 74.0225 168.929L82.3433 168.929C82.0879 169.104 81.903 169.303 81.7883 169.526C81.6737 169.749 81.6238 170.022 81.6369 170.345ZM55.0525 168.928L58.3846 168.928C58.1292 169.103 57.9474 169.303 57.8394 169.525C57.7321 169.748 57.6782 170.022 57.6782 170.345L57.6782 177.331C57.6782 177.668 57.7321 177.949 57.8394 178.171C57.9474 178.394 58.1292 178.587 58.3846 178.749L55.0525 178.749C55.2948 178.587 55.4733 178.394 55.588 178.171C55.7024 177.949 55.7589 177.668 55.7589 177.331L55.7589 170.345C55.7589 170.022 55.7024 169.748 55.588 169.525C55.4733 169.303 55.2948 169.103 55.0525 168.928ZM58.072 173.565L60.294 171.013C60.5895 170.676 60.8057 170.396 60.9399 170.174C61.0752 169.95 61.1421 169.758 61.1421 169.597C61.1283 169.488 61.0882 169.38 61.021 169.272C60.9539 169.164 60.8392 169.05 60.6771 168.928L63.9693 168.928L60.1089 173.241C60.2161 173.349 60.317 173.45 60.412 173.545C60.5059 173.639 60.6607 173.808 60.876 174.051L63.5722 177.27C63.8554 177.635 64.1208 177.925 64.3739 178.141C64.6226 178.357 64.8953 178.56 65.1918 178.749L64.3975 178.769C63.2758 178.795 62.6095 178.777 62.394 178.708C62.1787 178.64 61.9233 178.411 61.6268 178.02L58.072 173.565Z" fill="#AB9173"></path> </svg> 