<?xml version="1.0" encoding="UTF-8"?> <svg xmlns="http://www.w3.org/2000/svg" width="80" height="80" viewBox="0 0 80 80" fill="none"> <path fill-rule="evenodd" clip-rule="evenodd" d="M49 32.5C49 33.3284 48.3284 34 47.5 34H32.5C31.6716 34 31 33.3284 31 32.5V32.5C31 31.6716 31.6716 31 32.5 31H47.5C48.3284 31 49 31.6716 49 32.5V32.5ZM56 40.5C56 41.3284 55.3284 42 54.5 42H25.5C24.6716 42 24 41.3284 24 40.5V40.5C24 39.6716 24.6716 39 25.5 39H54.5C55.3284 39 56 39.6716 56 40.5V40.5ZM31 48.5C31 49.3284 31.6716 50 32.5 50H47.5C48.3284 50 49 49.3284 49 48.5V48.5C49 47.6716 48.3284 47 47.5 47H32.5C31.6716 47 31 47.6716 31 48.5V48.5Z" fill="#AB9173"></path> <rect x="0.5" y="0.5" width="79" height="79" rx="39.5" stroke="#AB9173"></rect> </svg> 