<?xml version="1.0" encoding="UTF-8"?> <svg xmlns="http://www.w3.org/2000/svg" width="506" height="415" viewBox="0 0 506 415" fill="none"> <path fill-rule="evenodd" clip-rule="evenodd" d="M271.208 18.4834C270.442 20.3997 269.385 21.7904 268.037 22.6528C269.624 26.1152 268.638 31.2332 265.085 38.0015C261.584 45.3636 259.298 49.0271 258.218 48.9997C257.56 48.7901 257.456 43.9059 259.2 34.0761C259.45 32.9304 259.202 31.9224 258.463 31.0481C257.278 29.7057 256.527 28.4245 256.213 27.2106C254.475 27.5975 252.906 27.6684 250.211 27.6737C250.211 27.6737 248.942 28.2849 246.411 29.5144C242.671 31.65 237.711 33.8017 231.539 35.9706C230.276 36.3844 229.794 36.3144 230.098 35.7502C230.297 35.4224 233.481 33.5467 240.027 30.6755C240.874 30.2348 241.609 29.878 242.167 29.5249C243.727 28.5329 243.057 28.3185 241.576 28.2024C238.633 27.9714 228.785 31.8034 228.219 30.5089C227.712 30.0414 233.126 28.2943 244.455 25.2689C248.921 24.1753 251.501 23.2014 253.233 21.291C252.572 20.4473 252.472 18.8705 252.938 16.564C253.008 14.6069 250.944 12.4147 246.741 10.0003C239.135 4.11864 236.604 0.717082 238.109 0.840142C242.876 1.33453 249.616 3.50153 258.332 7.33305C263.182 10.2623 265.593 13.3378 265.561 16.5562C267.235 16.1639 268.967 16.3256 270.768 17.0403C271.236 16.9865 271.811 16.9865 272.5 17.0403C272.157 17.7227 271.723 18.2051 271.208 18.4808" fill="#AF9578"></path> <path d="M37.7405 216.536C58.4765 216.536 75.6605 202.328 75.6605 180.92C75.6605 160.952 59.0525 144.824 37.7405 144.824C16.4285 144.824 0.0124512 160.952 0.0124512 180.92C0.0124512 202.904 17.1965 216.536 37.7405 216.536ZM37.7405 148.856C53.1005 148.856 63.6605 161.912 63.6605 181.304C63.6605 199.256 53.8685 212.504 37.7405 212.504C21.1325 212.504 12.0125 200.696 12.0125 181.304C12.0125 161.432 23.1485 148.856 37.7405 148.856Z" fill="#AB9173"></path> <path d="M105.786 216.728C114.234 216.728 120.378 212.888 123.546 206.36C123.546 205.112 121.914 204.248 121.338 204.248C121.05 204.248 120.666 204.344 120.282 204.824C117.978 208.76 113.754 211.544 108.378 211.544C101.082 211.544 93.6905 206.648 93.6905 191.672C93.6905 179.192 99.7385 173.72 106.65 173.72C110.49 173.72 112.794 175.16 113.946 178.136C115.002 180.824 116.346 182.552 118.842 182.552C121.146 182.552 122.97 181.208 122.97 178.52C122.97 174.488 119.802 169.304 107.61 169.304C94.8425 169.304 83.3224 179.192 83.3224 194.072C83.3224 208.76 94.8424 216.728 105.786 216.728Z" fill="#AB9173"></path> <path d="M153.068 216.728C166.412 216.728 177.356 205.976 177.356 192.824C177.356 179.576 166.412 169.304 153.068 169.304C139.82 169.304 128.876 179.576 128.876 192.824C128.876 205.976 139.82 216.728 153.068 216.728ZM153.068 173.144C161.708 173.144 166.988 180.824 166.988 192.824C166.988 205.688 161.708 212.792 153.068 212.792C144.428 212.792 139.244 205.976 139.244 192.824C139.244 179.864 144.332 173.144 153.068 173.144Z" fill="#AB9173"></path> <path d="M214.285 149.912C193.549 155.864 186.445 172.28 186.445 188.792C186.445 203.48 194.317 216.728 207.949 216.728C219.661 216.728 229.165 205.688 229.165 193.304C229.165 181.016 222.445 170.84 209.389 170.84C204.685 170.84 199.117 173.432 195.853 178.712C196.717 163.928 199.021 160.184 212.845 157.784C225.229 155.672 227.917 154.04 227.917 147.032C227.917 144.632 227.245 143.48 226.381 143.48C225.901 143.48 225.613 143.672 225.133 144.344C223.693 146.36 220.333 148.184 214.285 149.912ZM207.853 175.448C215.341 175.448 219.949 181.208 219.949 195.608C219.949 205.688 216.973 212.696 208.525 212.696C201.229 212.696 195.757 206.552 195.757 189.464C195.757 181.976 200.461 175.448 207.853 175.448Z" fill="#AB9173"></path> <path d="M275.416 186.008C277.144 186.008 277.72 185.432 277.72 183.416C277.72 178.52 273.784 169.304 261.304 169.304C247.288 169.304 237.784 179.96 237.784 193.496C237.784 210.008 248.056 216.728 260.536 216.728C269.368 216.728 274.936 212.216 277.336 207.416C277.432 207.224 277.624 206.936 277.624 206.744C277.624 205.976 275.896 204.728 275.128 204.728C274.936 204.728 274.552 204.824 274.264 205.4C272.536 208.856 267.928 211.544 262.456 211.544C253.816 211.544 247.576 204.824 247.576 191.96C247.576 189.656 247.768 187.352 248.152 186.008H275.416ZM260.344 173.336C266.104 173.336 268.504 176.984 268.504 180.344C268.504 182.36 268.12 182.552 264.472 182.648L248.728 183.032C250.84 176.312 254.68 173.336 260.344 173.336Z" fill="#AB9173"></path> <path d="M322.584 192.824C322.392 197.912 322.488 201.176 322.488 206.36C322.488 210.584 320.856 211.544 315.96 211.544C315.768 211.544 315.576 212.408 315.576 213.368C315.576 214.232 315.768 215.096 316.056 215.096C319.704 215.096 322.68 214.712 326.232 214.712C330.552 214.712 333.816 215.096 337.176 215.096C337.56 215.096 337.656 214.04 337.656 213.08C337.656 212.504 337.56 211.544 337.176 211.544C332.376 211.544 330.84 210.296 330.84 206.456C330.84 195.416 331.224 181.592 331.224 179.768C331.224 175.544 332.472 174.584 337.368 174.584C337.56 174.584 337.752 173.72 337.752 172.76C337.752 171.896 337.56 171.032 337.272 171.032C333.624 171.032 330.168 171.416 326.616 171.416C322.296 171.416 319.512 171.032 316.152 171.032C315.768 171.032 315.672 172.088 315.672 173.048C315.672 173.624 315.768 174.584 316.152 174.584C320.952 174.584 322.488 175.832 322.488 179.672C322.488 183.704 322.392 185.72 322.584 189.848C319.416 189.752 315.864 189.656 312.024 189.656C308.856 189.656 305.976 189.752 301.08 189.848L301.464 179.768C301.464 175.544 302.712 174.584 307.608 174.584C307.8 174.584 307.992 173.72 307.992 172.76C307.992 171.896 307.8 171.032 307.512 171.032C303.864 171.032 300.6 171.416 297.048 171.416C292.728 171.416 289.752 171.032 286.392 171.032C286.008 171.032 285.912 172.088 285.912 173.048C285.912 173.624 286.008 174.584 286.392 174.584C291.192 174.584 292.728 175.832 292.728 179.672V206.36C292.728 210.584 291.096 211.544 286.2 211.544C286.008 211.544 285.816 212.408 285.816 213.368C285.816 214.232 286.008 215.096 286.296 215.096C289.944 215.096 292.92 214.712 296.472 214.712C300.792 214.712 304.056 215.096 307.416 215.096C307.8 215.096 307.896 214.04 307.896 213.08C307.896 212.504 307.8 211.544 307.416 211.544C302.616 211.544 301.08 210.296 301.08 206.456C301.08 201.848 301.176 198.008 301.08 192.824C304.248 192.92 309.432 193.112 312.216 193.112C315.192 193.112 319.224 192.824 322.584 192.824Z" fill="#AB9173"></path> <path d="M384.635 192.824C384.443 197.912 384.539 201.176 384.539 206.36C384.539 210.584 382.907 211.544 378.011 211.544C377.819 211.544 377.627 212.408 377.627 213.368C377.627 214.232 377.819 215.096 378.107 215.096C381.755 215.096 384.731 214.712 388.283 214.712C392.603 214.712 395.867 215.096 399.227 215.096C399.611 215.096 399.707 214.04 399.707 213.08C399.707 212.504 399.611 211.544 399.227 211.544C394.427 211.544 392.891 210.296 392.891 206.456C392.891 195.416 393.275 181.592 393.275 179.768C393.275 175.544 394.523 174.584 399.419 174.584C399.611 174.584 399.803 173.72 399.803 172.76C399.803 171.896 399.611 171.032 399.323 171.032C395.675 171.032 392.219 171.416 388.667 171.416C384.347 171.416 381.563 171.032 378.203 171.032C377.819 171.032 377.723 172.088 377.723 173.048C377.723 173.624 377.819 174.584 378.203 174.584C383.003 174.584 384.539 175.832 384.539 179.672C384.539 183.704 384.443 185.72 384.635 189.848C381.467 189.752 377.915 189.656 374.075 189.656C370.907 189.656 368.027 189.752 363.131 189.848L363.515 179.768C363.515 175.544 364.763 174.584 369.659 174.584C369.851 174.584 370.043 173.72 370.043 172.76C370.043 171.896 369.851 171.032 369.563 171.032C365.915 171.032 362.651 171.416 359.099 171.416C354.779 171.416 351.803 171.032 348.443 171.032C348.059 171.032 347.963 172.088 347.963 173.048C347.963 173.624 348.059 174.584 348.443 174.584C353.243 174.584 354.779 175.832 354.779 179.672V206.36C354.779 210.584 353.147 211.544 348.251 211.544C348.059 211.544 347.867 212.408 347.867 213.368C347.867 214.232 348.059 215.096 348.347 215.096C351.995 215.096 354.971 214.712 358.523 214.712C362.843 214.712 366.107 215.096 369.467 215.096C369.851 215.096 369.947 214.04 369.947 213.08C369.947 212.504 369.851 211.544 369.467 211.544C364.667 211.544 363.131 210.296 363.131 206.456C363.131 201.848 363.227 198.008 363.131 192.824C366.299 192.92 371.483 193.112 374.267 193.112C377.243 193.112 381.275 192.824 384.635 192.824Z" fill="#AB9173"></path> <path d="M432.574 216.728C445.918 216.728 456.862 205.976 456.862 192.824C456.862 179.576 445.918 169.304 432.574 169.304C419.326 169.304 408.382 179.576 408.382 192.824C408.382 205.976 419.326 216.728 432.574 216.728ZM432.574 173.144C441.214 173.144 446.494 180.824 446.494 192.824C446.494 205.688 441.214 212.792 432.574 212.792C423.934 212.792 418.75 205.976 418.75 192.824C418.75 179.864 423.838 173.144 432.574 173.144Z" fill="#AB9173"></path> <path d="M502.996 186.008C504.724 186.008 505.3 185.432 505.3 183.416C505.3 178.52 501.364 169.304 488.884 169.304C474.868 169.304 465.364 179.96 465.364 193.496C465.364 210.008 475.636 216.728 488.116 216.728C496.948 216.728 502.516 212.216 504.916 207.416C505.012 207.224 505.204 206.936 505.204 206.744C505.204 205.976 503.476 204.728 502.708 204.728C502.516 204.728 502.132 204.824 501.844 205.4C500.116 208.856 495.508 211.544 490.036 211.544C481.396 211.544 475.156 204.824 475.156 191.96C475.156 189.656 475.348 187.352 475.732 186.008H502.996ZM487.924 173.336C493.684 173.336 496.084 176.984 496.084 180.344C496.084 182.36 495.7 182.552 492.052 182.648L476.308 183.032C478.42 176.312 482.26 173.336 487.924 173.336Z" fill="#AB9173"></path> <path d="M90.5577 278.675C91.2467 280.053 92.4657 280.954 94.7977 280.954C102.059 280.954 110.274 270.354 110.274 261.45C110.274 257.369 107.995 254.772 103.861 254.772C100.893 254.772 97.0237 257.369 94.9037 261.768C95.9637 258.429 97.6067 254.189 98.5607 250.691C98.9317 249.419 98.1897 249.154 97.0767 249.154C96.0167 249.154 95.3277 249.419 95.0097 250.691C94.2147 254.242 91.6707 258.164 89.2857 261.503C87.3247 264.206 85.5757 266.485 84.8337 267.969C84.8337 268.446 85.4697 268.923 85.8937 268.923C86.0527 268.923 86.2117 268.817 86.3177 268.658C86.7417 267.704 88.3317 265.69 90.1867 262.987C91.4587 261.132 92.7307 259.012 93.7377 256.627C90.8757 264.842 83.1907 288.109 82.7137 289.434C81.8657 291.766 81.0707 292.402 79.3217 292.402C79.1097 292.402 78.8977 292.879 78.8977 293.462C78.8977 293.992 79.0567 294.363 79.2687 294.363C80.4347 294.363 82.0777 294.204 84.9397 294.204C88.0137 294.204 89.7097 294.363 90.8227 294.363C91.0347 294.363 91.2997 293.939 91.2997 293.409C91.2997 292.985 91.1937 292.402 90.8227 292.402C88.2787 292.402 86.9007 292.031 86.9007 290.653C86.9007 289.169 89.4447 282.173 90.5577 278.675ZM91.9887 276.025C91.9887 273.428 93.8437 267.863 94.5857 266.114C96.8117 260.814 99.6737 257.051 103.119 257.051C105.08 257.051 105.716 258.482 105.716 260.284C105.716 267.969 99.4617 278.834 94.7447 278.834C92.5717 278.834 91.9887 277.721 91.9887 276.025Z" fill="#AB9173"></path> <path d="M137.732 256.309C137.732 255.302 136.354 254.772 135.188 254.772C134.446 254.772 133.81 254.931 133.651 255.408L133.121 257.051C132.432 255.673 131.372 254.772 129.146 254.772C121.62 254.772 113.246 265.16 113.246 274.276C113.246 278.357 115.525 280.954 119.659 280.954C122.627 280.954 126.284 278.357 127.821 275.071C127.715 275.707 127.662 276.555 127.662 277.191C127.662 279.417 128.192 280.795 130.1 280.795C134.181 280.795 137.255 276.608 138.421 272.951C138.421 272.368 137.785 272.103 137.467 272.103C137.308 272.103 137.096 272.209 137.043 272.368C135.771 275.813 133.651 278.092 132.061 278.092C131.531 278.092 131.16 277.774 131.16 277.138C131.16 276.608 131.213 276.449 131.266 276.184C132.432 272.05 135.029 263.57 137.732 256.309ZM131.69 259.701C131.69 262.775 129.57 268.022 128.828 269.771C126.602 275.071 123.846 278.675 120.401 278.675C118.44 278.675 117.804 277.244 117.804 275.442C117.804 267.757 124.376 256.892 129.093 256.892C131.266 256.892 131.69 258.005 131.69 259.701Z" fill="#AB9173"></path> <path d="M162.282 258.747C162.282 256.521 160.957 254.772 156.717 254.772C150.198 254.772 141.559 263.676 141.559 274.223C141.559 279.258 145.216 280.954 148.343 280.954C152.424 280.954 156.187 278.357 158.307 272.739C158.519 272.156 157.777 271.679 157.353 271.679C157.035 271.679 156.876 271.891 156.717 272.156C154.491 276.449 152.106 278.516 149.244 278.516C147.654 278.516 146.064 277.827 146.064 274.753C146.064 266.326 152.689 257.104 155.922 257.104C157.088 257.104 157.459 257.634 157.724 259.118C157.989 260.602 158.784 261.344 160.056 261.344C161.434 261.344 162.282 260.231 162.282 258.747Z" fill="#AB9173"></path> <path d="M174.097 262.139C174.309 261.344 174.786 259.595 174.786 258.164C174.786 256.256 174.097 254.772 172.189 254.772C168.108 254.772 164.928 258.694 163.868 262.404C163.709 262.934 164.451 263.252 164.822 263.252C164.981 263.252 165.193 263.146 165.246 262.987C166.518 259.542 168.638 257.263 170.228 257.263C170.758 257.263 171.129 257.581 171.129 258.694C171.129 260.125 169.592 264.842 168.479 268.446L165.829 277.138C165.511 278.251 165.352 278.887 165.352 279.47C165.352 280 166.995 280.371 167.896 280.371C168.744 280.371 169.327 280.053 169.38 279.735C169.698 277.933 172.613 268.923 173.62 266.326C175.475 261.556 180.033 257.104 182.842 257.104C184.167 257.104 184.75 257.687 184.75 259.065C184.75 260.973 184.22 263.04 182.418 267.704C180.616 272.315 179.662 275.442 179.662 277.615C179.662 279.947 180.669 280.795 182.789 280.795C186.552 280.795 189.997 276.661 191.057 272.951C191.216 272.421 190.474 272.103 190.103 272.103C189.944 272.103 189.732 272.209 189.679 272.368C188.407 275.813 186.287 278.092 184.697 278.092C184.167 278.092 183.796 277.774 183.796 277.138C183.796 275.495 184.644 273.216 186.446 268.711C188.46 263.676 188.884 261.556 188.884 259.224C188.884 256.415 187.135 254.772 184.167 254.772C180.404 254.772 176.376 257.952 174.097 262.139Z" fill="#AB9173"></path> <path d="M216.245 263.252C216.245 256.839 212.429 254.772 208.825 254.772C200.663 254.772 194.197 265.372 194.197 272.845C194.197 279.894 198.861 280.954 201.67 280.954C210.468 280.954 216.245 269.983 216.245 263.252ZM211.952 261.238C211.952 268.34 206.705 279.099 201.458 279.099C199.285 279.099 198.331 278.092 198.331 275.177C198.331 267.916 203.525 256.733 208.878 256.733C211.051 256.733 211.952 257.793 211.952 261.238Z" fill="#AB9173"></path> <path d="M240.234 255.302C237.584 255.302 227.991 255.991 225.659 256.203C225.129 256.256 224.97 257.793 225.553 257.793H229.634C227.461 270.407 223.221 276.661 219.829 276.661C218.133 276.661 218.398 275.548 217.232 275.548C215.748 275.548 214.741 276.979 214.741 278.357C214.741 279.576 215.536 280.795 217.497 280.795C224.864 280.795 230.005 269.877 231.86 257.793H237.16C237.213 260.019 232.602 272.58 232.602 277.615C232.602 279.629 233.45 280.795 235.57 280.795C239.651 280.795 242.99 276.661 244.05 272.951C244.209 272.421 243.467 272.103 243.096 272.103C242.937 272.103 242.725 272.209 242.672 272.368C241.4 275.813 239.28 278.092 237.69 278.092C237.16 278.092 236.789 277.774 236.789 276.661C236.789 274.011 242.089 259.224 242.089 256.574C242.089 255.567 241.453 255.302 240.234 255.302Z" fill="#AB9173"></path> <path d="M269.245 263.252C269.245 256.839 265.429 254.772 261.825 254.772C253.663 254.772 247.197 265.372 247.197 272.845C247.197 279.894 251.861 280.954 254.67 280.954C263.468 280.954 269.245 269.983 269.245 263.252ZM264.952 261.238C264.952 268.34 259.705 279.099 254.458 279.099C252.285 279.099 251.331 278.092 251.331 275.177C251.331 267.916 256.525 256.733 261.878 256.733C264.051 256.733 264.952 257.793 264.952 261.238Z" fill="#AB9173"></path> <path d="M299.488 256.15C299.594 255.832 298.693 255.62 297.792 255.62C296.891 255.62 295.937 255.832 295.831 256.15L293.022 266.008L289.206 267.174C289.683 265.372 289.948 263.464 289.948 261.503C289.948 256.468 287.828 254.772 284.701 254.772C280.62 254.772 276.857 257.369 274.737 262.987C274.525 263.57 275.267 264.047 275.691 264.047C276.009 264.047 276.221 263.835 276.327 263.57C278.235 259.277 280.938 257.21 283.217 257.21C285.39 257.21 285.92 258.217 285.92 261.291C285.92 269.188 280.355 278.622 277.122 278.622C275.956 278.622 275.585 278.092 275.32 276.608C275.055 275.124 274.26 274.382 272.988 274.382C271.61 274.382 270.762 275.495 270.762 276.979C270.762 279.205 272.087 280.954 276.327 280.954C281.15 280.954 286.238 276.025 288.623 269.135L292.439 267.969L289.047 280C288.941 280.371 289.789 280.53 290.743 280.53C291.644 280.53 292.651 280.371 292.757 280L295.778 269.294L299.276 268.234C298.746 270.142 298.481 272.156 298.481 274.223C298.481 279.258 300.601 280.954 303.728 280.954C307.809 280.954 311.572 278.357 313.692 272.739C313.904 272.156 313.162 271.679 312.738 271.679C312.42 271.679 312.208 271.891 312.102 272.156C310.194 276.449 307.491 278.516 305.106 278.516C303.039 278.516 302.509 277.509 302.509 274.435C302.509 266.538 308.074 257.104 311.307 257.104C312.473 257.104 312.844 257.634 313.109 259.118C313.374 260.602 314.169 261.344 315.441 261.344C316.819 261.344 317.667 260.231 317.667 258.747C317.667 256.521 316.342 254.772 312.102 254.772C307.332 254.772 302.297 259.542 299.859 266.273L296.308 267.333L299.488 256.15Z" fill="#AB9173"></path> <path d="M340.127 258.906C340.127 256.521 338.855 254.772 335.569 254.772C327.566 254.772 319.192 264.471 319.192 274.223C319.192 278.569 322.425 280.954 325.605 280.954C331.541 280.954 334.986 276.661 336.205 272.898C336.364 272.368 335.569 272.05 335.198 272.05C334.827 272.05 334.774 272.156 334.615 272.58C333.29 275.813 329.951 278.569 327.089 278.569C324.863 278.569 323.697 277.35 323.697 274.594C323.697 273.269 324.015 271.202 324.598 269.188C334.88 266.644 340.127 262.775 340.127 258.906ZM336.523 258.641C336.523 262.086 332.177 265.319 325.234 267.28C327.619 260.708 331.912 256.998 334.88 256.998C336.205 256.998 336.523 257.899 336.523 258.641Z" fill="#AB9173"></path> <path d="M352.538 258.164C352.538 256.15 351.69 254.772 349.464 254.772C345.383 254.772 342.203 258.694 341.143 262.404C340.984 262.934 341.726 263.252 342.097 263.252C342.256 263.252 342.468 263.146 342.521 262.987C343.793 259.542 345.913 257.263 347.503 257.263C348.033 257.263 348.404 257.581 348.404 258.694C348.404 259.33 348.192 260.549 347.927 261.556L342.68 279.576C342.415 280.424 347.079 280.371 347.238 279.629C347.927 276.184 349.464 271.414 350.365 268.446H357.467C356.513 271.785 355.718 275.389 355.718 277.403C355.718 279.417 356.566 280.795 358.792 280.795C362.873 280.795 366.053 276.873 367.113 273.163C367.272 272.633 366.53 272.315 366.159 272.315C366 272.315 365.788 272.421 365.735 272.58C364.463 276.025 362.343 278.304 360.753 278.304C360.223 278.304 359.852 277.986 359.852 276.873C359.852 276.237 360.064 275.018 360.329 274.011L365.576 255.991C365.841 255.143 361.177 255.196 361.018 255.938C360.382 259.224 358.951 263.623 358.05 266.591H350.895C351.796 263.411 352.538 260.125 352.538 258.164Z" fill="#AB9173"></path> <path d="M387.238 273.428C387.026 274.223 386.549 275.972 386.549 277.403C386.549 279.311 387.238 280.795 389.146 280.795C393.227 280.795 396.407 276.873 397.467 273.163C397.626 272.633 396.884 272.315 396.513 272.315C396.354 272.315 396.142 272.421 396.089 272.58C394.817 276.025 392.697 278.304 391.107 278.304C390.577 278.304 390.206 277.986 390.206 276.873C390.206 275.442 391.743 270.725 392.856 267.121L395.665 258.005C395.983 256.892 396.142 256.256 396.142 255.673C396.142 255.143 394.499 254.772 393.598 254.772C392.75 254.772 392.167 255.09 392.114 255.408C391.796 257.21 388.722 266.644 387.715 269.241C385.86 274.011 381.302 278.463 378.493 278.463C377.168 278.463 376.585 277.88 376.585 276.502C376.585 274.594 377.115 272.527 378.917 267.863C380.719 263.252 381.673 260.125 381.673 257.952C381.673 255.62 380.666 254.772 378.546 254.772C374.783 254.772 371.338 258.906 370.278 262.616C370.119 263.146 370.861 263.464 371.232 263.464C371.391 263.464 371.603 263.358 371.656 263.199C372.928 259.754 375.048 257.475 376.638 257.475C377.168 257.475 377.539 257.793 377.539 258.429C377.539 260.072 376.691 262.351 374.889 266.856C372.875 271.891 372.451 274.011 372.451 276.343C372.451 279.152 374.2 280.795 377.168 280.795C380.931 280.795 384.959 277.615 387.238 273.428Z" fill="#AB9173"></path> <path d="M421.542 258.906C421.542 256.521 420.27 254.772 416.984 254.772C408.981 254.772 400.607 264.471 400.607 274.223C400.607 278.569 403.84 280.954 407.02 280.954C412.956 280.954 416.401 276.661 417.62 272.898C417.779 272.368 416.984 272.05 416.613 272.05C416.242 272.05 416.189 272.156 416.03 272.58C414.705 275.813 411.366 278.569 408.504 278.569C406.278 278.569 405.112 277.35 405.112 274.594C405.112 273.269 405.43 271.202 406.013 269.188C416.295 266.644 421.542 262.775 421.542 258.906ZM417.938 258.641C417.938 262.086 413.592 265.319 406.649 267.28C409.034 260.708 413.327 256.998 416.295 256.998C417.62 256.998 417.938 257.899 417.938 258.641Z" fill="#AB9173"></path> <path d="M68.1464 406.936L69.3224 403.156C69.5837 402.335 70.041 400.869 70.6944 398.76C71.3664 396.651 71.8424 395.185 72.1224 394.364H73.7184C70.3397 404.724 68.5384 410.221 68.3144 410.856C67.9784 411.92 67.5397 412.723 66.9984 413.264C66.4757 413.805 65.7664 414.076 64.8704 414.076C63.7877 414.02 62.845 413.88 62.0424 413.656L62.2944 412.48C63.3024 412.685 64.049 412.788 64.5344 412.788C65.1317 412.788 65.5984 412.657 65.9344 412.396C66.2704 412.153 66.5784 411.612 66.8584 410.772L67.7824 407.944H66.9704C66.6717 406.955 65.8877 404.565 64.6184 400.776C63.3677 396.987 62.6677 394.849 62.5184 394.364H64.0584C64.2077 394.831 64.6744 396.287 65.4584 398.732C66.2424 401.177 66.709 402.671 66.8584 403.212L68.0344 406.936H68.1464Z" fill="white"></path> <path d="M85.2353 408H83.6673V395.624H78.4313L78.2913 397.696C78.0673 400.981 77.8527 403.1 77.6473 404.052C77.1993 406.124 76.266 407.487 74.8473 408.14C74.5487 408.271 74.222 408.383 73.8673 408.476L73.4753 407.356C74.054 407.132 74.53 406.843 74.9033 406.488C75.2953 406.133 75.6033 405.741 75.8273 405.312C76.0513 404.883 76.2287 404.304 76.3593 403.576C76.49 402.829 76.5833 402.111 76.6393 401.42C76.6953 400.729 76.7607 399.787 76.8353 398.592C76.854 398.163 76.8727 397.827 76.8913 397.584L77.0873 394.364H85.2353V408Z" fill="white"></path> <path d="M90.1465 406.18C90.3892 406.404 90.5105 406.675 90.5105 406.992C90.5105 407.309 90.3892 407.589 90.1465 407.832C89.9225 408.056 89.6518 408.168 89.3345 408.168C89.0172 408.168 88.7372 408.056 88.4945 407.832C88.2705 407.589 88.1585 407.309 88.1585 406.992C88.1585 406.675 88.2705 406.404 88.4945 406.18C88.7372 405.937 89.0172 405.816 89.3345 405.816C89.6518 405.816 89.9225 405.937 90.1465 406.18Z" fill="white"></path> <path d="M103.15 408H101.498V388.848H103.15V397.108H106.902C108.731 397.108 109.945 396.1 110.542 394.084L112.11 388.904H113.65L112.194 394.056C111.578 396.128 110.635 397.36 109.366 397.752C110.262 397.957 110.953 398.368 111.438 398.984C111.923 399.581 112.306 400.375 112.586 401.364L114.434 408H112.81L110.99 401.672C110.355 399.563 109.077 398.508 107.154 398.508H103.15V408Z" fill="white"></path> <path d="M122.093 395.316C119.647 395.316 118.285 396.996 118.005 400.356H125.789C125.789 396.996 124.557 395.316 122.093 395.316ZM122.065 394.14C125.555 394.14 127.301 396.315 127.301 400.664V401.476H117.977C117.939 405.116 119.339 406.936 122.177 406.936C123.558 406.936 125.005 406.591 126.517 405.9L126.937 406.964C125.406 407.785 123.801 408.196 122.121 408.196C121.001 408.196 120.049 408.019 119.265 407.664C118.481 407.309 117.883 406.796 117.473 406.124C117.062 405.452 116.773 404.724 116.605 403.94C116.437 403.156 116.353 402.26 116.353 401.252C116.353 400.711 116.39 400.169 116.465 399.628C116.539 399.087 116.698 398.471 116.941 397.78C117.183 397.089 117.501 396.492 117.893 395.988C118.285 395.465 118.835 395.027 119.545 394.672C120.273 394.317 121.113 394.14 122.065 394.14Z" fill="white"></path> <path d="M131.762 395.708L131.874 395.792C133.218 394.728 134.646 394.196 136.158 394.196C139.462 394.196 141.114 396.445 141.114 400.944C141.114 403.147 140.684 404.911 139.826 406.236C138.967 407.543 137.614 408.196 135.766 408.196C134.216 408.196 132.891 407.851 131.79 407.16V413.88H130.25V394.364H131.706C131.706 394.439 131.715 394.663 131.734 395.036C131.752 395.409 131.762 395.633 131.762 395.708ZM131.79 397.164V405.844C132.219 406.143 132.788 406.404 133.498 406.628C134.226 406.852 134.916 406.964 135.57 406.964C138.202 406.964 139.518 404.939 139.518 400.888C139.518 398.947 139.191 397.565 138.538 396.744C137.884 395.923 136.951 395.512 135.738 395.512C135.14 395.512 134.44 395.68 133.638 396.016C132.854 396.352 132.238 396.735 131.79 397.164Z" fill="white"></path> <path d="M149.628 395.316C147.182 395.316 145.82 396.996 145.54 400.356H153.324C153.324 396.996 152.092 395.316 149.628 395.316ZM149.6 394.14C153.09 394.14 154.836 396.315 154.836 400.664V401.476H145.512C145.474 405.116 146.874 406.936 149.712 406.936C151.093 406.936 152.54 406.591 154.052 405.9L154.472 406.964C152.941 407.785 151.336 408.196 149.656 408.196C148.536 408.196 147.584 408.019 146.8 407.664C146.016 407.309 145.418 406.796 145.008 406.124C144.597 405.452 144.308 404.724 144.14 403.94C143.972 403.156 143.888 402.26 143.888 401.252C143.888 400.711 143.925 400.169 144 399.628C144.074 399.087 144.233 398.471 144.476 397.78C144.718 397.089 145.036 396.492 145.428 395.988C145.82 395.465 146.37 395.027 147.08 394.672C147.808 394.317 148.648 394.14 149.6 394.14Z" fill="white"></path> <path d="M168.369 408H166.829V396.576H166.745C166.745 396.595 166.064 397.649 164.701 399.74C161.49 404.612 159.67 407.365 159.241 408H157.785V394.364H159.297V405.676H159.409C159.54 405.471 159.81 405.051 160.221 404.416C160.632 403.781 160.949 403.296 161.173 402.96C161.565 402.363 162.218 401.373 163.133 399.992C164.066 398.592 164.897 397.341 165.625 396.24C166.372 395.12 166.782 394.495 166.857 394.364H168.369V408ZM162.797 392.796C161.266 392.796 159.857 391.835 158.569 389.912L159.577 389.212C160.641 390.705 161.742 391.452 162.881 391.452C164.057 391.452 165.345 390.761 166.745 389.38L167.333 389.884C165.952 391.825 164.44 392.796 162.797 392.796Z" fill="white"></path> <path d="M178.256 401.476H171.48V400.076H178.256V401.476Z" fill="white"></path> <path d="M192.947 408H191.295V398.48H187.823C185.919 398.48 184.641 399.544 183.987 401.672L182.167 408H180.543L182.391 401.364C182.951 399.329 184.034 398.125 185.639 397.752C184.37 397.36 183.427 396.128 182.811 394.056L181.355 388.904H182.867L184.435 394.084C185.014 396.1 186.218 397.108 188.047 397.108H191.295V388.848H192.947V397.108H196.195C198.025 397.108 199.229 396.1 199.807 394.084L201.375 388.904H202.887L201.403 394.056C200.825 396.109 199.891 397.341 198.603 397.752C199.499 397.957 200.19 398.368 200.675 398.984C201.161 399.581 201.543 400.375 201.823 401.364L203.671 408H202.103L200.255 401.672C199.602 399.544 198.333 398.48 196.447 398.48H192.947V408Z" fill="white"></path> <path d="M211.615 394.196C213.052 394.196 214.135 394.551 214.863 395.26C215.591 395.951 215.955 397.08 215.955 398.648V406.768H217.803L217.887 407.692C217.271 407.991 216.589 408.14 215.843 408.14C215.32 408.14 214.947 408.009 214.723 407.748C214.499 407.487 214.396 407.057 214.415 406.46C214.396 406.441 214.377 406.432 214.359 406.432C212.884 407.589 211.307 408.168 209.627 408.168C208.227 408.168 207.219 407.795 206.603 407.048C205.987 406.301 205.679 405.424 205.679 404.416C205.679 403.203 206.08 402.26 206.883 401.588C207.704 400.897 208.787 400.505 210.131 400.412L214.415 400.188V399.068C214.415 397.761 214.191 396.847 213.743 396.324C213.295 395.783 212.473 395.512 211.279 395.512C210.009 395.512 208.591 395.783 207.023 396.324L206.631 395.232C208.236 394.541 209.897 394.196 211.615 394.196ZM214.415 401.308L210.523 401.532C209.496 401.569 208.712 401.831 208.171 402.316C207.629 402.783 207.359 403.427 207.359 404.248C207.359 406.059 208.311 406.964 210.215 406.964C211.465 406.964 212.865 406.32 214.415 405.032V401.308Z" fill="white"></path> <path d="M230.791 408H229.223V401.392H221.915V408H220.375V394.364H221.943V400.104H229.223V394.364H230.791V408Z" fill="white"></path> <path d="M244.685 408H243.145V396.576H243.061C243.061 396.595 242.38 397.649 241.017 399.74C237.807 404.612 235.987 407.365 235.557 408H234.101V394.364H235.613V405.676H235.725C235.856 405.471 236.127 405.051 236.537 404.416C236.948 403.781 237.265 403.296 237.489 402.96C237.881 402.363 238.535 401.373 239.449 399.992C240.383 398.592 241.213 397.341 241.941 396.24C242.688 395.12 243.099 394.495 243.173 394.364H244.685V408Z" fill="white"></path> <path d="M252.864 389.324C255.421 388.279 256.943 387.635 257.428 387.392C257.559 387.616 257.745 387.971 257.988 388.456C256.943 388.997 255.403 389.679 253.368 390.5C251.912 391.097 250.848 391.937 250.176 393.02C249.504 394.084 249.084 395.493 248.916 397.248C248.935 397.248 248.953 397.257 248.972 397.276C249.42 396.436 250.045 395.764 250.848 395.26C251.651 394.756 252.556 394.504 253.564 394.504C254.535 394.504 255.375 394.7 256.084 395.092C256.793 395.465 257.335 395.988 257.708 396.66C258.1 397.313 258.38 398.023 258.548 398.788C258.735 399.553 258.828 400.384 258.828 401.28C258.828 401.971 258.772 402.633 258.66 403.268C258.567 403.884 258.38 404.5 258.1 405.116C257.82 405.732 257.465 406.264 257.036 406.712C256.607 407.16 256.047 407.524 255.356 407.804C254.665 408.065 253.872 408.196 252.976 408.196C251.912 408.196 250.997 408 250.232 407.608C249.485 407.216 248.916 406.684 248.524 406.012C248.151 405.321 247.88 404.612 247.712 403.884C247.544 403.156 247.46 402.363 247.46 401.504C247.516 398.181 247.619 396.109 247.768 395.288C248.347 392.432 250.045 390.444 252.864 389.324ZM253.34 395.708C252.575 395.708 251.903 395.895 251.324 396.268C250.745 396.623 250.297 397.099 249.98 397.696C249.681 398.293 249.457 398.919 249.308 399.572C249.159 400.207 249.084 400.86 249.084 401.532C249.084 402.26 249.131 402.904 249.224 403.464C249.317 404.024 249.495 404.593 249.756 405.172C250.036 405.751 250.456 406.199 251.016 406.516C251.595 406.833 252.304 406.992 253.144 406.992C255.851 406.992 257.204 405.125 257.204 401.392C257.204 400.869 257.176 400.375 257.12 399.908C257.064 399.423 256.952 398.919 256.784 398.396C256.616 397.855 256.392 397.397 256.112 397.024C255.851 396.651 255.477 396.343 254.992 396.1C254.525 395.839 253.975 395.708 253.34 395.708Z" fill="white"></path> <path d="M267.096 395.316C264.651 395.316 263.288 396.996 263.008 400.356H270.792C270.792 396.996 269.56 395.316 267.096 395.316ZM267.068 394.14C270.559 394.14 272.304 396.315 272.304 400.664V401.476H262.98C262.943 405.116 264.343 406.936 267.18 406.936C268.562 406.936 270.008 406.591 271.52 405.9L271.94 406.964C270.41 407.785 268.804 408.196 267.124 408.196C266.004 408.196 265.052 408.019 264.268 407.664C263.484 407.309 262.887 406.796 262.476 406.124C262.066 405.452 261.776 404.724 261.608 403.94C261.44 403.156 261.356 402.26 261.356 401.252C261.356 400.711 261.394 400.169 261.468 399.628C261.543 399.087 261.702 398.471 261.944 397.78C262.187 397.089 262.504 396.492 262.896 395.988C263.288 395.465 263.839 395.027 264.548 394.672C265.276 394.317 266.116 394.14 267.068 394.14Z" fill="white"></path> <path d="M276.766 408H275.254V394.308H276.766V400.16H279.79C281.115 400.16 282.002 399.479 282.45 398.116C282.935 396.641 283.364 395.381 283.738 394.336H285.194C285.1 394.597 284.895 395.232 284.578 396.24C284.26 397.229 284.055 397.855 283.962 398.116C283.495 399.516 282.851 400.384 282.03 400.72C282.646 400.888 283.112 401.177 283.43 401.588C283.766 401.999 284.055 402.559 284.298 403.268L285.81 408H284.298C284.186 407.664 283.934 406.899 283.542 405.704C283.15 404.509 282.907 403.772 282.814 403.492V403.52C282.31 402.064 281.348 401.336 279.93 401.336H276.766V408Z" fill="white"></path> <path d="M303.189 408L299.465 401.84C297.598 404.92 296.338 406.973 295.685 408H294.005C294.285 407.552 294.957 406.479 296.021 404.78C297.103 403.063 297.943 401.747 298.541 400.832C297.645 399.395 296.282 397.239 294.453 394.364H296.217L299.465 399.768C299.838 399.171 300.379 398.275 301.089 397.08C301.817 395.867 302.367 394.961 302.741 394.364H304.477C304.066 394.999 303.394 396.035 302.461 397.472C301.546 398.909 300.846 400.011 300.361 400.776C300.827 401.485 301.313 402.241 301.817 403.044C302.339 403.847 302.909 404.743 303.525 405.732C304.159 406.703 304.645 407.459 304.981 408H303.189Z" fill="white"></path> <path d="M312.24 394.196C313.677 394.196 314.76 394.551 315.488 395.26C316.216 395.951 316.58 397.08 316.58 398.648V406.768H318.428L318.512 407.692C317.896 407.991 317.214 408.14 316.468 408.14C315.945 408.14 315.572 408.009 315.348 407.748C315.124 407.487 315.021 407.057 315.04 406.46C315.021 406.441 315.002 406.432 314.984 406.432C313.509 407.589 311.932 408.168 310.252 408.168C308.852 408.168 307.844 407.795 307.228 407.048C306.612 406.301 306.304 405.424 306.304 404.416C306.304 403.203 306.705 402.26 307.508 401.588C308.329 400.897 309.412 400.505 310.756 400.412L315.04 400.188V399.068C315.04 397.761 314.816 396.847 314.368 396.324C313.92 395.783 313.098 395.512 311.904 395.512C310.634 395.512 309.216 395.783 307.648 396.324L307.256 395.232C308.861 394.541 310.522 394.196 312.24 394.196ZM315.04 401.308L311.148 401.532C310.121 401.569 309.337 401.831 308.796 402.316C308.254 402.783 307.984 403.427 307.984 404.248C307.984 406.059 308.936 406.964 310.84 406.964C312.09 406.964 313.49 406.32 315.04 405.032V401.308Z" fill="white"></path> <path d="M331.416 408H329.848V401.392H322.54V408H321V394.364H322.568V400.104H329.848V394.364H331.416V408Z" fill="white"></path> <path d="M345.73 394.364V406.768H346.934V411.724H345.674V408H334.782V411.724H333.494V406.768H334.614C335.118 406.413 335.529 405.928 335.846 405.312C336.164 404.696 336.406 403.893 336.574 402.904C336.742 401.896 336.854 401.019 336.91 400.272C336.985 399.507 337.06 398.424 337.134 397.024L337.274 394.364H345.73ZM344.162 395.624H338.674L338.59 397.248C338.516 398.648 338.45 399.693 338.394 400.384C338.338 401.056 338.236 401.868 338.086 402.82C337.956 403.772 337.76 404.556 337.498 405.172C337.256 405.769 336.929 406.301 336.518 406.768H344.162V395.624Z" fill="white"></path> <path d="M355.06 394.196C356.497 394.196 357.58 394.551 358.308 395.26C359.036 395.951 359.4 397.08 359.4 398.648V406.768H361.248L361.332 407.692C360.716 407.991 360.035 408.14 359.288 408.14C358.765 408.14 358.392 408.009 358.168 407.748C357.944 407.487 357.841 407.057 357.86 406.46C357.841 406.441 357.823 406.432 357.804 406.432C356.329 407.589 354.752 408.168 353.072 408.168C351.672 408.168 350.664 407.795 350.048 407.048C349.432 406.301 349.124 405.424 349.124 404.416C349.124 403.203 349.525 402.26 350.328 401.588C351.149 400.897 352.232 400.505 353.576 400.412L357.86 400.188V399.068C357.86 397.761 357.636 396.847 357.188 396.324C356.74 395.783 355.919 395.512 354.724 395.512C353.455 395.512 352.036 395.783 350.468 396.324L350.076 395.232C351.681 394.541 353.343 394.196 355.06 394.196ZM357.86 401.308L353.968 401.532C352.941 401.569 352.157 401.831 351.616 402.316C351.075 402.783 350.804 403.427 350.804 404.248C350.804 406.059 351.756 406.964 353.66 406.964C354.911 406.964 356.311 406.32 357.86 405.032V401.308Z" fill="white"></path> <path d="M365.332 395.708L365.444 395.792C366.788 394.728 368.216 394.196 369.728 394.196C373.032 394.196 374.684 396.445 374.684 400.944C374.684 403.147 374.255 404.911 373.396 406.236C372.537 407.543 371.184 408.196 369.336 408.196C367.787 408.196 366.461 407.851 365.36 407.16V413.88H363.82V394.364H365.276C365.276 394.439 365.285 394.663 365.304 395.036C365.323 395.409 365.332 395.633 365.332 395.708ZM365.36 397.164V405.844C365.789 406.143 366.359 406.404 367.068 406.628C367.796 406.852 368.487 406.964 369.14 406.964C371.772 406.964 373.088 404.939 373.088 400.888C373.088 398.947 372.761 397.565 372.108 396.744C371.455 395.923 370.521 395.512 369.308 395.512C368.711 395.512 368.011 395.68 367.208 396.016C366.424 396.352 365.808 396.735 365.36 397.164Z" fill="white"></path> <path d="M377.206 407.02C377.206 406.703 377.318 406.432 377.542 406.208C377.766 405.965 378.046 405.844 378.382 405.844C378.774 405.844 379.082 405.984 379.306 406.264C379.549 406.525 379.67 406.871 379.67 407.3C379.67 407.953 379.465 408.663 379.054 409.428C378.643 410.193 378.13 410.763 377.514 411.136L377.094 410.632C377.729 409.904 378.065 409.064 378.102 408.112C377.505 407.981 377.206 407.617 377.206 407.02Z" fill="white"></path> <path d="M401.079 408H389.151V406.824C390.514 405.536 391.634 404.453 392.511 403.576C393.389 402.699 394.369 401.635 395.451 400.384C396.534 399.133 397.346 397.957 397.887 396.856C398.447 395.755 398.727 394.737 398.727 393.804C398.727 392.553 398.354 391.611 397.607 390.976C396.879 390.323 395.909 389.996 394.695 389.996C393.053 389.996 391.457 390.519 389.907 391.564L389.291 390.528C391.065 389.24 392.95 388.596 394.947 388.596C396.553 388.596 397.859 389.025 398.867 389.884C399.875 390.743 400.379 392.012 400.379 393.692C400.379 394.663 400.155 395.671 399.707 396.716C399.259 397.761 398.559 398.863 397.607 400.02C396.674 401.177 395.871 402.12 395.199 402.848C394.527 403.576 393.575 404.537 392.343 405.732L391.335 406.712L391.363 406.768H401.079V408Z" fill="white"></path> <path d="M409.262 408.168C407.526 408.168 406.116 407.897 405.034 407.356L405.454 406.18C406.63 406.665 407.899 406.908 409.262 406.908C410.064 406.908 410.783 406.731 411.418 406.376C412.071 406.003 412.594 405.545 412.986 405.004C413.378 404.463 413.714 403.837 413.994 403.128C414.274 402.4 414.47 401.719 414.582 401.084C414.694 400.449 414.768 399.824 414.806 399.208L414.694 399.124C413.144 400.113 411.474 400.608 409.682 400.608C408.076 400.608 406.751 400.132 405.706 399.18C404.679 398.228 404.166 396.753 404.166 394.756C404.166 392.871 404.716 391.377 405.818 390.276C406.938 389.156 408.403 388.596 410.214 388.596C411.408 388.596 412.416 388.829 413.238 389.296C414.078 389.744 414.722 390.397 415.17 391.256C415.618 392.115 415.935 393.057 416.122 394.084C416.308 395.092 416.402 396.259 416.402 397.584C416.402 400.795 415.786 403.361 414.554 405.284C413.34 407.207 411.576 408.168 409.262 408.168ZM405.734 394.644C405.734 397.743 407.134 399.292 409.934 399.292C410.83 399.292 411.679 399.161 412.482 398.9C413.303 398.62 413.854 398.387 414.134 398.2C414.432 397.995 414.647 397.827 414.778 397.696V396.94C414.778 392.273 413.238 389.94 410.158 389.94C408.758 389.94 407.666 390.379 406.882 391.256C406.116 392.115 405.734 393.244 405.734 394.644Z" fill="white"></path> <path d="M426.684 388.428L419.488 408.756H418.312L425.536 388.428H426.684Z" fill="white"></path> <path d="M434.419 396.212C436.025 396.212 437.415 396.697 438.591 397.668C439.767 398.62 440.355 400.076 440.355 402.036C440.355 404.052 439.73 405.592 438.479 406.656C437.247 407.72 435.707 408.252 433.859 408.252C431.731 408.252 429.893 407.907 428.343 407.216L428.763 406.04C430.499 406.619 432.021 406.908 433.327 406.908C435.026 406.908 436.342 406.507 437.275 405.704C438.227 404.883 438.703 403.66 438.703 402.036C438.703 400.58 438.255 399.46 437.359 398.676C436.482 397.892 435.362 397.5 433.999 397.5C432.805 397.5 431.647 397.771 430.527 398.312L429.519 397.64L430.023 388.876H439.515V390.192H431.339L430.975 396.884C432.002 396.436 433.15 396.212 434.419 396.212Z" fill="white"></path> </svg> 