<?xml version="1.0" encoding="UTF-8"?> <svg xmlns="http://www.w3.org/2000/svg" width="199" height="118" viewBox="0 0 199 118" fill="none"> <path d="M33.418 21.136L24.538 3.088C24.282 2.8 24.026 2.56 23.77 2.368C23.546 2.176 23.226 1.952 22.81 1.696L20.842 0.783998L21.13 0.448L21.898 0.351998L22.186 0.303999L24.73 0.399998L27.226 0.495999L29.818 0.399998L30.826 0.256L31.786 0.207997C32.394 0.207997 32.714 0.335998 32.746 0.591998C32.746 0.911998 32.442 1.072 31.834 1.072C31.002 1.072 30.362 1.2 29.914 1.456C29.498 1.712 29.274 2.08 29.242 2.56L29.434 3.376L29.77 4.048L35.818 16.816L40.618 7.024L41.626 4.624C41.882 3.92 42.01 3.312 42.01 2.8C42.01 2.256 41.866 1.872 41.578 1.648C41.322 1.424 40.858 1.264 40.186 1.168C39.61 1.168 39.258 1.104 39.13 0.975999L38.986 0.735999C39.114 0.575999 39.226 0.463999 39.322 0.399998L39.85 0.256L42.97 0.399998H43.93L47.05 0.256L47.77 0.207997C48.186 0.207997 48.458 0.319998 48.586 0.543999C48.586 0.831999 48.33 1.04 47.818 1.168L46.81 1.36C45.978 1.68 45.274 2.128 44.698 2.704C44.122 3.248 43.594 3.936 43.114 4.768L33.418 23.68C32.65 25.216 31.962 26.288 31.354 26.896C30.362 27.888 29.162 28.384 27.754 28.384C27.146 28.384 26.65 28.208 26.266 27.856C25.882 27.504 25.69 27.024 25.69 26.416C25.69 25.808 25.914 25.328 26.362 24.976C26.81 24.624 27.322 24.448 27.898 24.448C28.154 24.448 28.554 24.544 29.098 24.736C29.674 24.928 30.106 25.024 30.394 25.024C30.714 25.024 31.05 24.88 31.402 24.592C31.754 24.304 32.122 23.808 32.506 23.104L33.418 21.136ZM60.4416 9.28C61.4336 9.472 62.3136 9.808 63.0816 10.288C63.6576 10.672 64.2176 11.184 64.7616 11.824C65.2096 12.464 65.4336 13.232 65.4336 14.128C65.4336 14.992 65.1936 15.712 64.7136 16.288C64.2336 16.768 63.5936 17.152 62.7936 17.44L60.4416 17.968C61.5296 18.064 62.4096 18.256 63.0816 18.544C63.7536 18.768 64.3936 19.216 65.0016 19.888C65.2896 20.208 65.5296 20.672 65.7216 21.28C65.9456 21.856 66.0576 22.4 66.0576 22.912C66.0576 23.776 65.8976 24.512 65.5776 25.12C64.9696 26.208 63.9296 27.056 62.4576 27.664C60.9856 28.208 59.3856 28.48 57.6576 28.48L55.7856 28.432C55.2096 28.368 54.7776 28.288 54.4896 28.192C54.2016 28.128 53.8336 27.984 53.3856 27.76C52.5536 27.344 51.9456 26.768 51.5616 26.032L51.4176 25.504C51.4176 25.184 51.5936 25.008 51.9456 24.976C52.2336 25.264 52.5216 25.536 52.8096 25.792C53.0976 26.048 53.4816 26.336 53.9616 26.656C54.7296 27.136 55.6736 27.376 56.7936 27.376L57.3216 27.328C58.7936 27.328 59.9776 26.96 60.8736 26.224C61.7696 25.456 62.2816 24.448 62.4096 23.2V22.48C62.4096 21.296 62.1216 20.384 61.5456 19.744C60.9696 19.072 60.2016 18.736 59.2416 18.736L58.1376 18.832L57.8496 18.88C57.4656 18.88 57.2736 18.704 57.2736 18.352C57.2736 18.032 57.4496 17.856 57.8016 17.824C59.3056 17.824 60.3776 17.488 61.0176 16.816C61.6896 16.112 62.0256 15.04 62.0256 13.6C62.0256 12.48 61.5776 11.568 60.6816 10.864C59.7856 10.128 58.8576 9.76 57.8976 9.76H57.6096C57.2576 9.76 56.9056 9.888 56.5536 10.144L55.7856 10.768C55.6576 10.864 55.4016 11.328 55.0176 12.16C54.6656 12.992 54.2176 13.408 53.6736 13.408L53.3856 13.36C52.6816 13.264 52.3296 12.848 52.3296 12.112C52.3296 11.536 52.5696 11.056 53.0496 10.672C53.6576 10.16 54.4576 9.76 55.4496 9.472C55.9616 9.344 56.4416 9.248 56.8896 9.184C57.3376 9.12 57.8656 9.088 58.4736 9.088C59.1776 9.088 59.8336 9.152 60.4416 9.28ZM84.4994 19.312H75.3794V24.448L75.3314 24.688C75.3314 25.712 75.5394 26.368 75.9554 26.656L78.1154 27.232C78.2434 27.296 78.3074 27.36 78.3074 27.424L78.3554 27.616L78.1154 28L77.4914 28.048L73.5554 27.856L69.5714 28.048L68.9954 28L68.8034 27.856L68.7074 27.664L68.8514 27.424L68.9954 27.232L71.1074 26.608C71.5234 26.352 71.7314 25.632 71.7314 24.448V13.456C71.7314 12.304 71.5394 11.584 71.1554 11.296C70.8674 11.232 70.5634 11.168 70.2434 11.104C69.9234 11.008 69.5074 10.848 68.9954 10.624L68.8034 10.48L68.7074 10.24L68.9954 9.904L69.5714 9.856L73.5554 10.048L77.4914 9.856L78.1154 9.904C78.2434 9.968 78.3074 10.032 78.3074 10.096L78.3554 10.24L78.1154 10.624L76.0034 11.248C75.5554 11.504 75.3314 12.176 75.3314 13.264L75.3794 13.456V18.16H84.4994V13.264C84.4994 12.24 84.2914 11.584 83.8754 11.296C83.3314 11.168 82.9474 11.072 82.7234 11.008C82.4994 10.944 82.1794 10.816 81.7634 10.624L81.5234 10.48L81.4754 10.24L81.7634 9.904L82.3394 9.856L86.2754 10.048L90.2594 9.856L90.8834 9.904L91.0754 10.24L90.8354 10.624L88.7234 11.296C88.3074 11.552 88.0994 12.272 88.0994 13.456V24.448C88.0994 25.632 88.2914 26.352 88.6754 26.608L90.8354 27.232L90.9794 27.424L91.0754 27.664C91.0434 27.76 91.0114 27.84 90.9794 27.904C90.9474 27.936 90.9154 27.968 90.8834 28L90.2594 28.048L86.2754 27.856L82.3394 28.048L81.7634 28L81.5234 27.856L81.4754 27.616L81.5714 27.424C81.6354 27.296 81.6994 27.232 81.7634 27.232L83.8274 26.656C84.2754 26.4 84.4994 25.744 84.4994 24.688V19.312ZM104.739 25.696C102.691 27.552 100.371 28.48 97.7792 28.48H97.5872C96.4672 28.48 95.5232 28.208 94.7552 27.664C93.9872 27.12 93.5552 26.304 93.4592 25.216L93.4112 24.736C93.4112 23.552 93.8752 22.496 94.8032 21.568C95.5392 20.8 96.5472 20.128 97.8272 19.552C100.163 18.496 102.499 17.536 104.835 16.672L104.883 14.272L104.739 12.496C104.707 12.048 104.531 11.648 104.211 11.296C103.891 10.944 103.427 10.672 102.819 10.48C102.211 10.288 101.571 10.192 100.899 10.192L100.083 10.24C98.5472 10.432 97.6192 11.12 97.2992 12.304C97.0752 13.424 96.6752 14.08 96.0992 14.272L95.4752 14.368C95.0592 14.368 94.7232 14.24 94.4672 13.984C94.3072 13.728 94.1952 13.376 94.1312 12.928C94.1312 12.192 94.4512 11.552 95.0912 11.008C95.7632 10.464 96.6272 10.048 97.6832 9.76C98.7712 9.472 99.8432 9.328 100.899 9.328C101.379 9.328 101.859 9.328 102.339 9.328C102.787 9.424 103.267 9.504 103.779 9.568C104.291 9.632 104.883 9.776 105.555 10C107.411 10.672 108.339 12.048 108.339 14.128V24.592C108.339 25.2 108.451 25.744 108.675 26.224C108.931 26.672 109.283 26.896 109.731 26.896L110.595 26.56L110.979 26.32L111.507 26.128C111.603 26.16 111.667 26.208 111.699 26.272C111.731 26.336 111.763 26.384 111.795 26.416C111.795 26.96 111.443 27.44 110.739 27.856C110.067 28.272 109.283 28.48 108.387 28.48C107.523 28.48 106.755 28.272 106.083 27.856C105.411 27.408 104.963 26.688 104.739 25.696ZM104.835 23.344V17.584C103.203 18.192 101.955 18.736 101.091 19.216C99.6512 19.984 98.5952 20.848 97.9232 21.808C97.4752 22.512 97.2512 23.248 97.2512 24.016C97.2512 25.168 97.6512 26 98.4512 26.512C98.8992 26.8 99.4272 26.944 100.035 26.944C101.155 26.944 102.227 26.576 103.251 25.84C104.307 25.104 104.835 24.272 104.835 23.344ZM129.972 15.04L120.852 24.112V24.448L120.804 24.688C120.804 25.712 121.012 26.368 121.428 26.656L123.588 27.232C123.716 27.296 123.78 27.36 123.78 27.424L123.828 27.616L123.588 28L122.964 28.048L119.028 27.856L115.044 28.048L114.468 28L114.276 27.856L114.18 27.664L114.324 27.424L114.468 27.232L116.58 26.608C116.996 26.352 117.204 25.632 117.204 24.448V13.456C117.204 12.304 117.012 11.584 116.628 11.296C116.34 11.232 116.036 11.168 115.716 11.104C115.396 11.008 114.98 10.848 114.468 10.624L114.276 10.48L114.18 10.24L114.468 9.904L115.044 9.856L119.028 10.048L122.964 9.856L123.588 9.904C123.716 9.968 123.78 10.032 123.78 10.096L123.828 10.24L123.588 10.624L121.476 11.248C121.028 11.504 120.804 12.176 120.804 13.264L120.852 13.456V22.912L129.972 13.84V13.264C129.972 12.24 129.764 11.584 129.348 11.296C128.804 11.168 128.42 11.072 128.196 11.008C127.972 10.944 127.652 10.816 127.236 10.624L126.996 10.48L126.948 10.24L127.236 9.904L127.812 9.856L131.748 10.048L135.732 9.856L136.356 9.904L136.548 10.24L136.308 10.624L134.196 11.296C133.78 11.552 133.572 12.272 133.572 13.456V24.448C133.572 25.632 133.764 26.352 134.148 26.608L136.308 27.232L136.452 27.424L136.548 27.664C136.516 27.76 136.484 27.84 136.452 27.904C136.42 27.936 136.388 27.968 136.356 28L135.732 28.048L131.748 27.856L127.812 28.048L127.236 28L126.996 27.856L126.948 27.616L127.044 27.424C127.108 27.296 127.172 27.232 127.236 27.232L129.3 26.656C129.748 26.4 129.972 25.744 129.972 24.688V15.04ZM125.268 5.632C126.068 5.632 126.724 5.264 127.236 4.528C127.524 4.112 127.732 3.552 127.86 2.848C127.988 2.144 128.388 1.792 129.06 1.792C129.508 1.792 129.732 2.208 129.732 3.04C129.732 3.872 129.284 4.688 128.388 5.488C127.524 6.256 126.468 6.64 125.22 6.64C124.004 6.64 122.964 6.256 122.1 5.488C121.268 4.72 120.852 3.904 120.852 3.04C120.852 2.272 121.092 1.856 121.572 1.792C122.148 1.792 122.484 2.112 122.58 2.752C122.708 3.36 122.98 4 123.396 4.672C123.844 5.312 124.468 5.632 125.268 5.632ZM141.236 9.808H156.212C156.82 9.808 157.172 10.016 157.268 10.432L157.412 11.776C157.412 12.416 157.444 12.912 157.508 13.264V13.6C157.508 13.888 157.412 14.064 157.22 14.128C156.964 14.128 156.756 13.936 156.596 13.552L156.356 12.736C156.132 12.096 155.652 11.6 154.916 11.248C154.212 10.896 153.284 10.72 152.132 10.72C151.588 10.72 151.188 10.896 150.932 11.248C150.676 11.568 150.548 12.304 150.548 13.456V24.448C150.548 25.6 150.74 26.32 151.124 26.608L153.236 27.232C153.364 27.328 153.428 27.408 153.428 27.472L153.524 27.664L153.284 28L152.66 28.048L148.724 27.856L144.74 28.048L144.116 28L143.924 27.856L143.876 27.664L143.972 27.424C144.036 27.296 144.1 27.232 144.164 27.232L146.276 26.608C146.692 26.352 146.9 25.632 146.9 24.448V13.456C146.9 12.368 146.756 11.648 146.468 11.296C146.212 10.912 145.812 10.72 145.268 10.72C144.276 10.72 143.556 10.8 143.108 10.96C142.116 11.248 141.428 11.84 141.044 12.736L140.804 13.648C140.708 13.936 140.532 14.096 140.276 14.128C139.988 14.128 139.844 13.952 139.844 13.6L139.892 13.264L140.084 10.864C140.18 10.16 140.564 9.808 141.236 9.808ZM164.44 16.672L164.296 18.64C164.296 21.136 164.984 23.184 166.36 24.784C167.608 26.288 169.16 27.04 171.016 27.04C172.616 27.04 174.056 26.448 175.336 25.264L175.768 24.736C175.928 24.512 176.152 24.384 176.44 24.352L176.68 24.4C176.776 24.464 176.856 24.608 176.92 24.832C176.92 25.056 176.76 25.376 176.44 25.792C176.12 26.176 175.736 26.56 175.288 26.944C174.616 27.424 173.784 27.808 172.792 28.096C171.8 28.416 170.792 28.576 169.768 28.576C167.432 28.576 165.384 27.936 163.624 26.656C162.504 25.792 161.64 24.736 161.032 23.488C160.456 22.208 160.168 20.864 160.168 19.456C160.168 16.352 161.304 13.76 163.576 11.68C164.408 10.88 165.352 10.304 166.408 9.952C167.464 9.568 168.632 9.376 169.912 9.376C171.672 9.376 173.24 9.808 174.616 10.672C175.992 11.536 176.936 12.816 177.448 14.512L177.592 15.376L177.688 15.856C177.688 16.4 177.32 16.672 176.584 16.672H164.44ZM164.68 15.472H173.128C173.608 15.472 173.848 15.152 173.848 14.512C173.848 13.968 173.704 13.344 173.416 12.64C173.128 11.936 172.84 11.44 172.552 11.152C171.784 10.544 170.872 10.24 169.816 10.24C168.792 10.24 167.928 10.464 167.224 10.912C166.52 11.328 165.96 11.92 165.544 12.688C165.16 13.424 164.872 14.352 164.68 15.472ZM43.4307 58.968C43.4307 58.2 43.4147 57.64 43.3827 57.288C43.3507 56.904 43.2387 56.392 43.0467 55.752C42.8227 54.76 42.3907 53.88 41.7507 53.112C40.6947 51.8 39.2867 51.144 37.5267 51.144L36.3267 51.24C34.7267 51.688 33.5267 52.824 32.7267 54.648C32.0547 56.152 31.7187 57.944 31.7187 60.024L31.8627 61.848L32.0547 63.288C32.3747 64.888 33.0147 66.216 33.9747 67.272C34.9667 68.264 36.1347 68.76 37.4787 68.76L38.3427 68.664L39.3987 68.424C40.8387 67.944 41.9107 66.856 42.6147 65.16C43.1587 63.784 43.4307 62.136 43.4307 60.216V58.968ZM27.7347 60.216C27.7347 54.68 28.4387 50.648 29.8467 48.12C31.4787 45.048 34.4227 43.208 38.6787 42.6C42.0067 42.216 44.0867 41.544 44.9187 40.584H45.6387C45.1267 43.304 42.9027 44.952 38.9667 45.528C35.0307 46.072 32.3107 47.192 30.8067 48.888C29.5587 50.328 28.9347 52.984 28.9347 56.856C29.8947 54.872 31.0467 53.32 32.3907 52.2C33.9267 50.952 35.7507 50.328 37.8627 50.328C40.3907 50.328 42.6147 51.256 44.5347 53.112C46.4867 54.936 47.4627 57.16 47.4627 59.784C47.4627 62.472 46.4867 64.776 44.5347 66.696C43.5747 67.624 42.5187 68.328 41.3667 68.808C40.2147 69.288 38.9347 69.528 37.5267 69.528C36.1187 69.528 34.8547 69.32 33.7347 68.904C32.6467 68.488 31.5907 67.8 30.5667 66.84C28.6787 65.016 27.7347 62.808 27.7347 60.216ZM59.9427 50.328C62.4707 50.328 64.6947 51.256 66.6147 53.112C68.5667 54.936 69.5427 57.16 69.5427 59.784C69.5427 62.472 68.5667 64.776 66.6147 66.696C64.6627 68.584 62.3427 69.528 59.6547 69.528C56.9027 69.528 54.5667 68.632 52.6467 66.84C50.7587 65.016 49.8147 62.744 49.8147 60.024C49.8147 57.24 50.8067 54.936 52.7907 53.112C54.7747 51.256 57.1587 50.328 59.9427 50.328ZM58.4067 51.24C56.8067 51.688 55.6067 52.824 54.8067 54.648C54.1347 56.152 53.7987 57.944 53.7987 60.024L53.9427 61.848L54.1347 63.288C54.4547 64.888 55.0947 66.216 56.0547 67.272C57.0467 68.264 58.2147 68.76 59.5587 68.76L60.4227 68.664L61.4787 68.424C62.9187 67.944 63.9907 66.856 64.6947 65.16C65.2387 63.784 65.5107 62.136 65.5107 60.216V58.968C65.5107 58.2 65.4947 57.64 65.4627 57.288C65.4307 56.904 65.3187 56.392 65.1267 55.752C64.9027 54.76 64.4707 53.88 63.8307 53.112C62.7747 51.8 61.3667 51.144 59.6067 51.144L58.4067 51.24ZM77.0307 65.544C77.8947 64.392 78.5827 62.952 79.0947 61.224C79.6067 59.464 79.8627 57.224 79.8627 54.504V54.264C79.8627 53.176 79.5107 52.52 78.8067 52.296L76.8387 51.672L76.6467 51.528L76.5987 51.336L76.7427 51.096L76.8867 50.904L77.7987 50.856L80.9667 50.952H87.3987L91.6707 50.856L92.9187 50.904L93.1107 51.24L92.8707 51.624L90.7587 52.296C90.3427 52.552 90.1347 53.272 90.1347 54.456V65.448C90.1347 66.632 90.3267 67.352 90.7107 67.608L92.8707 68.232L93.0147 68.424L93.1107 68.664C93.0787 68.76 93.0467 68.84 93.0147 68.904C92.9827 68.936 92.9507 68.968 92.9187 69L92.2947 69.048L88.3107 68.856L84.3747 69.048L83.7987 69L83.5587 68.616L83.7987 68.232L85.8627 67.656C86.3107 67.4 86.5347 66.744 86.5347 65.688V54.456C86.5347 53.24 86.4547 52.504 86.2947 52.248C86.1987 51.96 85.9107 51.816 85.4307 51.816H82.5027C81.8947 51.816 81.4467 51.976 81.1587 52.296C80.9027 52.616 80.7747 53.336 80.7747 54.456C80.7747 57.4 80.4387 60.056 79.7667 62.424C79.4147 63.736 78.7907 65.208 77.8947 66.84C77.4467 67.64 76.8867 68.28 76.2147 68.76C75.5427 69.208 74.8067 69.432 74.0067 69.432C73.3347 69.432 72.8547 69.272 72.5667 68.952C72.2787 68.6 72.1027 68.152 72.0387 67.608C72.0387 67.192 72.2147 66.808 72.5667 66.456C72.9187 66.104 73.3027 65.928 73.7187 65.928C74.0387 65.928 74.3907 65.992 74.7747 66.12L75.5907 66.312L76.3107 66.168C76.5347 66.072 76.7747 65.864 77.0307 65.544ZM105.366 68.28C106.934 68.28 108.198 67.896 109.158 67.128C110.15 66.36 110.646 65.352 110.646 64.104C110.646 62.632 109.926 61.464 108.486 60.6C107.334 59.928 105.942 59.592 104.31 59.592H103.35C102.966 59.592 102.662 59.656 102.438 59.784C102.246 59.88 102.118 60.12 102.054 60.504V65.88C102.054 66.744 102.31 67.368 102.822 67.752C103.43 68.104 104.278 68.28 105.366 68.28ZM98.4061 54.312L98.3581 53.064C98.2621 52.488 97.7981 52.088 96.9661 51.864L95.9101 51.624C95.6541 51.528 95.4941 51.384 95.4301 51.192L95.5741 50.904C95.6701 50.808 95.9421 50.744 96.3901 50.712L98.0221 50.856L99.3661 50.952L100.278 51L104.07 50.856L104.79 50.904C104.918 50.968 104.982 51.032 104.982 51.096L105.03 51.24L104.79 51.624L102.678 52.344C102.294 52.6 102.102 53.24 102.102 54.264V58.104C102.102 58.584 102.358 58.84 102.87 58.872L103.734 58.824H105.126C107.142 58.824 108.742 58.968 109.926 59.256C111.11 59.544 112.118 59.96 112.95 60.504C113.398 60.792 113.766 61.256 114.054 61.896C114.342 62.536 114.486 63.208 114.486 63.912C114.486 64.776 114.326 65.528 114.006 66.168C113.43 67.192 112.278 67.976 110.55 68.52C109.238 68.872 107.558 69.048 105.51 69.048L102.678 68.952L100.23 68.856L96.2461 69.048L95.6701 69L95.4781 68.856L95.3821 68.664L95.5261 68.424L95.6701 68.232L97.7821 67.608C98.1981 67.352 98.4061 66.632 98.4061 65.448V54.312ZM120.017 54.456C120.017 53.304 119.825 52.584 119.441 52.296C119.153 52.232 118.849 52.168 118.529 52.104C118.209 52.008 117.793 51.848 117.281 51.624L117.089 51.48L116.993 51.24L117.281 50.904L117.857 50.856L121.841 51.048L125.777 50.856L126.401 50.904C126.529 50.968 126.593 51.032 126.593 51.096L126.641 51.24L126.401 51.624L124.289 52.248C123.841 52.504 123.617 53.176 123.617 54.264L123.665 54.456V65.448C123.665 66.504 123.745 67.208 123.905 67.56C124.065 67.88 124.385 68.056 124.865 68.088H131.153C131.537 68.088 131.793 67.912 131.921 67.56C132.081 67.176 132.161 66.472 132.161 65.448V54.456C132.161 53.144 131.841 52.376 131.201 52.152L129.425 51.624L129.185 51.48L129.137 51.24L129.377 50.904L129.953 50.856L133.937 51.048L137.873 50.856L138.497 50.904C138.625 50.968 138.689 51.032 138.689 51.096L138.737 51.24L138.641 51.48L138.449 51.624L136.433 52.248C135.985 52.504 135.761 53.176 135.761 54.264V65.64C135.761 66.536 135.841 67.16 136.001 67.512C136.193 67.864 136.529 68.072 137.009 68.136L137.153 68.088H142.721C143.297 68.088 143.681 67.88 143.873 67.464C144.097 67.016 144.209 66.344 144.209 65.448V54.264C144.209 53.24 144.001 52.584 143.585 52.296C143.041 52.168 142.657 52.072 142.433 52.008C142.209 51.944 141.889 51.816 141.473 51.624L141.281 51.48L141.233 51.24L141.473 50.904L142.049 50.856L146.033 51.048L150.017 50.856L150.641 50.904L150.833 51.24L150.593 51.624L148.481 52.296C148.065 52.552 147.857 53.272 147.857 54.456V65.448C147.857 66.632 148.049 67.352 148.433 67.608L150.593 68.232C150.721 68.328 150.785 68.408 150.785 68.472L150.833 68.664L150.641 69L150.017 69.048L146.033 68.856L140.753 69L133.937 68.856L131.153 68.904C130.641 68.904 130.145 68.904 129.665 68.904C129.217 68.904 128.673 68.936 128.033 69L121.841 68.856L117.857 69.048L117.281 69L117.089 68.856L116.993 68.664L117.137 68.424L117.281 68.232L119.393 67.608C119.809 67.352 120.017 66.632 120.017 65.448V54.456ZM157.595 57.672L157.451 59.64C157.451 62.136 158.139 64.184 159.515 65.784C160.763 67.288 162.315 68.04 164.171 68.04C165.771 68.04 167.211 67.448 168.491 66.264L168.923 65.736C169.083 65.512 169.307 65.384 169.595 65.352L169.835 65.4C169.931 65.464 170.011 65.608 170.075 65.832C170.075 66.056 169.915 66.376 169.595 66.792C169.275 67.176 168.891 67.56 168.443 67.944C167.771 68.424 166.939 68.808 165.947 69.096C164.955 69.416 163.947 69.576 162.923 69.576C160.587 69.576 158.539 68.936 156.779 67.656C155.659 66.792 154.795 65.736 154.187 64.488C153.611 63.208 153.323 61.864 153.323 60.456C153.323 57.352 154.459 54.76 156.731 52.68C157.563 51.88 158.507 51.304 159.563 50.952C160.619 50.568 161.787 50.376 163.067 50.376C164.827 50.376 166.395 50.808 167.771 51.672C169.147 52.536 170.091 53.816 170.603 55.512L170.747 56.376L170.843 56.856C170.843 57.4 170.475 57.672 169.739 57.672H157.595ZM157.835 56.472H166.283C166.763 56.472 167.003 56.152 167.003 55.512C167.003 54.968 166.859 54.344 166.571 53.64C166.283 52.936 165.995 52.44 165.707 52.152C164.939 51.544 164.027 51.24 162.971 51.24C161.947 51.24 161.083 51.464 160.379 51.912C159.675 52.328 159.115 52.92 158.699 53.688C158.315 54.424 158.027 55.352 157.835 56.472Z" fill="white"></path> <path d="M6.05462 116.76L6.58262 116.808C8.15062 116.808 9.47862 115.736 10.5666 113.592C11.1746 112.376 11.7666 110.632 12.3426 108.36C12.5666 107.528 12.7586 106.648 12.9186 105.72C13.1106 104.792 13.2066 103.912 13.2066 103.08C13.2066 101.992 13.0466 101.112 12.7266 100.44C12.4066 99.736 11.8466 99.288 11.0466 99.096L10.4226 99.048C9.01462 99.048 7.71862 100.136 6.53462 102.312C5.79862 103.656 5.14262 105.352 4.56662 107.4C4.34262 108.232 4.13462 109.064 3.94262 109.896C3.65462 111.208 3.51062 112.264 3.51062 113.064C3.51062 114.056 3.70262 114.888 4.08662 115.56C4.47062 116.232 5.12662 116.632 6.05462 116.76ZM1.30262 107.64C1.87862 104.92 3.09462 102.664 4.95062 100.872C6.83862 99.08 8.80662 98.184 10.8546 98.184C12.3906 98.184 13.6706 98.856 14.6946 100.2C15.7186 101.544 16.2306 103.24 16.2306 105.288C16.2306 105.96 16.1506 106.776 15.9906 107.736C15.4146 110.392 14.1506 112.696 12.1986 114.648C10.2786 116.568 8.32662 117.528 6.34262 117.528C4.80662 117.528 3.52662 116.872 2.50262 115.56C1.47862 114.216 0.966622 112.52 0.966622 110.472C0.966622 109.896 0.982622 109.432 1.01462 109.08C1.04662 108.728 1.14262 108.248 1.30262 107.64ZM27.3535 111.528C26.6175 113.288 25.6735 114.68 24.5215 115.704C23.1775 116.888 21.6895 117.48 20.0575 117.48C19.3535 117.48 18.8255 117.432 18.4735 117.336C17.2895 117.112 16.4095 116.488 15.8335 115.464C15.2895 114.408 15.0175 113.192 15.0175 111.816C15.0175 110.024 15.3855 108.28 16.1215 106.584C16.8575 104.856 17.8655 103.256 19.1455 101.784C20.0415 100.792 20.9855 99.976 21.9775 99.336C23.2255 98.536 24.4095 98.136 25.5295 98.136L26.4895 98.232C27.0655 98.36 27.5775 98.6 28.0255 98.952C28.4735 99.304 28.7455 99.736 28.8415 100.248V100.68C28.8415 101.096 28.6975 101.496 28.4095 101.88C28.1535 102.232 27.8335 102.408 27.4495 102.408C27.0015 102.376 26.6495 102.232 26.3935 101.976C26.1375 101.72 26.0095 101.4 26.0095 101.016C26.0095 100.6 26.1695 100.232 26.4895 99.912L26.6335 99.576C26.6335 99.224 26.3135 99.048 25.6735 99.048C25.2255 99.048 24.7295 99.16 24.1855 99.384C23.6735 99.576 23.2415 99.864 22.8895 100.248C21.9615 101.304 20.9375 103.176 19.8175 105.864C18.5695 108.904 17.9455 111.384 17.9455 113.304C17.9455 114.392 18.2015 115.224 18.7135 115.8C19.2575 116.344 19.8975 116.616 20.6335 116.616C21.1455 116.616 21.6735 116.488 22.2175 116.232C22.7935 115.976 23.3055 115.656 23.7535 115.272C24.3295 114.76 24.8735 114.136 25.3855 113.4C25.8015 112.792 26.2335 112.056 26.6815 111.192L27.3535 111.528ZM33.5271 116.76L34.0551 116.808C35.6231 116.808 36.9511 115.736 38.0391 113.592C38.6471 112.376 39.2391 110.632 39.8151 108.36C40.0391 107.528 40.2311 106.648 40.3911 105.72C40.5831 104.792 40.6791 103.912 40.6791 103.08C40.6791 101.992 40.5191 101.112 40.1991 100.44C39.8791 99.736 39.3191 99.288 38.5191 99.096L37.8951 99.048C36.4871 99.048 35.1911 100.136 34.0071 102.312C33.2711 103.656 32.6151 105.352 32.0391 107.4C31.8151 108.232 31.6071 109.064 31.4151 109.896C31.1271 111.208 30.9831 112.264 30.9831 113.064C30.9831 114.056 31.1751 114.888 31.5591 115.56C31.9431 116.232 32.5991 116.632 33.5271 116.76ZM28.7751 107.64C29.3511 104.92 30.5671 102.664 32.4231 100.872C34.3111 99.08 36.2791 98.184 38.3271 98.184C39.8631 98.184 41.1431 98.856 42.1671 100.2C43.1911 101.544 43.7031 103.24 43.7031 105.288C43.7031 105.96 43.6231 106.776 43.4631 107.736C42.8871 110.392 41.6231 112.696 39.6711 114.648C37.7511 116.568 35.7991 117.528 33.8151 117.528C32.2791 117.528 30.9991 116.872 29.9751 115.56C28.9511 114.216 28.4391 112.52 28.4391 110.472C28.4391 109.896 28.4551 109.432 28.4871 109.08C28.5191 108.728 28.6151 108.248 28.7751 107.64ZM45.226 104.952C46.378 102.936 47.674 101.304 49.114 100.056C50.714 98.68 52.266 97.992 53.77 97.992C54.986 97.992 56.106 98.6 57.13 99.816C58.186 101.032 58.714 102.584 58.714 104.472C58.714 105.016 58.666 105.512 58.57 105.96C58.506 106.408 58.362 107 58.138 107.736C57.146 110.584 55.69 112.888 53.77 114.648C51.722 116.536 49.514 117.48 47.146 117.48C45.834 117.48 44.858 117 44.218 116.04C43.578 115.08 43.258 113.816 43.258 112.248C43.258 111.576 43.29 110.92 43.354 110.28C43.45 109.64 43.594 108.84 43.786 107.88C44.874 102.6 46.234 98.76 47.866 96.36C49.626 93.768 52.138 92.056 55.402 91.224C56.714 90.904 57.754 90.584 58.522 90.264C59.322 89.912 59.978 89.528 60.49 89.112L60.97 89.4C60.426 90.392 59.786 91.24 59.05 91.944C58.314 92.616 57.322 93.128 56.074 93.48C52.746 94.376 50.298 95.688 48.73 97.416C47.29 99.016 46.122 101.528 45.226 104.952ZM53.29 98.952C52.106 99.112 50.794 100.488 49.354 103.08C47.914 105.672 46.842 108.6 46.138 111.864C46.074 112.12 46.026 112.424 45.994 112.776C45.962 113.096 45.946 113.4 45.946 113.688C45.946 114.648 46.138 115.416 46.522 115.992C46.906 116.568 47.418 116.856 48.058 116.856C48.25 116.856 48.49 116.808 48.778 116.712C49.066 116.584 49.37 116.424 49.69 116.232C50.874 115.496 51.978 114.152 53.002 112.2C53.77 110.728 54.49 108.904 55.162 106.728C55.322 106.152 55.498 105.368 55.69 104.376C55.882 103.352 55.978 102.52 55.978 101.88C55.978 101.208 55.93 100.76 55.834 100.536C55.45 99.448 54.778 98.904 53.818 98.904L53.29 98.952ZM61.6165 108.984C64.5925 107.896 66.8485 106.072 68.3845 103.512C68.6405 103.096 68.8645 102.648 69.0565 102.168C69.2805 101.656 69.3925 101.16 69.3925 100.68C69.3925 100.104 69.2485 99.688 68.9605 99.432C68.7045 99.144 68.3685 99 67.9525 99C67.5685 99 67.1525 99.144 66.7045 99.432C66.2885 99.72 65.9205 100.04 65.6005 100.392C64.7045 101.352 63.8885 102.648 63.1525 104.28C62.4485 105.88 61.9365 107.448 61.6165 108.984ZM69.0085 111.48L69.7285 111.864C68.7365 113.496 67.6965 114.792 66.6085 115.752C65.1685 117 63.6965 117.624 62.1925 117.624C61.9685 117.624 61.6805 117.592 61.3285 117.528C61.0085 117.464 60.7205 117.4 60.4645 117.336C59.5365 117.048 58.8325 116.472 58.3525 115.608C57.8725 114.712 57.6325 113.72 57.6325 112.632V112.44C57.6325 110.776 57.9685 109.16 58.6405 107.592C59.3125 105.992 60.2245 104.472 61.3765 103.032C62.7525 101.208 64.0645 99.912 65.3125 99.144C66.3365 98.504 67.3925 98.184 68.4805 98.184C69.3445 98.184 70.0645 98.472 70.6405 99.048C71.2165 99.624 71.5045 100.344 71.5045 101.208C71.5045 103.288 70.2885 105.176 67.8565 106.872C66.1605 108.056 63.9845 109.096 61.3285 109.992C61.1365 110.728 60.9765 111.336 60.8485 111.816C60.6245 112.744 60.5125 113.496 60.5125 114.072C60.5125 114.712 60.6085 115.24 60.8005 115.656C61.0245 116.072 61.4085 116.344 61.9525 116.472L62.9125 116.616C64.0645 116.616 65.2485 116.008 66.4645 114.792C67.2005 114.056 68.0485 112.952 69.0085 111.48ZM77.1501 108.072C76.9261 108.808 76.5261 110.344 75.9501 112.68C75.4061 114.984 75.0381 116.424 74.8461 117H71.8701L74.1261 109.56C74.6061 107.8 75.0061 106.136 75.3261 104.568C75.6461 103 75.8061 101.848 75.8061 101.112C75.8061 100.28 75.6781 99.784 75.4221 99.624L74.8461 99.528C74.0781 99.528 73.1981 100.408 72.2061 102.168C71.9821 102.552 71.4701 103.656 70.6701 105.48L69.9501 105.24C70.6541 103.256 71.3261 101.752 71.9661 100.728C73.0861 99 74.3501 98.136 75.7581 98.136H76.2381C76.9741 98.232 77.5021 98.6 77.8221 99.24C78.1421 99.848 78.3021 100.616 78.3021 101.544C78.3021 102.408 78.1581 103.496 77.8701 104.808C77.6141 106.12 77.4541 106.936 77.3901 107.256H84.3981L86.6541 98.664H89.5821L87.3741 106.248C86.9901 107.304 86.5901 108.792 86.1741 110.712C85.7901 112.6 85.5981 113.928 85.5981 114.696C85.5981 115.432 85.7421 115.912 86.0301 116.136L86.5581 116.28C87.3581 116.28 88.2541 115.4 89.2461 113.64C89.5341 113.16 90.0621 112.04 90.8301 110.28L91.5021 110.568C90.7981 112.552 90.0941 114.056 89.3901 115.08C88.2381 116.744 86.9101 117.576 85.4061 117.576H85.2141C84.4781 117.576 83.9341 117.272 83.5821 116.664C83.2621 116.024 83.1021 115.224 83.1021 114.264C83.1021 113.24 83.2461 112.04 83.5341 110.664C83.7261 109.8 83.9341 108.936 84.1581 108.072H77.1501ZM97.1676 108.072C96.9436 108.808 96.5436 110.344 95.9676 112.68C95.4236 114.984 95.0556 116.424 94.8636 117H91.8876L94.1436 109.56C94.6236 107.8 95.0236 106.136 95.3436 104.568C95.6636 103 95.8236 101.848 95.8236 101.112C95.8236 100.28 95.6956 99.784 95.4396 99.624L94.8636 99.528C94.0956 99.528 93.2156 100.408 92.2236 102.168C91.9996 102.552 91.4876 103.656 90.6876 105.48L89.9676 105.24C90.6716 103.256 91.3436 101.752 91.9836 100.728C93.1036 99 94.3676 98.136 95.7756 98.136H96.2556C96.9916 98.232 97.5196 98.6 97.8396 99.24C98.1596 99.848 98.3196 100.616 98.3196 101.544C98.3196 102.408 98.1756 103.496 97.8876 104.808C97.6316 106.12 97.4716 106.936 97.4076 107.256H104.416L106.672 98.664H109.6L107.392 106.248C107.008 107.304 106.608 108.792 106.192 110.712C105.808 112.6 105.616 113.928 105.616 114.696C105.616 115.432 105.76 115.912 106.048 116.136L106.576 116.28C107.376 116.28 108.272 115.4 109.264 113.64C109.552 113.16 110.08 112.04 110.848 110.28L111.52 110.568C110.816 112.552 110.112 114.056 109.408 115.08C108.256 116.744 106.928 117.576 105.424 117.576H105.232C104.496 117.576 103.952 117.272 103.6 116.664C103.28 116.024 103.12 115.224 103.12 114.264C103.12 113.24 103.264 112.04 103.552 110.664C103.744 109.8 103.952 108.936 104.176 108.072H97.1676ZM116.177 116.76L116.705 116.808C118.273 116.808 119.601 115.736 120.689 113.592C121.297 112.376 121.889 110.632 122.465 108.36C122.689 107.528 122.881 106.648 123.041 105.72C123.233 104.792 123.329 103.912 123.329 103.08C123.329 101.992 123.169 101.112 122.849 100.44C122.529 99.736 121.969 99.288 121.169 99.096L120.545 99.048C119.137 99.048 117.841 100.136 116.657 102.312C115.921 103.656 115.265 105.352 114.689 107.4C114.465 108.232 114.257 109.064 114.065 109.896C113.777 111.208 113.633 112.264 113.633 113.064C113.633 114.056 113.825 114.888 114.209 115.56C114.593 116.232 115.249 116.632 116.177 116.76ZM111.425 107.64C112.001 104.92 113.217 102.664 115.073 100.872C116.961 99.08 118.929 98.184 120.977 98.184C122.513 98.184 123.793 98.856 124.817 100.2C125.841 101.544 126.353 103.24 126.353 105.288C126.353 105.96 126.273 106.776 126.113 107.736C125.537 110.392 124.273 112.696 122.321 114.648C120.401 116.568 118.449 117.528 116.465 117.528C114.929 117.528 113.649 116.872 112.625 115.56C111.601 114.216 111.089 112.52 111.089 110.472C111.089 109.896 111.105 109.432 111.137 109.08C111.169 108.728 111.265 108.248 111.425 107.64ZM137.476 111.528C136.74 113.288 135.796 114.68 134.644 115.704C133.3 116.888 131.812 117.48 130.18 117.48C129.476 117.48 128.948 117.432 128.596 117.336C127.412 117.112 126.532 116.488 125.956 115.464C125.412 114.408 125.14 113.192 125.14 111.816C125.14 110.024 125.508 108.28 126.244 106.584C126.98 104.856 127.988 103.256 129.268 101.784C130.164 100.792 131.108 99.976 132.1 99.336C133.348 98.536 134.532 98.136 135.652 98.136L136.612 98.232C137.188 98.36 137.7 98.6 138.148 98.952C138.596 99.304 138.868 99.736 138.964 100.248V100.68C138.964 101.096 138.82 101.496 138.532 101.88C138.276 102.232 137.956 102.408 137.572 102.408C137.124 102.376 136.772 102.232 136.516 101.976C136.26 101.72 136.132 101.4 136.132 101.016C136.132 100.6 136.292 100.232 136.612 99.912L136.756 99.576C136.756 99.224 136.436 99.048 135.796 99.048C135.348 99.048 134.852 99.16 134.308 99.384C133.796 99.576 133.364 99.864 133.012 100.248C132.084 101.304 131.06 103.176 129.94 105.864C128.692 108.904 128.068 111.384 128.068 113.304C128.068 114.392 128.324 115.224 128.836 115.8C129.38 116.344 130.02 116.616 130.756 116.616C131.268 116.616 131.796 116.488 132.34 116.232C132.916 115.976 133.428 115.656 133.876 115.272C134.452 114.76 134.996 114.136 135.508 113.4C135.924 112.792 136.356 112.056 136.804 111.192L137.476 111.528ZM142.066 117H139.282L141.586 108.84C141.97 107.336 142.37 105.816 142.786 104.28C143.106 102.84 143.266 101.736 143.266 100.968C143.266 100.296 143.154 99.864 142.93 99.672C142.802 99.608 142.61 99.576 142.354 99.576C141.618 99.576 140.77 100.44 139.81 102.168C139.714 102.328 139.202 103.4 138.274 105.384L137.602 105.048C138.274 103.16 138.914 101.736 139.522 100.776C140.61 99.08 141.842 98.232 143.218 98.232L143.746 98.28C144.418 98.376 144.898 98.728 145.186 99.336C145.506 99.912 145.666 100.632 145.666 101.496C145.666 102.296 145.57 103.192 145.378 104.184C145.186 105.144 145.058 105.768 144.994 106.056C146.114 103.784 147.058 102.136 147.826 101.112C149.33 99.128 150.85 98.136 152.386 98.136H152.818C153.554 98.264 154.066 98.584 154.354 99.096C154.674 99.608 154.834 100.264 154.834 101.064C154.834 101.576 154.77 102.168 154.642 102.84C154.514 103.48 154.29 104.344 153.97 105.432C155.122 103.384 156.05 101.912 156.754 101.016C158.226 99.128 159.634 98.184 160.978 98.184L161.938 98.328C162.61 98.52 163.074 98.872 163.33 99.384C163.618 99.896 163.762 100.552 163.762 101.352C163.762 102.056 163.634 102.952 163.378 104.04C163.25 104.52 163.042 105.256 162.754 106.248L160.258 113.976C160.194 114.168 160.146 114.312 160.114 114.408C159.986 114.824 159.922 115.144 159.922 115.368C159.922 115.976 160.194 116.28 160.738 116.28L161.026 116.232C161.794 116.104 162.642 115.288 163.57 113.784C163.73 113.528 164.306 112.44 165.298 110.52L165.922 110.808C165.314 112.504 164.626 113.88 163.858 114.936C162.77 116.44 161.57 117.272 160.258 117.432H159.826C158.962 117.432 158.338 117.176 157.954 116.664C157.602 116.152 157.426 115.48 157.426 114.648C157.426 114.168 157.474 113.688 157.57 113.208C157.698 112.696 157.858 112.168 158.05 111.624L160.45 104.568C160.642 103.864 160.834 103.16 161.026 102.456C161.25 101.72 161.362 101.176 161.362 100.824C161.362 100.504 161.33 100.264 161.266 100.104C161.106 99.688 160.802 99.48 160.354 99.48H160.018C159.442 99.576 158.834 99.928 158.194 100.536C157.714 100.984 157.25 101.56 156.802 102.264C155.938 103.544 155.17 104.808 154.498 106.056C153.858 107.304 153.33 108.6 152.914 109.944L150.706 117H147.922L151.522 104.808C151.714 104.072 151.922 103.336 152.146 102.6C152.338 101.8 152.434 101.208 152.434 100.824C152.434 100.376 152.354 100.024 152.194 99.768C152.066 99.512 151.81 99.384 151.426 99.384H151.234C149.986 99.544 148.61 100.984 147.106 103.704C146.082 105.56 145.234 107.528 144.562 109.608L142.066 117ZM168.69 108.984C171.666 107.896 173.922 106.072 175.458 103.512C175.714 103.096 175.938 102.648 176.13 102.168C176.354 101.656 176.466 101.16 176.466 100.68C176.466 100.104 176.322 99.688 176.034 99.432C175.778 99.144 175.442 99 175.026 99C174.642 99 174.226 99.144 173.778 99.432C173.362 99.72 172.994 100.04 172.674 100.392C171.778 101.352 170.962 102.648 170.226 104.28C169.522 105.88 169.01 107.448 168.69 108.984ZM176.082 111.48L176.802 111.864C175.81 113.496 174.77 114.792 173.682 115.752C172.242 117 170.77 117.624 169.266 117.624C169.042 117.624 168.754 117.592 168.402 117.528C168.082 117.464 167.794 117.4 167.538 117.336C166.61 117.048 165.906 116.472 165.426 115.608C164.946 114.712 164.706 113.72 164.706 112.632V112.44C164.706 110.776 165.042 109.16 165.714 107.592C166.386 105.992 167.298 104.472 168.45 103.032C169.826 101.208 171.138 99.912 172.386 99.144C173.41 98.504 174.466 98.184 175.554 98.184C176.418 98.184 177.138 98.472 177.714 99.048C178.29 99.624 178.578 100.344 178.578 101.208C178.578 103.288 177.362 105.176 174.93 106.872C173.234 108.056 171.058 109.096 168.402 109.992C168.21 110.728 168.05 111.336 167.922 111.816C167.698 112.744 167.586 113.496 167.586 114.072C167.586 114.712 167.682 115.24 167.874 115.656C168.098 116.072 168.482 116.344 169.026 116.472L169.986 116.616C171.138 116.616 172.322 116.008 173.538 114.792C174.274 114.056 175.122 112.952 176.082 111.48ZM193.728 98.664H196.656L194.448 106.248C194.064 107.304 193.664 108.792 193.248 110.712C192.864 112.6 192.672 113.928 192.672 114.696C192.672 115.432 192.816 115.912 193.104 116.136L193.632 116.28C194.432 116.28 195.328 115.4 196.32 113.64C196.608 113.16 197.136 112.04 197.904 110.28L198.576 110.568C197.84 112.648 197.152 114.152 196.512 115.08C195.392 116.744 194.064 117.576 192.528 117.576H192.288C191.52 117.576 190.96 117.272 190.608 116.664C190.288 116.056 190.128 115.288 190.128 114.36C190.128 113.656 190.24 112.728 190.464 111.576C190.72 110.424 190.88 109.704 190.944 109.416C189.824 111.592 188.784 113.272 187.824 114.456C186.192 116.472 184.592 117.48 183.024 117.48C181.872 117.48 181.04 117.128 180.528 116.424C180.016 115.688 179.76 114.776 179.76 113.688C179.76 113.176 179.808 112.664 179.904 112.152C180 111.64 180.128 111.112 180.288 110.568L183.024 101.928C183.056 101.768 183.12 101.528 183.216 101.208C183.312 100.856 183.36 100.52 183.36 100.2C183.36 99.528 183.104 99.192 182.592 99.192C181.696 99.192 180.736 99.976 179.712 101.544C179.424 101.96 178.832 103.08 177.936 104.904L177.312 104.52C178.176 102.536 178.896 101.16 179.472 100.392C180.56 98.888 181.808 98.136 183.216 98.136H183.84C184.608 98.232 185.152 98.536 185.472 99.048C185.824 99.56 186 100.2 186 100.968C186 101.576 185.888 102.296 185.664 103.128C185.44 103.928 185.28 104.488 185.184 104.808L182.928 111.528C182.768 112.136 182.608 112.744 182.448 113.352C182.32 113.928 182.256 114.408 182.256 114.792C182.256 115.336 182.336 115.752 182.496 116.04C182.688 116.328 183.024 116.472 183.504 116.472L183.792 116.424C184.784 116.328 185.76 115.736 186.72 114.648C187.136 114.168 187.84 113.128 188.832 111.528C189.824 109.928 190.768 107.752 191.664 105C192.56 102.248 193.248 100.136 193.728 98.664ZM186.336 94.344L186.24 93.864C186.24 93.448 186.336 93.096 186.528 92.808C186.752 92.52 187.104 92.344 187.584 92.28L187.92 92.232C188.336 92.232 188.688 92.36 188.976 92.616C189.264 92.872 189.408 93.16 189.408 93.48L189.36 94.056C189.36 94.536 189.504 94.92 189.792 95.208C190.112 95.464 190.528 95.592 191.04 95.592C192 95.592 192.928 95.176 193.824 94.344C194.848 93.384 195.44 92.152 195.6 90.648H196.416C196.16 92.536 195.328 94.056 193.92 95.208C192.704 96.232 191.344 96.744 189.84 96.744C188.976 96.744 188.224 96.552 187.584 96.168C186.976 95.752 186.56 95.144 186.336 94.344Z" fill="#AB9173"></path> </svg> 