<?xml version="1.0" encoding="UTF-8"?> <svg xmlns="http://www.w3.org/2000/svg" width="80" height="80" viewBox="0 0 80 80" fill="none"> <circle cx="40" cy="40" r="39.5" stroke="#AB9173"></circle> <path fill-rule="evenodd" clip-rule="evenodd" d="M37.7175 29.6596C37.4297 29.2418 37.3578 29.033 36.7821 29.033C36.1346 28.9633 34.5516 28.9633 33.7601 29.4507C25.1978 34.742 38.509 55.2808 47.1433 50.1983C47.9347 49.7806 48.6543 48.3185 48.9421 47.7615C49.086 47.2742 48.9421 47.0653 48.7262 46.7172C47.7908 45.6728 46.4957 44.6981 45.2006 43.9323C44.553 43.5841 44.0493 43.8626 43.6176 44.2804C43.1139 44.6981 41.8908 46.0209 41.2432 45.7424C38.7249 44.6981 35.1992 39.1979 35.3431 36.5522C35.3431 35.9256 37.0699 35.3686 37.7175 35.1598C38.2931 34.8813 38.7968 34.6028 38.7249 33.9066C38.5809 32.4445 38.2931 30.9128 37.7175 29.6596Z" fill="#AB9173"></path> </svg> 