<?xml version="1.0" encoding="UTF-8"?> <svg xmlns="http://www.w3.org/2000/svg" viewBox="0 0 320 64"> <defs> <style>.cls-1{fill:#fff;}.cls-2{fill:#052920;}.cls-3,.cls-5{fill:none;}.cls-3{stroke:#ab9173;}.cls-4{fill:#816546;fill-rule:evenodd;}.cls-5{stroke:#af9578;}</style> </defs> <g id="Слой_2" data-name="Слой 2"> <g id="Слой_1-2" data-name="Слой 1"> <path class="cls-1" d="M32,.5H288A31.5,31.5,0,0,1,319.5,32h0A31.5,31.5,0,0,1,288,63.5H32A31.5,31.5,0,0,1,.5,32h0A31.5,31.5,0,0,1,32,.5Z"></path> <path class="cls-2" d="M38.42,26.83008a8.58608,8.58608,0,0,1,2.84.45l-.32007,1.33008A7.407,7.407,0,0,0,38.62,28.26a2.93271,2.93271,0,0,0-2.49,1.1001A5.12369,5.12369,0,0,0,35.28,32.54a5.41033,5.41033,0,0,0,.75,3.10986,3.02761,3.02761,0,0,0,2.64,1.05,9.57724,9.57724,0,0,0,2.59-.35986l.31995,1.26a9.21234,9.21234,0,0,1-3.26.53979C35.02,38.13989,33.38,36.29,33.38,32.58008a9.70773,9.70773,0,0,1,.12-1.54A7.65459,7.65459,0,0,1,34,29.5a5.48365,5.48365,0,0,1,.91-1.36011A4.14,4.14,0,0,1,36.35,27.2,5.41733,5.41733,0,0,1,38.42,26.83008ZM46.5,38H44.71V27.04H46.5V31.49h1.67A1.86681,1.86681,0,0,0,50.07,29.86011l.72009-2.8h1.73l-.74,3.05A2.59885,2.59885,0,0,1,50.21,32.15991a2.41138,2.41138,0,0,1,1.88,2.02L53.08,38H51.29L50.34,34.56006a2.47154,2.47154,0,0,0-.7-1.31006,2.0288,2.0288,0,0,0-1.32995-.37012H46.5Zm17.89,0H62.52c-.11-.34009-.26-.83008-.46-1.47-.21008-.65015-.33008-1.06006-.39-1.23H57.5L56.65,38H54.82c.42-1.25,1.04-3.09009,1.8601-5.54Q57.925,28.785,58.5,27.02h2.29Zm-3.1-4-.77-2.59009c-.04-.13989-.34-1.13989-.88-2.99h-.06l-.85,2.92017c-.01.0498-.15.48-.4,1.2998-.25.82007-.39,1.27-.41993,1.36011ZM73.95,27.06006V38H72.16V33.31006a9.43854,9.43854,0,0,1-2.85.47,4.61654,4.61654,0,0,1-2.54-.64014,2.3037,2.3037,0,0,1-.96-2.03979v-4.04h1.84V30.7A1.60908,1.60908,0,0,0,68.14,32.02a2.45321,2.45321,0,0,0,1.47.37988,6.84037,6.84037,0,0,0,2.55-.46V27.06006ZM86.17,38h-1.87c-.11011-.34009-.26-.83008-.46008-1.47q-.315-.97522-.39-1.23H79.28l-.85,2.7H76.6c.42-1.25,1.04-3.09009,1.86-5.54Q79.70508,28.785,80.28,27.02H82.57ZM83.07,34l-.7699-2.59009c-.04-.13989-.34009-1.13989-.88-2.99H81.36l-.85,2.92017c-.01.0498-.15.48-.4,1.2998-.25.82007-.39,1.27-.42,1.36011ZM92.39,38h-1.8V28.37988h-3.5V27.02h8.8v1.35986H92.4Zm6.28,0V27.02H100.48v4.41992h2.47a3.82083,3.82083,0,0,1,2.70007.91016,3.09274,3.09274,0,0,1,.99,2.38989A3.06132,3.06132,0,0,1,105.7,37.1499,3.57515,3.57515,0,0,1,103.2,38Zm4-5.3H100.48v4.04h2.35a1.94148,1.94148,0,0,0,1.4-.52,1.96793,1.96793,0,0,0,.56006-1.5,1.81665,1.81665,0,0,0-.63-1.5A2.18474,2.18474,0,0,0,102.67,32.7ZM124.04,38H122.2V28.41992h-4.74L117.48,38h-1.84V27.02h8.4ZM135.23,30.29a3.39368,3.39368,0,0,1-.18994,1.12988A4.04691,4.04691,0,0,1,134.5,32.5a2.69584,2.69584,0,0,1-1.07.83008,4.0069,4.0069,0,0,1-1.60009.2998h-2.2L129.65,38h-1.84V27.02h3.86a3.71737,3.71737,0,0,1,2.62.86987A3.04011,3.04011,0,0,1,135.23,30.29Zm-3.77-1.95h-1.83v4h1.89a1.92976,1.92976,0,0,0,1.33-.47,1.9501,1.9501,0,0,0,.54-1.53,1.816,1.816,0,0,0-1.93-2ZM145.61,38h-7.33V27.02h7.09v1.32007H140.1v3.26H144.53v1.25H140.1v3.81982h5.51Zm6.52-11.1499a5.31277,5.31277,0,0,1,2.79.63989A2.21947,2.21947,0,0,1,155.97,29.55005,2.48387,2.48387,0,0,1,155.53,30.8999a3.00191,3.00191,0,0,1-1.22,1.02L154.34,32a2.75225,2.75225,0,0,1,1.39.99,2.54182,2.54182,0,0,1,.55,1.62012,2.95651,2.95651,0,0,1-1.27,2.56982,5.29327,5.29327,0,0,1-3.18.90015,8.80964,8.80964,0,0,1-3.67994-.66016l.4-1.21a10.11876,10.11876,0,0,0,2.98.49c1.91992,0,2.88-.71,2.88-2.11987A1.596,1.596,0,0,0,153.7,33.2a2.98822,2.98822,0,0,0-1.78992-.5h-1.36V31.5h1.26a2.47307,2.47307,0,0,0,1.63989-.54,1.60094,1.60094,0,0,0,.64-1.22c0-1.03-.76-1.55-2.26-1.55A7.12983,7.12983,0,0,0,149,28.77l-.39-1.18994A8.14871,8.14871,0,0,1,152.13,26.8501ZM166.92,38H159.59V27.02h7.09008v1.32007h-5.27v3.26H165.84v1.25H161.41v3.81982h5.51ZM178.6,38h-1.84V32.92993h-4.74v2.54c.01,1.13013.02,1.98.02,2.53H170.2V27.04H172.04c0,.5-.01,1.25-.02,2.26v2.25h4.74V27.04h1.84Zm8.09,0H184.89V28.37988h-3.5V27.02h8.79993v1.35986H186.7ZM200.66,38h-1.87c-.11-.34009-.27-.83008-.47009-1.47-.2-.65015-.33-1.06006-.38-1.23H193.76l-.85,2.7H191.09c.42-1.25,1.03-3.09009,1.86-5.54S194.39,28.2,194.77,27.02h2.29Zm-3.11-4-.76-2.59009c-.05-.13989-.34009-1.13989-.88-2.99H195.84l-.85,2.92017c-.01.0498-.14.48-.4,1.2998-.24.82007-.38,1.27-.40992,1.36011ZM211.6,40.72V38h-8.27V27.04h1.81V36.72h4.75V27.04h1.83V36.72h1.26v4Zm11.27-13.7,1.74.04V38h-1.76V29.76h-.04993q-1.18506,1.92-3.52,5.76c-.6,1.01-1.12,1.84009-1.53,2.48h-1.79V27.06006h1.79c0,.90991-.01,2.29-.02,4.11987v4.13013h.07007L219.35,32.78C221.49,29.29,222.67,27.37012,222.87,27.02Zm18.76,5.52a6.55575,6.55575,0,0,1-1.17,4.07007,4.12045,4.12045,0,0,1-3.47,1.51977A4.36617,4.36617,0,0,1,233.47,36.77a6.078,6.078,0,0,1-1.2-3.89014h-2.12V38h-1.79V27.02h1.79v4.63989h2.13a6.11358,6.11358,0,0,1,1.33-3.5,4.21351,4.21351,0,0,1,3.38-1.30981,5.052,5.052,0,0,1,2.22.44995,3.31487,3.31487,0,0,1,1.46008,1.28,5.76828,5.76828,0,0,1,.73,1.79A9.50162,9.50162,0,0,1,241.63,32.54Zm-1.89.04a10.73519,10.73519,0,0,0-.1-1.59009,5.6225,5.6225,0,0,0-.37-1.36011,2.10625,2.10625,0,0,0-.84-1.0498,2.53867,2.53867,0,0,0-1.44006-.39014,2.66117,2.66117,0,0,0-1.46.37012,2.21751,2.21751,0,0,0-.9,1.01,5.85493,5.85493,0,0,0-.41,1.36987,10.21076,10.21076,0,0,0-.11,1.65015,6.15659,6.15659,0,0,0,.65,3.18994,2.46029,2.46029,0,0,0,2.23,1.04,2.235,2.235,0,0,0,2.08-1.16016A6.196,6.196,0,0,0,239.74,32.58008Z"></path> <circle class="cls-3" cx="288" cy="32" r="31.5"></circle> <path class="cls-4" d="M298.5,32l-9-10,3.8,9.5H275v1h18.30005L289.5,42Z"></path> <path class="cls-5" d="M32,.5H288A31.5,31.5,0,0,1,319.5,32h0A31.5,31.5,0,0,1,288,63.5H32A31.5,31.5,0,0,1,.5,32h0A31.5,31.5,0,0,1,32,.5Z"></path> </g> </g> </svg> 