<?xml version="1.0" encoding="UTF-8"?> <svg xmlns="http://www.w3.org/2000/svg" viewBox="0 0 697.66017 908.40997"> <defs> <style>.cls-1{fill:#fff;}.cls-2,.cls-3{fill:#ab9173;}.cls-3{fill-rule:evenodd;}.cls-4,.cls-5{fill:none;stroke:#ab9173;}.cls-4{stroke-linecap:round;stroke-dasharray:0.1 3;opacity:0.7;isolation:isolate;}</style> </defs> <g id="Слой_2" data-name="Слой 2"> <g id="Слой_1-2" data-name="Слой 1"> <g id="Слой_2-2" data-name="Слой 2"> <g id="Слой_1-2-2" data-name="Слой 1-2"> <g id="Слой_2-2-2" data-name="Слой 2-2"> <g id="Слой_1-2-2-2" data-name="Слой 1-2-2"> <path class="cls-1" d="M127.6002,138.41h-1.16V125.69h-4.44v-1h10v1h-4.36Zm9.86-9.06q-2.62,0-2.92,3.6h5.56Q140.10019,129.35,137.46019,129.35Zm0-.84q3.73,0,3.74,4.66v.58h-6.66q0,3.9,3,3.9a7.42986,7.42986,0,0,0,3.1-.74l.3.76a7.27009,7.27009,0,0,1-3.44.88,5,5,0,0,1-2-.38,2.85,2.85,0,0,1-1.28-1.1,5.13982,5.13982,0,0,1-.62-1.56,9.52976,9.52976,0,0,1-.1-3.08,6.7395,6.7395,0,0,1,.34-1.32,4.26983,4.26983,0,0,1,.68-1.28,3.18006,3.18006,0,0,1,1.18-.94,3.87,3.87,0,0,1,1.74-.38Zm6.93,1.12.08.06a4.84009,4.84009,0,0,1,3.06-1.14c2.36,0,3.54,1.6,3.54,4.82a7.00007,7.00007,0,0,1-.92,3.78,3.23,3.23,0,0,1-2.9,1.4,5.25016,5.25016,0,0,1-2.84-.74v4.8h-1.1V128.67h1v.48a2.6892,2.6892,0,0,0,.06.48Zm0,1v6.2a4.35018,4.35018,0,0,0,1.22.56,5.32991,5.32991,0,0,0,1.48.24q2.82,0,2.82-4.34a4.87008,4.87008,0,0,0-.7-3,2.41,2.41,0,0,0-2-.88,3.89011,3.89011,0,0,0-1.5.36,4.4203,4.4203,0,0,0-1.32.9Zm9.92-1,.08.06a4.84009,4.84009,0,0,1,3.06-1.14c2.36,0,3.54,1.6,3.54,4.82a7,7,0,0,1-.92,3.78,3.23,3.23,0,0,1-2.9,1.4,5.25019,5.25019,0,0,1-2.84-.74v4.8h-1.1V128.67h1v.48a2.06046,2.06046,0,0,0,.08.48Zm0,1v6.2a4.34992,4.34992,0,0,0,1.22.56,5.3298,5.3298,0,0,0,1.48.24q2.82,0,2.82-4.34a4.87,4.87,0,0,0-.7-3,2.41,2.41,0,0,0-2-.88,3.89,3.89,0,0,0-1.5.36,4.33012,4.33012,0,0,0-1.3.9Zm12.74-1.32q-2.62,0-2.92,3.6h5.56q0-3.56-2.62-3.56Zm0-.84c2.49,0,3.73,1.55,3.74,4.66v.58h-6.66q0,3.9,3,3.9a7.42992,7.42992,0,0,0,3.1-.74l.3.76a7.2701,7.2701,0,0,1-3.44.88,5,5,0,0,1-2-.38,2.85,2.85,0,0,1-1.28-1.1,5.1401,5.1401,0,0,1-.62-1.56,9.53011,9.53011,0,0,1-.1-3.08,6.74023,6.74023,0,0,1,.34-1.32,4.2698,4.2698,0,0,1,.68-1.28,3.18,3.18,0,0,1,1.18-.94,4.00019,4.00019,0,0,1,1.76-.34Zm13.29,9.9h-1.12v-4.72h-5.22v4.72h-1.1v-9.74h1.1v4.1h5.2v-4.1h1.12Zm3.44,0h-1.08v-9.78h1.08v4.18h2.16a1.88,1.88,0,0,0,1.9-1.46c.35-1.06.65-2,.92-2.7h1c-.07.18-.21.64-.44,1.36s-.37,1.15-.44,1.34a2.79,2.79,0,0,1-1.38,1.86,1.81991,1.81991,0,0,1,1,.62,3.71,3.71,0,0,1,.62,1.2l1.08,3.38h-1.08l-.54-1.64c-.28-.86-.45-1.38-.52-1.58h0a2,2,0,0,0-2.06-1.56h-2.26Zm11.24-.76.84-2.7c.19-.59.51-1.64,1-3.14s.82-2.56,1-3.14h1.14q-3.62,11.1-3.86,11.78a4.08978,4.08978,0,0,1-.94,1.72,2,2,0,0,1-1.52.58,9.56993,9.56993,0,0,1-2-.3l.18-.84a9.61985,9.61985,0,0,0,1.6.22,1.6,1.6,0,0,0,1-.28,2.42,2.42,0,0,0,.66-1.16l.66-2h-.58c-.21-.71-.77-2.41-1.68-5.12l-1.5-4.58h1.1c.11.33.44,1.37,1,3.12s.89,2.81,1,3.2l.84,2.66Zm6.59-8,.08.06a4.84,4.84,0,0,1,3.06-1.14c2.36,0,3.54,1.6,3.54,4.82a6.76985,6.76985,0,0,1-.92,3.78,3.23,3.23,0,0,1-2.9,1.4,5.2501,5.2501,0,0,1-2.84-.74v4.8h-1.1V128.67h1v.48a2.06046,2.06046,0,0,0,.08.48Zm0,1v6.2a5.0005,5.0005,0,0,0,1.22.56,5.33028,5.33028,0,0,0,1.48.24q2.82,0,2.82-4.34a4.8,4.8,0,0,0-.7-3,2.37,2.37,0,0,0-2-.88,3.88993,3.88993,0,0,0-1.5.36,4.27007,4.27007,0,0,0-1.3.92Z"></path> <path class="cls-2" d="M500.92021,129.93l.49-.89a8.20008,8.20008,0,0,1,3.25-3.25,3.15,3.15,0,0,1,1.48-.53l1.64.11c.48,0,.84.25,2.25,2.06a6.41989,6.41989,0,0,0,1.48,1.37l1,.66a1,1,0,0,1-.85,1.81,1.1397,1.1397,0,0,1-.23-.15l-1-.66a8.00036,8.00036,0,0,1-1.88-1.7l-.79,3.78,1.54,1.5a4.48993,4.48993,0,0,1,1.26,2.24l.91,3.69a1.19,1.19,0,0,1-.87,1.44h-.3a1.17,1.17,0,0,1-1.15-.91l-.91-3.69a2.18,2.18,0,0,0-.62-1.08l-1.55-1.51-.15,1a6.27986,6.27986,0,0,1-.46,1.53l-1.86,3.94a1.21,1.21,0,0,1-1.09.68,1.25013,1.25013,0,0,1-.5-.11,1.22,1.22,0,0,1-.58-1.59l1.86-3.94a2.86061,2.86061,0,0,0,.26-.86l.53-3.54.38-3a6.30027,6.30027,0,0,0-1.3,1.61l-.49.89a1,1,0,0,1-.86.51,1.12035,1.12035,0,0,1-.47-.11,1,1,0,0,1-.42-1.33Z"></path> <path class="cls-2" d="M507.5002,120.42a2.18027,2.18027,0,1,1-.02628-.00289l.02628.00289h0"></path> <path class="cls-3" d="M621.28023,125.57a14.2801,14.2801,0,0,0,.34-2.16,1,1,0,0,0-1-1h-8a1,1,0,0,0-1,1,14.30585,14.30585,0,0,0,.35,2.16,12.318,12.318,0,0,0,1.08,3.07,6.6005,6.6005,0,0,0,1.62,2.05,3.74935,3.74935,0,0,0,.74.45.28.28,0,0,1,.18.27h0a.28.28,0,0,1-.18.26,4.35192,4.35192,0,0,0-.74.46,6.40986,6.40986,0,0,0-1.62,2,12.31931,12.31931,0,0,0-1.05005,3.07,14.43627,14.43627,0,0,0-.35,2.17,1,1,0,0,0,1,1h8a1,1,0,0,0,1-1,14.40938,14.40938,0,0,0-.34-2.17,12.33949,12.33949,0,0,0-1.09-3.07,6.27,6.27,0,0,0-1.62-2,4.351,4.351,0,0,0-.74-.46.30007.30007,0,0,1-.17-.26h0a.29993.29993,0,0,1,.17-.27,3.74872,3.74872,0,0,0,.74-.45,6.22006,6.22006,0,0,0,1.62-2.05A12.34047,12.34047,0,0,0,621.28023,125.57Zm-8.28-1.11v-.1a.73.73,0,0,1,.75-1h6c.55,0,1,.46.74,1v.1a3.08954,3.08954,0,0,1-.87,1,3.91981,3.91981,0,0,1-1.29.69,5,5,0,0,1-3.06,0,4.07,4.07,0,0,1-1.3-.69A3.26,3.26,0,0,1,613.0002,124.46Zm7.39,13.89v.1a.73.73,0,0,1-.74,1h-6c-.56,0-1-.47-.75-1l.05-.1a3.2105,3.2105,0,0,1,.87-1,3.99993,3.99993,0,0,1,1.3-.68,5,5,0,0,1,3.06,0,4.19988,4.19988,0,0,1,1.29.68,3.23954,3.23954,0,0,1,.88,1Z"></path> <path class="cls-1" d="M637.9402,124.75h7.5l.2.76-4.5,4.7v.08h.54a4.69,4.69,0,0,1,3.1,1,3.5,3.5,0,0,1,1.2,2.92,4,4,0,0,1-1.36,3.26,5,5,0,0,1-3.38,1.14,9.37983,9.37983,0,0,1-3.84-.7l.3-.84a10.89966,10.89966,0,0,0,3.4.6,4,4,0,0,0,2.7-.88,3.24,3.24,0,0,0,1-2.58,2.64989,2.64989,0,0,0-1-2.2,3.91008,3.91008,0,0,0-2.56-.78,9.48909,9.48909,0,0,0-1.6.1l-.26-.72,4.52-4.78v-.1h-6Zm25.91,13.66h-1.08v-7.78h0a3.68106,3.68106,0,0,1-.32.7c-.16.35-.28.59-.38.78l-1.34,2.66q-1.1501,2.29-1.38,2.76h-.84l-3-5.53-.7-1.4h-.06v7.86h-1v-9.74h1.25013c.23.4.7,1.32,1.42,2.76s1.27,2.48,1.64,3.18l.88,1.72h0l1.28-2.64.8-1.6,1.1-2.22.6-1.2h1.16Zm9.93,0h-1.1v-8.16h-.06l-1.46,2.26-3.9,5.9h-1v-9.74h1.08v8.08h.08c.09-.15.28-.45.58-.9s.52-.8.68-1c.28-.43.74-1.14,1.4-2.12l1.78-2.68.88-1.34h1.08Zm9.8,0h-1.12v-4.72h-5.22v4.72h-1.1v-9.74h1.12v4.1h5.2v-4.1h1.12Z"></path> <line class="cls-4" x1="62.1602" y1="170.91" x2="697.16017" y2="170.91"></line> <line class="cls-5" x1="61.6602" y1="170.91" x2="229.6602" y2="170.91"></line> <line class="cls-5" x1="61.6602" y1="274.91" x2="229.6602" y2="274.91"></line> <path class="cls-2" d="M220.6602,265.41l9,9.5-9,9.5,4-9.5Z"></path> <line class="cls-5" x1="61.6602" y1="170.91" x2="229.6602" y2="170.91"></line> <path class="cls-2" d="M222.6602,161.41l9,9.5-9,9.5,4-9.5Z"></path> <path class="cls-1" d="M129.8802,225.51V212.75h1.18v12.76h5.36V212.75h1.18v13.66h-14.34V212.75h1.16v12.76Zm11.6.9h-1.08v-9.78h1.08v4.18h2.16a1.88,1.88,0,0,0,1.9-1.46c.34-1.06.65-2,.92-2.7h1c-.07.18-.22.64-.44,1.36l-.44,1.34a2.82006,2.82006,0,0,1-1.38,1.86,1.8199,1.8199,0,0,1,1,.62,4.15021,4.15021,0,0,1,.62,1.2l1.08,3.38h-1.08l-.54-1.64c-.28-.86-.46-1.38-.52-1.58h0a2,2,0,0,0-2.06-1.56h-2.26Zm16-4.82a8.001,8.001,0,0,1-.2,1.82,6.2503,6.2503,0,0,1-.64,1.56,3.12,3.12,0,0,1-1.28,1.16,4.47013,4.47013,0,0,1-2,.42,3.51,3.51,0,0,1-3.1-1.36,7.14,7.14,0,0,1,.1-7.18,3.51,3.51,0,0,1,3.14-1.5,3.9999,3.9999,0,0,1,1.94.44,2.8799,2.8799,0,0,1,1.24,1.18,5.48027,5.48027,0,0,1,.62,1.6,8.29973,8.29973,0,0,1,.22,1.86Zm-1.16,0c0-2.82-1-4.22-2.84-4.22a2.66,2.66,0,0,0-1.48.38,2.28016,2.28016,0,0,0-.92,1,4.83057,4.83057,0,0,0-.46,1.34,7.04913,7.04913,0,0,0-.14,1.52,9.64039,9.64039,0,0,0,.12,1.52,4.54029,4.54029,0,0,0,.42,1.24,1.99993,1.99993,0,0,0,.92.92,3.27994,3.27994,0,0,0,1.54.32q2.86,0,2.88-4Zm10.4,4.78h-1.12v-8.84h-3.7l-.1,1.48a43.08848,43.08848,0,0,1-.46,4.54,3.84,3.84,0,0,1-2,2.92c-.23.09-.46.17-.7.24l-.28-.8a3.17,3.17,0,0,0,1.68-1.46,4.81992,4.81992,0,0,0,.38-1.24c.09-.54.16-1.05.2-1.54s.08-1.17.14-2V219l.14-2.3h5.82Zm6.23-9.86a2.74,2.74,0,0,1,3.11,2.31,2.82014,2.82014,0,0,1,0,.87v5.8h1.32l.06.66a3.51989,3.51989,0,0,1-1.46.32,1,1,0,0,1-.8-.28,1.36,1.36,0,0,1-.22-.92h0a5.41007,5.41007,0,0,1-3.38,1.24,2.65,2.65,0,0,1-2.16-.8,2.86,2.86,0,0,1-.66-1.88,2.48,2.48,0,0,1,.86-2,3.85,3.85,0,0,1,2.32-.84l3.06-.16V220a3,3,0,0,0-.48-2,2.19,2.19,0,0,0-1.76-.58,9.34017,9.34017,0,0,0-3,.58l-.28-.78a8.8999,8.8999,0,0,1,3.53-.67Zm2,5.08-2.78.16a2.55006,2.55006,0,0,0-1.68.56,1.94,1.94,0,0,0,1.42,3.32,4.92005,4.92005,0,0,0,3-1.38Zm9,.12h-4.8v-1h4.84Zm3.3,4.66h-1.08v-9.74h6.34v.9h-5.31Zm14.13,0h-1.1v-8.16h-.06s-.48.76-1.46,2.26c-2.29,3.48-3.59,5.44-3.9,5.9h-1v-9.74h1.08v8.08h.06l.58-.9.68-1,1.4-2.12,1.78-2.68c.54-.8.83-1.25.88-1.34h1.08Zm12.46,0h-1.08v-7.78h0c-.05.12-.16.35-.32.7s-.28.59-.38.78l-1.34,2.66-1.38,2.76h-.84l-2.97-5.49-.7-1.4h-.06v7.86h-1v-9.74h1.23c.23.4.7,1.32,1.42,2.76s1.27,2.48,1.64,3.18l.88,1.72h0l1.28-2.64.8-1.6,1.1-2.22.6-1.2h1.16Zm9.81,0h-1.12v-4.72h-5.23v4.72h-1.1v-9.74h1.12v4.1h5.2v-4.1h1.12Zm6.22-9.86a3.17,3.17,0,0,1,2.32.76,3.23,3.23,0,0,1,.78,2.42v5.8h1.32l.06.66a3.51989,3.51989,0,0,1-1.46.32,1,1,0,0,1-.8-.28,1.36,1.36,0,0,1-.22-.92h0a5.41007,5.41007,0,0,1-3.38,1.24,2.65,2.65,0,0,1-2.16-.8,2.86006,2.86006,0,0,1-.66-1.88,2.48,2.48,0,0,1,.86-2,3.85,3.85,0,0,1,2.32-.84l3.06-.16V220a3,3,0,0,0-.48-2,2.19,2.19,0,0,0-1.76-.58,9.34017,9.34017,0,0,0-3,.58l-.28-.78a8.86015,8.86015,0,0,1,3.52-.67Zm2,5.08-2.78.16a2.55,2.55,0,0,0-1.68.56,1.94,1.94,0,0,0,1.42,3.32,4.92,4.92,0,0,0,3-1.38Zm6.88,4.92a8.35974,8.35974,0,0,1-3.32-.6,4.07055,4.07055,0,0,1,.28-.76,9.14944,9.14944,0,0,0,2.88.52,4,4,0,0,0,2.22-.54,2,2,0,0,0,.8-1.7,1.57,1.57,0,0,0-.78-1.44,3.29991,3.29991,0,0,0-1.86-.5h-1.47v-.8h1.22a3.42986,3.42986,0,0,0,1.8-.44,1.49,1.49,0,0,0,.72-1.34c0-1.06-.78-1.58-2.32-1.58a7.72983,7.72983,0,0,0-2.92.67c-.16-.48-.25-.74-.26-.76a7.46013,7.46013,0,0,1,3.32-.74,4.12,4.12,0,0,1,2.42.62,2,2,0,0,1,.88,1.74,2.10994,2.10994,0,0,1-.5,1.4,2.68009,2.68009,0,0,1-1.26.8h0a2.7,2.7,0,0,1,1.48.84,2.2,2.2,0,0,1,.6,1.58,2.65,2.65,0,0,1-1.1,2.26,4.8499,4.8499,0,0,1-2.84.81Zm13.61-.14h-1.1v-8.16h-.06l-1.46,2.26c-2.29,3.48-3.59,5.44-3.9,5.9h-1v-9.74h1.08v8.08h.08c.09-.15.29-.45.58-.9s.52-.8.68-1l1.4-2.12,1.78-2.68c.53-.8.83-1.25.88-1.34h1.08Zm8.42,0v-4.22h-2.26a2.86982,2.86982,0,0,0-1.44.32,1.9,1.9,0,0,0-.82,1.14l-.94,2.76h-1.14l1-2.94a2.41,2.41,0,0,1,1.36-1.62h0a2.27,2.27,0,0,1-1.78-2.38,2.62994,2.62994,0,0,1,.8-2,3.33,3.33,0,0,1,2.44-.8h3.88v9.72Zm0-8.84h-2.64c-1.51,0-2.26.62-2.26,1.86s.76,1.88,2.28,1.88h2.62Zm17.77,6.84h.08V212.75h1.16v13.66h-1.16q-1.89-2.91-5.9-9.26l-1.56-2.58h0v11.82h-1.17V212.75h1.2c.38.57,1.45,2.23,3.2,5l2.68,4.18Zm3.45-10.64a2.48,2.48,0,0,1,2.2-1,2.38,2.38,0,0,1,2.14,1,4.24014,4.24014,0,0,1,.64,2.38,4.11,4.11,0,0,1-.64,2.34,2.48,2.48,0,0,1-2.2.94,2.56,2.56,0,0,1-2.18-.9,4.46,4.46,0,0,1,0-4.74Zm4.06,2.38c0-1.79-.62-2.68-1.86-2.68s-2,.9-2,2.7a3.6701,3.6701,0,0,0,.4,1.84,1.71,1.71,0,0,0,1.6.68c1.28,0,1.9-.81,1.9-2.5Zm.88,5.12h-5.6v-.86h5.66Zm2.46-8.52h7.6l.2.76-4.5,4.7v.08h.54a4.69,4.69,0,0,1,3.1,1,3.5,3.5,0,0,1,1.2,2.92,4,4,0,0,1-1.36,3.26,5,5,0,0,1-3.38,1.14,9.38017,9.38017,0,0,1-3.84-.7l.3-.84a10.89964,10.89964,0,0,0,3.4.6,3.99994,3.99994,0,0,0,2.7-.88,3.24,3.24,0,0,0,1-2.58,2.65,2.65,0,0,0-1-2.2,3.91,3.91,0,0,0-2.56-.78,9.54989,9.54989,0,0,0-1.6.1l-.26-.72,4.52-4.78v-.1h-6Zm19.4,6.9a12.99872,12.99872,0,0,1-.24,2.48,8.14951,8.14951,0,0,1-.74,2.2,3.89,3.89,0,0,1-1.44,1.62,4.06,4.06,0,0,1-2.22.6,5.31012,5.31012,0,0,1-2.08-.4,4.09022,4.09022,0,0,1-1.4-1,5.78991,5.78991,0,0,1-.82-1.58,9.75111,9.75111,0,0,1-.4-1.84c-.06-.6-.1-1.27-.1-2a11.4818,11.4818,0,0,1,.1-1.9,10.4392,10.4392,0,0,1,.42-1.92,6.36025,6.36025,0,0,1,.82-1.7,4.0003,4.0003,0,0,1,1.4-1.18,4.4099,4.4099,0,0,1,2.08-.48q4.66,0,4.66,7.14Zm-1.14.06v-1.24a9.95864,9.95864,0,0,0-.12-1.34,5.07036,5.07036,0,0,0-.34-1.38,5.3296,5.3296,0,0,0-.62-1.12,2.26,2.26,0,0,0-1-.86,3.1,3.1,0,0,0-1.4-.3c-2.45,0-3.67,2.09-3.68,6.28a13.41911,13.41911,0,0,0,.08,1.86,8.7213,8.7213,0,0,0,.32,1.6,4.99978,4.99978,0,0,0,.66,1.3,3.00023,3.00023,0,0,0,1.06.82,3.77009,3.77009,0,0,0,1.56.3,2.93,2.93,0,0,0,1.72-.52,3.17,3.17,0,0,0,1.08-1.42,8.57025,8.57025,0,0,0,.52-1.86,13.20106,13.20106,0,0,0,.2-2.08Z"></path> <path class="cls-2" d="M513.05018,233.16a5.13047,5.13047,0,0,0,1.08-.38c.25-.12.38-.19.37-.41a.38.38,0,0,0-.38874-.37108L514.09022,232h0l-1.39.07a.5702.5702,0,0,0-.35.16,4.7599,4.7599,0,0,0-1.29-2.43,4.67,4.67,0,0,0-3.36-1.39h-2.09a4.72,4.72,0,0,0-4.65,3.82.57.57,0,0,0-.35-.16l-1.39-.07a.4.4,0,0,0-.41.37c0,.22.12.29.37.41a5.34013,5.34013,0,0,0,1.08.38,2.71,2.71,0,0,0-1.6,2.47V241a.79.79,0,0,0,.77988.8h1.28012a.79.79,0,0,0,.79-.79h0v-1h10.29v1a.79.79,0,0,0,.77985.8h1.28021a.8.8,0,0,0,.8-.8v-5.34a2.7,2.7,0,0,0-1.61-2.47Zm-10-2.6a3.65007,3.65007,0,0,1,2.59-1.07h2.09a3.65,3.65,0,0,1,3.65,3.42h-9.38a3.7301,3.7301,0,0,1,1.06-2.35Zm-1.82,7.88a1.11941,1.11941,0,1,1,.01.00005l-.01-.00005Zm7,.77h-3a.77.77,0,0,1,0-1.54h3a.77.77,0,0,1,0,1.54Zm3.93-.77a1.12,1.12,0,1,1,1.12-1.12v0h0a1.12,1.12,0,0,1-1.12,1.12Z"></path> <path class="cls-1" d="M531.74019,229.93l-3.06.3v-.78l3.1-.7h1.08v13.66h-1.12Zm13.09,12.48h-1.08v-9.78h1.08v4.18h2.17a1.88,1.88,0,0,0,1.9-1.46c.35-1.06.66-2,.92-2.7h1l-.44,1.36c-.22.7-.37,1.15-.44,1.34a2.78993,2.78993,0,0,1-1.38,1.86,1.75992,1.75992,0,0,1,1,.62,3.70868,3.70868,0,0,1,.62,1.2l1.08,3.38h-1.08l-.54-1.64c-.28-.86-.45-1.38-.52-1.58h0a2,2,0,0,0-2.06-1.56h-2.26Zm18.18,0h-1.08v-7.78h0a3.67948,3.67948,0,0,1-.32.7c-.16.35-.28.59-.38.78l-1.34,2.66q-1.15,2.29-1.38,2.76h-.84l-3-5.53-.7-1.4h0v7.86h-1v-9.74h1.2c.23.4.7,1.32,1.42,2.76s1.27,2.48,1.64,3.18l.88,1.72h0l1.28-2.64.8-1.6,1.1-2.22.6-1.2h1.11011Z"></path> <path class="cls-3" d="M621.28023,229.57a14.28023,14.28023,0,0,0,.34-2.16,1,1,0,0,0-1-1h-8a1,1,0,0,0-1,1,14.30578,14.30578,0,0,0,.35,2.16,12.31789,12.31789,0,0,0,1.08,3.07,6.60054,6.60054,0,0,0,1.62,2.05,3.7493,3.7493,0,0,0,.74.45.28.28,0,0,1,.18.27h0a.28.28,0,0,1-.18.26,4.35134,4.35134,0,0,0-.74.46,6.40986,6.40986,0,0,0-1.62,2,12.3193,12.3193,0,0,0-1.05005,3.07,14.43627,14.43627,0,0,0-.35,2.17,1,1,0,0,0,1,1h8a1,1,0,0,0,1-1,14.40938,14.40938,0,0,0-.34-2.17,12.33949,12.33949,0,0,0-1.09-3.07,6.27,6.27,0,0,0-1.62-2,4.351,4.351,0,0,0-.74-.46.30007.30007,0,0,1-.17-.26h0a.29993.29993,0,0,1,.17-.27,3.74872,3.74872,0,0,0,.74-.45,6.22006,6.22006,0,0,0,1.62-2.05A12.3404,12.3404,0,0,0,621.28023,229.57Zm-8.28-1.11v-.1a.73.73,0,0,1,.75-1h6c.55,0,1,.46.74,1v.1a3.08965,3.08965,0,0,1-.87,1,3.91981,3.91981,0,0,1-1.29.69,5,5,0,0,1-3.06,0,4.0702,4.0702,0,0,1-1.3-.69A3.26015,3.26015,0,0,1,613.0002,228.46Zm7.39,13.89v.1a.73.73,0,0,1-.74,1h-6c-.56,0-1-.47-.75-1l.05-.1a3.2105,3.2105,0,0,1,.87-1,3.99993,3.99993,0,0,1,1.3-.68,5,5,0,0,1,3.06,0,4.19988,4.19988,0,0,1,1.29.68,3.23954,3.23954,0,0,1,.88,1Z"></path> <path class="cls-1" d="M637.9402,228.75h7.5l.2.76-4.5,4.7v.08h.54a4.69,4.69,0,0,1,3.1,1,3.5,3.5,0,0,1,1.2,2.92,4,4,0,0,1-1.36,3.26,5.00007,5.00007,0,0,1-3.38,1.14,9.38016,9.38016,0,0,1-3.84-.7l.3-.84a10.89967,10.89967,0,0,0,3.4.6,3.99994,3.99994,0,0,0,2.7-.88,3.24,3.24,0,0,0,1-2.58,2.6499,2.6499,0,0,0-1-2.2,3.91007,3.91007,0,0,0-2.56-.78,9.48908,9.48908,0,0,0-1.6.1l-.26-.72,4.52-4.78v-.1h-6Zm25.91,13.66h-1.08v-7.78h0a3.68106,3.68106,0,0,1-.32.7c-.16.35-.28.59-.38.78l-1.34,2.66q-1.1501,2.29-1.38,2.76h-.84l-3-5.53-.7-1.4h-.06v7.86h-1v-9.74h1.25013c.23.4.7,1.32,1.42,2.76s1.27,2.48,1.64,3.18l.88,1.72h0l1.28-2.64.8-1.6,1.1-2.22.6-1.2h1.16Zm9.93,0h-1.1v-8.16h-.06l-1.46,2.26-3.9,5.9h-1v-9.74h1.08v8.08h.08c.09-.15.28-.45.58-.9s.52-.8.68-1c.28-.43.74-1.14,1.4-2.12l1.78-2.68.88-1.34h1.08Zm9.8,0h-1.12v-4.72h-5.22v4.72h-1.1v-9.74h1.12v4.1h5.2v-4.1h1.12Z"></path> <line class="cls-4" x1="62.1602" y1="274.91" x2="697.16017" y2="274.91"></line> <path class="cls-1" d="M133.1402,314.41h-10.28v3.22h-1v-4.12h1a3.63009,3.63009,0,0,0,.78-.88,9.11708,9.11708,0,0,0,.6-1,7.59012,7.59012,0,0,0,.44-1.4c.13-.62.23-1.1.3-1.46a15.17892,15.17892,0,0,0,.22-1.78c.08-.83.13-1.42.16-1.78s.07-1,.14-2l.16-2.42h7.14v12.76h1.2v4.12h-1Zm-6.38-12.76-.12,1.68c-.1,1.34-.17,2.33-.22,3s-.15,1.39-.28,2.34a15.51036,15.51036,0,0,1-.4,2.14,9.7005,9.7005,0,0,1-.58,1.5,4.25,4.25,0,0,1-.86,1.24h7.4v-11.9Zm16.88,12.76h-1.1v-8.16h-.06l-1.48,2.26c-2.29,3.48-3.59,5.44-3.9,5.9h-1v-9.74h1.08v8.08h.08c.09-.15.29-.45.58-.9s.52-.8.68-1l1.4-2.12,1.78-2.68c.53-.8.83-1.25.88-1.34h1.08Zm6.22-9.86a3.16987,3.16987,0,0,1,2.32.76,3.23,3.23,0,0,1,.78,2.42v5.8h1.32l.06.66a3.51989,3.51989,0,0,1-1.46.32,1,1,0,0,1-.8-.28,1.35994,1.35994,0,0,1-.22-.92h0a5.41006,5.41006,0,0,1-3.38,1.24,2.64994,2.64994,0,0,1-2.16-.8,2.86,2.86,0,0,1-.66-1.88,2.47993,2.47993,0,0,1,.86-2,3.84979,3.84979,0,0,1,2.32-.84l3.06-.16V308a3,3,0,0,0-.48-2,2.19,2.19,0,0,0-1.76-.58,9.3407,9.3407,0,0,0-3,.58l-.28-.78a8.83975,8.83975,0,0,1,3.48-.67Zm2,5.08-2.78.16a2.54987,2.54987,0,0,0-1.68.56,1.94,1.94,0,0,0,1.42,3.32,4.9199,4.9199,0,0,0,3-1.38Zm5.34,4.78h-1.08v-9.74h6.34v.9h-5.26Zm14,0h-1.12v-4.72h-5.22v4.72h-1.1v-9.74h1.12v4.1h5.2v-4.1h1.12Zm10.33-4.82a8.00078,8.00078,0,0,1-.2,1.82,5.89913,5.89913,0,0,1-.64,1.56,2.99983,2.99983,0,0,1-1.28,1.16,4.43993,4.43993,0,0,1-2,.42,3.51,3.51,0,0,1-3.1-1.36,6.36986,6.36986,0,0,1-.92-3.56,6.17986,6.17986,0,0,1,1-3.62,3.53,3.53,0,0,1,3.14-1.5,4.00015,4.00015,0,0,1,1.94.44,2.82989,2.82989,0,0,1,1.24,1.18,5.48,5.48,0,0,1,.62,1.6,8.28984,8.28984,0,0,1,.21,1.86Zm-1.16,0c0-2.82-1-4.22-2.84-4.22a2.6599,2.6599,0,0,0-1.48.38,2.28011,2.28011,0,0,0-.92,1,5.17992,5.17992,0,0,0-.46,1.34,7.74952,7.74952,0,0,0-.14,1.52,9.64,9.64,0,0,0,.12,1.52,4.54,4.54,0,0,0,.42,1.24,2,2,0,0,0,.92.92,3.28031,3.28031,0,0,0,1.54.32q2.85,0,2.85-4Zm4.26,0c0,2.68,1,4,3,4a8.06045,8.06045,0,0,0,2.9-.66l.3.78a6.71987,6.71987,0,0,1-3.26.8q-4.12,0-4.12-4.86a8.38177,8.38177,0,0,1,.1-1.32,6.1301,6.1301,0,0,1,.45-1.33,4.14,4.14,0,0,1,.72-1.28,3.19994,3.19994,0,0,1,1.24-.88,4.35008,4.35008,0,0,1,1.82-.36,6.93983,6.93983,0,0,1,2.74.5l-.3.84a6.99989,6.99989,0,0,0-2.36-.4,2.77,2.77,0,0,0-2.38,1.12,5.12993,5.12993,0,0,0-.84,3.07Zm10.48,4.8v-8.84h-3.44v-.9h7.94v.9h-3.4v8.84Zm13.54,0h-1.1v-8.16h-.06l-1.49,2.28-3.9,5.9h-1v-9.74h1.08v8.08h.08c.09-.15.28-.45.58-.9s.52-.8.68-1c.28-.43.74-1.14,1.4-2.12l1.78-2.73.88-1.34h1.08Zm9.26,0h-1.11v-4.74a6.12,6.12,0,0,1-3.4,1,4.08994,4.08994,0,0,1-1.3-.18,2.78,2.78,0,0,1-.8-.46,1.92011,1.92011,0,0,1-.44-.72,5.45049,5.45049,0,0,1-.18-.8v-3.84h1.1v2.64a3.66014,3.66014,0,0,0,.36,1.84,1.67,1.67,0,0,0,1.5.56,5.11992,5.11992,0,0,0,3.18-1v-4.1h1.12Zm6.26-9.06q-2.62,0-2.92,3.6h5.56q0-3.58-2.63-3.58Zm0-.84q3.74,0,3.74,4.66v.58h-6.66q0,3.9,3,3.9a7.43014,7.43014,0,0,0,3.1-.74l.3.76a7.27,7.27,0,0,1-3.44.88,4.99969,4.99969,0,0,1-2-.38,2.85,2.85,0,0,1-1.28-1.1,4.68015,4.68015,0,0,1-.62-1.56,8.86037,8.86037,0,0,1-.18-1.92,7.448,7.448,0,0,1,.08-1.16,6.09973,6.09973,0,0,1,.34-1.32,4.26971,4.26971,0,0,1,.68-1.28,3.18006,3.18006,0,0,1,1.18-.94,4.06985,4.06985,0,0,1,1.75-.36Zm6.8,5.1q0,4,3,4a7.86,7.86,0,0,0,2.9-.66l.3.78a6.71987,6.71987,0,0,1-3.26.8c-2.74,0-4.12-1.62-4.12-4.86a9.769,9.769,0,0,1,.1-1.32,7.2388,7.2388,0,0,1,.38-1.36,4.63036,4.63036,0,0,1,.72-1.28,3.19994,3.19994,0,0,1,1.24-.88,4.35008,4.35008,0,0,1,1.82-.36,6.59993,6.59993,0,0,1,2.74.5l-.3.84a6.80991,6.80991,0,0,0-2.36-.4,2.77,2.77,0,0,0-2.38,1.12,5.18991,5.18991,0,0,0-.75,3.1Zm9,4.8h-1.08v-9.78h1.11v4.18h2.16a1.88,1.88,0,0,0,1.9-1.46c.35-1.06.65-2,.92-2.7h1c-.07.18-.21.64-.44,1.36s-.37,1.15-.44,1.34a2.79006,2.79006,0,0,1-1.38,1.86,1.82,1.82,0,0,1,1,.62,3.7102,3.7102,0,0,1,.62,1.2l1.08,3.38h-1.08l-.54-1.64c-.28-.86-.45-1.38-.52-1.58h0a2,2,0,0,0-2.06-1.56h-2.22Zm15.64,0h-1.1v-8.16h-.06l-1.45,2.28c-2.29,3.48-3.59,5.44-3.9,5.9h-1v-9.74h1.08v8.08h.08c.09-.15.29-.45.58-.9s.52-.8.68-1l1.4-2.12,1.78-2.68c.53-.8.83-1.25.88-1.34h1.08Zm9.92,0h-1.1v-8.16h-.06s-.48.76-1.46,2.26c-2.29,3.48-3.59,5.44-3.9,5.9h-1v-9.74h1.08v8.08h.08l.58-.9.68-1,1.4-2.12,1.78-2.68c.54-.8.83-1.25.88-1.34h1.08Zm-4-10.86c-1.09,0-2.1-.69-3-2.06l.72-.5a3.12,3.12,0,0,0,2.36,1.6,4.21013,4.21013,0,0,0,2.76-1.48l.42.36a4.09,4.09,0,0,1-3.22,2.1Zm21.72,10.86h-1.08v-7.78h0c-.06.12-.16.35-.32.7l-.38.78c-.12.24-.57,1.12-1.34,2.66s-1.24,2.45-1.38,2.76h-.84l-2.91-5.51-.7-1.4h-.06v7.86h-1v-9.74h1.2c.22.4.7,1.32,1.42,2.76s1.26,2.48,1.64,3.18l.88,1.72h0l1.28-2.64c.16-.32.42-.86.8-1.6s.74-1.5,1.1-2.22l.6-1.2h1.16Zm6.26-9.06q-2.62,0-2.92,3.6h5.56q0-3.58-2.6-3.58Zm0-.84q3.74,0,3.74,4.66v.58h-6.66q0,3.9,3,3.9a7.43011,7.43011,0,0,0,3.1-.74l.3.76a7.27,7.27,0,0,1-3.44.88,4.99969,4.99969,0,0,1-2-.38,2.85,2.85,0,0,1-1.28-1.1,5.13931,5.13931,0,0,1-.62-1.56,9.53025,9.53025,0,0,1-.1-3.08,6.73882,6.73882,0,0,1,.34-1.32,4.27013,4.27013,0,0,1,.68-1.28,3.17991,3.17991,0,0,1,1.18-.94,4.05994,4.05994,0,0,1,1.78-.36Zm13.71.16v8.86h.86v3.54h-.9v-2.66h-7.78v2.66h-.92v-3.54h.8a2.81984,2.81984,0,0,0,.88-1,6.11063,6.11063,0,0,0,.52-1.72c.12-.72.2-1.35.24-1.88s.1-1.32.16-2.32l.1-1.9Zm-1.12.9h-3.9l-.06,1.16c-.06,1-.1,1.74-.14,2.24s-.12,1.06-.22,1.74a7,7,0,0,1-.42,1.68,4.31975,4.31975,0,0,1-.7,1.14h5.46Zm11.48,8.84h-1.1v-8.16h-.06l-1.42,2.28c-2.29,3.48-3.59,5.44-3.9,5.9h-1v-9.74h1.08v8.08h.08c.09-.15.29-.45.58-.9s.52-.8.68-1l1.4-2.12,1.78-2.68c.53-.8.83-1.25.88-1.34h1.08Zm8.68-.9v-8.84h1.1v8.84h1.1v3.56h-.92v-2.66h-7.54v-9.74h1.1v8.84Zm11.57.9h-1.1v-8.16h-.06s-.48.76-1.46,2.26c-2.29,3.48-3.59,5.44-3.9,5.9h-1v-9.74h1.08v8.08h.08l.58-.9.68-1,1.4-2.12,1.78-2.68c.54-.8.83-1.25.88-1.34h1.08Zm9.81,0h-1.12v-4.72h-5.22v4.72h-1.1v-9.74h1.12v4.1h5.2v-4.1h1.12Zm3.32-4.8q0,4,3,4a7.86005,7.86005,0,0,0,2.9-.66l.3.78a6.72,6.72,0,0,1-3.26.8q-4.12,0-4.12-4.86a8.38057,8.38057,0,0,1,.1-1.32,6.39091,6.39091,0,0,1,.38-1.36,4.6301,4.6301,0,0,1,.72-1.28,3.1999,3.1999,0,0,1,1.24-.88,4.3501,4.3501,0,0,1,1.82-.36,6.76029,6.76029,0,0,1,2.74.5l-.3.84a6.81051,6.81051,0,0,0-2.36-.4,2.77,2.77,0,0,0-2.38,1.12,5.11016,5.11016,0,0,0-.74,3.1Zm9,4.8h-1.08v-9.78h1.12v4.18h2.16a1.88,1.88,0,0,0,1.9-1.46c.34-1.06.65-2,.92-2.7h1c-.07.18-.22.64-.44,1.36l-.44,1.34a2.82,2.82,0,0,1-1.38,1.86,1.82,1.82,0,0,1,1,.62,4.14976,4.14976,0,0,1,.62,1.2l1.08,3.38h-1.08l-.54-1.64c-.28-.86-.46-1.38-.52-1.58h0a2,2,0,0,0-2.06-1.56h-2.22Zm15.64,0h-1.1v-8.16h-.06l-1.44,2.28-3.9,5.9h-1v-9.74h1.08v8.08h.08c.09-.15.28-.45.58-.9s.52-.8.68-1c.28-.43.74-1.14,1.4-2.12l1.78-2.68.88-1.34h1.08Zm9.92,0h-1.1v-8.16h-.06l-1.36,2.28c-2.29,3.48-3.59,5.44-3.9,5.9h-1v-9.74h1.08v8.08h.08c.09-.15.29-.45.58-.9s.52-.8.68-1l1.4-2.12,1.78-2.68c.53-.8.83-1.25.88-1.34h1.08Zm-4-10.86c-1.09,0-2.1-.69-3-2.06l.72-.5a3.12,3.12,0,0,0,2.36,1.6,4.21013,4.21013,0,0,0,2.76-1.48l.42.36a4.13006,4.13006,0,0,1-3.19,2.1Zm-248.43,42v-8.84h1.1v8.84h1.1v3.56h-.92v-2.66h-7.6v-9.74h1.1v8.84Zm7.91-8.16q-2.62,0-2.92,3.6h5.56q.08-3.62-2.57-3.62Zm0-.84c2.49,0,3.73,1.55,3.74,4.66v.58h-6.66q0,3.9,3,3.9a7.43022,7.43022,0,0,0,3.1-.74l.3.76a7.27,7.27,0,0,1-3.44.88,4.99986,4.99986,0,0,1-2-.38,2.85,2.85,0,0,1-1.28-1.1,5.13992,5.13992,0,0,1-.62-1.56,9.52969,9.52969,0,0,1-.1-3.08,6.73959,6.73959,0,0,1,.34-1.32,4.26985,4.26985,0,0,1,.68-1.28,3.18009,3.18009,0,0,1,1.18-.94,4.00016,4.00016,0,0,1,1.81-.4Zm13.29,9.9h-1.12v-4.72h-5.17v4.72h-1.1v-9.74h1.1v4.1h5.2v-4.1h1.12Zm4.9,0v-8.84h-3.39v-.9h7.94v.9h-3.4v8.84Zm7.06-8.78.08.06a4.84,4.84,0,0,1,3.06-1.14c2.36,0,3.54,1.6,3.54,4.82a7,7,0,0,1-.92,3.78,3.23,3.23,0,0,1-2.9,1.4,5.25017,5.25017,0,0,1-2.84-.74v4.8h-1.1v-14h1v.48a1.37,1.37,0,0,0,.13.48Zm0,1v6.2a4.35015,4.35015,0,0,0,1.22.56,5.32953,5.32953,0,0,0,1.48.24q2.82,0,2.82-4.34a4.87,4.87,0,0,0-.7-3,2.41,2.41,0,0,0-2-.88,3.8896,3.8896,0,0,0-1.5.36,4.22,4.22,0,0,0-1.25.88Zm23.25,5.74h.08V332.75h1.16v13.66h-1.14l-2.81-4.41c-1.69-2.64-2.73-4.26-3.12-4.84l-1.6-2.58h0V346.4h-1.14V332.75h1.2q2.48,3.69,5.92,9.18Zm12-2.82a7.469,7.469,0,0,1-.2,1.82,5.46044,5.46044,0,0,1-.64,1.56,3,3,0,0,1-1.28,1.16,4.44006,4.44006,0,0,1-2,.42,3.51,3.51,0,0,1-3.1-1.36,6.37,6.37,0,0,1-.92-3.56,6.17993,6.17993,0,0,1,1-3.62,3.53,3.53,0,0,1,3.14-1.5,4.00012,4.00012,0,0,1,1.94.44,2.82991,2.82991,0,0,1,1.24,1.18,4.8,4.8,0,0,1,.62,1.6,8.001,8.001,0,0,1,.25,1.88Zm-1.16,0c0-2.82-.94-4.22-2.84-4.22a2.74976,2.74976,0,0,0-1.48.38,2.40006,2.40006,0,0,0-.92,1,5.89943,5.89943,0,0,0-.46,1.34,7.7503,7.7503,0,0,0-.14,1.52,9.63886,9.63886,0,0,0,.12,1.52,4.53989,4.53989,0,0,0,.42,1.24,2,2,0,0,0,.92.92,3.41,3.41,0,0,0,1.54.32c1.95.06,2.89-1.28,2.89-4Zm5.43,4.78-1-3q-.65-2-1.2-3.6c-.36-1.1-.71-2.14-1-3.12h1.14c.12.36.4,1.24.86,2.66s.82,2.49,1.06,3.28c.46,1.53.76,2.48.88,2.84h.1l.36-1.18c.21-.72.4-1.32.56-1.8l.94-2.86c.46-1.43.78-2.41.94-2.94h1.16q-3.23,9.27-3.38,9.72Zm10-9.86a3.16991,3.16991,0,0,1,2.32.76,3.23,3.23,0,0,1,.78,2.42v5.8h1.32l.06.66a3.24,3.24,0,0,1-1.46.32,1.00005,1.00005,0,0,1-.8-.28,1.36,1.36,0,0,1-.22-.92h0a5.41,5.41,0,0,1-3.38,1.24,2.65,2.65,0,0,1-2.16-.8,2.86,2.86,0,0,1-.66-1.88,2.48,2.48,0,0,1,.86-2,3.84982,3.84982,0,0,1,2.32-.84l3.06-.16V340a3,3,0,0,0-.48-2,2.16,2.16,0,0,0-1.76-.58,9.3407,9.3407,0,0,0-3,.58l-.28-.78a8.85976,8.85976,0,0,1,3.52-.67Zm2,5.08-2.78.16a2.54989,2.54989,0,0,0-1.68.56,1.77,1.77,0,0,0-.58,1.38,1.75,1.75,0,0,0,2,1.94,4.92,4.92,0,0,0,3-1.38Zm11.23-8.86q.75,1.64,2.14,4.82l2.1,4.68.72,1.66h.1c.18-.38.42-.94.74-1.68s1.76-3.91,4.28-9.48h1.26v13.64h-1.14V335h0l-.92,2.08-3.66,8.08h-1.12c-.36-.83-.88-2-1.58-3.48-.34-.8-1-2.36-2.1-4.66l-.88-2h-.06v11.42h-1.12V332.77Zm18,4.58c-1.74,0-2.72,1.2-2.92,3.6h5.56q.07-3.54-2.56-3.54Zm0-.84c2.5,0,3.74,1.55,3.74,4.66v.58h-6.66q0,3.9,3,3.9a7.43044,7.43044,0,0,0,3.1-.74l.3.76a7.27,7.27,0,0,1-3.44.88,4.99985,4.99985,0,0,1-2-.38,2.85,2.85,0,0,1-1.28-1.1,5.13972,5.13972,0,0,1-.62-1.56,9.52963,9.52963,0,0,1-.1-3.08,7.53051,7.53051,0,0,1,.34-1.32,4.77019,4.77019,0,0,1,.68-1.28,3.28018,3.28018,0,0,1,1.18-.94,3.91991,3.91991,0,0,1,1.82-.32Zm12.33,8.9h0a4.76,4.76,0,0,1-3.1,1.14c-2.36,0-3.54-1.6-3.54-4.78a6.83,6.83,0,0,1,.92-3.8,3.19,3.19,0,0,1,2.9-1.44,5.36,5.36,0,0,1,2.84.76v-5h1.12v14.18h-1.1Zm0-1v-6.22a5.679,5.679,0,0,0-1.24-.54,4.79986,4.79986,0,0,0-1.46-.24c-1.87,0-2.81,1.44-2.8,4.32a5,5,0,0,0,.68,3,2.44,2.44,0,0,0,2,.88,3.79026,3.79026,0,0,0,1.48-.36,4.49018,4.49018,0,0,0,1.38-.74Zm5.12,2h-1.12v-9.74h1.12Zm.26-12.24a.8.8,0,0,1-.24.56.77994.77994,0,0,1-.58.24.82.82,0,0,1-.8-.8.78.78,0,0,1,.24-.58.71.71,0,0,1,.56-.26.72.72,0,0,1,.58.26.78.78,0,0,1,.28.64Zm3.57,7.44q0,4,3,4a7.8601,7.8601,0,0,0,2.9-.66l.3.78a6.72,6.72,0,0,1-3.26.8c-2.74,0-4.12-1.62-4.12-4.86a9.76907,9.76907,0,0,1,.1-1.32,7.24028,7.24028,0,0,1,.38-1.36,4.63013,4.63013,0,0,1,.72-1.28,3.19983,3.19983,0,0,1,1.24-.88,4.35023,4.35023,0,0,1,1.82-.36,6.5998,6.5998,0,0,1,2.74.5l-.3.84a6.81027,6.81027,0,0,0-2.36-.4,2.77,2.77,0,0,0-2.38,1.12,5.24,5.24,0,0,0-.74,3.14Zm11.81-5.06a3.16992,3.16992,0,0,1,2.32.76,3.22992,3.22992,0,0,1,.78,2.42v5.8h1.32l.06.66a3.51941,3.51941,0,0,1-1.46.32,1,1,0,0,1-.8-.28,1.35993,1.35993,0,0,1-.22-.92h0a5.41,5.41,0,0,1-3.38,1.24,2.6499,2.6499,0,0,1-2.16-.8,2.86,2.86,0,0,1-.66-1.88,2.48,2.48,0,0,1,.86-2,3.84981,3.84981,0,0,1,2.32-.84l3.06-.16V340a3,3,0,0,0-.48-2,2.19,2.19,0,0,0-1.76-.58,9.34081,9.34081,0,0,0-3,.58l-.28-.78a8.85971,8.85971,0,0,1,3.52-.67Zm2,5.08-2.78.16a2.56,2.56,0,0,0-1.68.56,1.94,1.94,0,0,0,1.42,3.32,4.92,4.92,0,0,0,3-1.38Zm5.68-9.42v14.2h-1.12v-14.2Zm13.69.32a9.35967,9.35967,0,0,1,3.4.54l-.28.9a9.55937,9.55937,0,0,0-3-.48,3.93,3.93,0,0,0-3.46,1.64,7.86988,7.86988,0,0,0-1.14,4.56,12.23,12.23,0,0,0,.18,2.26,6.75024,6.75024,0,0,0,.66,1.84,3.22992,3.22992,0,0,0,1.42,1.34,5.41,5.41,0,0,0,2.34.46,11.99985,11.99985,0,0,0,3.32-.46l.24.84a10.46,10.46,0,0,1-3.76.58,5,5,0,0,1-4.3-1.78,8.5,8.5,0,0,1-1.32-5.1,13.10879,13.10879,0,0,1,.14-1.88,10.3202,10.3202,0,0,1,.54-1.9,6.18965,6.18965,0,0,1,1-1.7,4.55026,4.55026,0,0,1,1.66-1.18,5.49,5.49,0,0,1,2.4-.42Zm9.55,4.82q-2.62,0-2.92,3.6h5.56q0-3.54-2.6-3.54Zm0-.84q3.74,0,3.74,4.66v.58h-6.66q0,3.9,3,3.9a7.43041,7.43041,0,0,0,3.1-.74l.3.76a7.27,7.27,0,0,1-3.44.88,4.99985,4.99985,0,0,1-2-.38,2.85007,2.85007,0,0,1-1.28-1.1,4.67966,4.67966,0,0,1-.62-1.56,8.86037,8.86037,0,0,1-.18-1.92,7.44925,7.44925,0,0,1,.08-1.16,6.09975,6.09975,0,0,1,.34-1.32,4.27013,4.27013,0,0,1,.68-1.28,3.17991,3.17991,0,0,1,1.18-.94,4.00032,4.00032,0,0,1,1.78-.32Zm13.28,9.9h-1.12v-6.54a3.3,3.3,0,0,0-.38-1.82,1.63,1.63,0,0,0-1.5-.6,7.09988,7.09988,0,0,0-3.32,1.06v7.9h-1.12v-9.74h1.15v.9h.06a6.86008,6.86008,0,0,1,3.54-1.12,3.56007,3.56007,0,0,1,1.48.26,1.53007,1.53007,0,0,1,.84.72,2.99971,2.99971,0,0,1,.32.88,4.76929,4.76929,0,0,1,.08,1Zm3.51-11.8.72-.12v2.18h2.88v.86h-2.9V344a2.08994,2.08994,0,0,0,.3,1.22,1.43,1.43,0,0,0,1.16.4,7.35048,7.35048,0,0,0,1.86-.34l.18.76a5.35972,5.35972,0,0,1-2.26.5c-1.56,0-2.34-.74-2.34-2.2v-6.76h-1.4V337l1.44-.34Zm6.8,3.34h.1a8.22062,8.22062,0,0,1,1.62-1.06,3.83009,3.83009,0,0,1,1.58-.48c.27,0,.4.12.4.38a1.8999,1.8999,0,0,1-.38,1.1,13.67248,13.67248,0,0,0-1.66.32l-1.58.3v7.86h-1.08v-9.74h1.12v.64c0,.36-.06.67-.06.79Zm8.91-.6q-2.62,0-2.92,3.6h5.56q0-3.54-2.62-3.54Zm0-.84q3.74,0,3.74,4.66v.58h-6.66q0,3.9,3,3.9a7.43041,7.43041,0,0,0,3.1-.74l.3.76a7.27,7.27,0,0,1-3.44.88,4.99985,4.99985,0,0,1-2-.38,2.85007,2.85007,0,0,1-1.28-1.1,5.1392,5.1392,0,0,1-.62-1.56,9.53048,9.53048,0,0,1-.1-3.08,6.73962,6.73962,0,0,1,.34-1.32,4.27025,4.27025,0,0,1,.68-1.28,3.17991,3.17991,0,0,1,1.18-.94,4.00017,4.00017,0,0,1,1.76-.32Z"></path> <path class="cls-2" d="M513.05018,337.16a5.13047,5.13047,0,0,0,1.08-.38c.25-.12.38-.19.37-.41a.38.38,0,0,0-.38874-.3711l-.02124.0011h0l-1.39.07a.57014.57014,0,0,0-.35.16,4.75994,4.75994,0,0,0-1.29-2.43,4.67,4.67,0,0,0-3.36-1.39h-2.09a4.72,4.72,0,0,0-4.65,3.82.57012.57012,0,0,0-.35-.16l-1.39-.07a.4.4,0,0,0-.41.37c0,.22.12.29.37.41a5.33888,5.33888,0,0,0,1.08.38,2.71,2.71,0,0,0-1.6,2.47V345a.79.79,0,0,0,.77988.8h1.28012a.79.79,0,0,0,.79-.79v0h0v-1h10.29v1a.79.79,0,0,0,.77991.8h1.28015a.8.8,0,0,0,.8-.8v-5.34a2.7,2.7,0,0,0-1.61-2.47Zm-10-2.6a3.65,3.65,0,0,1,2.59-1.07h2.09a3.65,3.65,0,0,1,3.65,3.42h-9.38a3.73005,3.73005,0,0,1,1.06-2.35Zm-1.82,7.88a1.12163,1.12163,0,1,1,.01,0l-.01,0Zm7,.77h-3a.77.77,0,1,1,0-1.54h3a.77.77,0,1,1,0,1.54Zm3.93-.77a1.12,1.12,0,1,1,1.12-1.12h0a1.12,1.12,0,0,1-1.12,1.12Z"></path> <path class="cls-1" d="M531.74019,333.93l-3.06.3v-.78l3.1-.7h1.08v13.66h-1.12Zm6.36,11.78a.77988.77988,0,0,1,.24-.58.76011.76011,0,0,1,.6-.26.80008.80008,0,0,1,.66.3,1,1,0,0,1,.26.74,3.2596,3.2596,0,0,1-.44,1.52,3.08,3.08,0,0,1-1.1,1.22l-.3-.36a2.85017,2.85017,0,0,0,.72-1.8A.73.73,0,0,1,538.10017,345.71Zm11.78.7h-8.52v-.84c1-.92,1.77-1.7,2.4-2.32s1.33-1.39,2.1-2.28a12.8517,12.8517,0,0,0,1.74-2.52,4.90936,4.90936,0,0,0,.6-2.18,2.48008,2.48008,0,0,0-.8-2,3,3,0,0,0-2.08-.7,6,6,0,0,0-3.42,1.12l-.44-.74a6.72009,6.72009,0,0,1,4-1.38,4.12994,4.12994,0,0,1,2.8.92,3.35987,3.35987,0,0,1,1.08,2.72,5.529,5.529,0,0,1-.48,2.16,9.99958,9.99958,0,0,1-1.5,2.36c-.67.82-1.24,1.5-1.72,2l-2,2.06-.72.7h6.94Zm9,0h-1.08v-9.78h1.08v4.18h2.12a1.88,1.88,0,0,0,1.9-1.46c.34-1.06.65-2,.92-2.7h1c-.07.18-.22.64-.44,1.36l-.44,1.34a2.8199,2.8199,0,0,1-1.38,1.86,1.82,1.82,0,0,1,1,.62,4.15029,4.15029,0,0,1,.62,1.2l1.08,3.38h-1.08l-.54-1.64c-.28-.86-.46-1.38-.52-1.58h0a2,2,0,0,0-2.06-1.56h-2.26Zm18.18,0h-1.06v-7.78h0c-.06.12-.16.35-.32.7l-.38.78c-.12.24-.57,1.12-1.34,2.66s-1.24,2.45-1.38,2.76h-.84l-3-5.53-.7-1.4h0v7.86h-1v-9.74h1.2c.22.4.7,1.32,1.42,2.76s1.26,2.48,1.64,3.18l.88,1.72h0l1.28-2.64c.16-.32.42-.86.8-1.6s.74-1.5,1.1-2.22l.6-1.2h1.0401Z"></path> <path class="cls-3" d="M623.28023,333.57a14.28062,14.28062,0,0,0,.34-2.16,1,1,0,0,0-1-1h-8a1,1,0,0,0-1,1,14.30557,14.30557,0,0,0,.35,2.16,12.31789,12.31789,0,0,0,1.08,3.07,6.60034,6.60034,0,0,0,1.62,2.05,3.74939,3.74939,0,0,0,.74.45.28.28,0,0,1,.18.27h0a.27993.27993,0,0,1-.18.26,4.35187,4.35187,0,0,0-.74.46,6.41,6.41,0,0,0-1.62,2,12.31952,12.31952,0,0,0-1.05005,3.07,14.43674,14.43674,0,0,0-.35,2.17,1,1,0,0,0,1,1h8a1,1,0,0,0,1-1,14.40984,14.40984,0,0,0-.34-2.17,12.33977,12.33977,0,0,0-1.09-3.07,6.27,6.27,0,0,0-1.62-2,4.35148,4.35148,0,0,0-.74-.46.30011.30011,0,0,1-.17-.26h0a.3.3,0,0,1,.17-.27,3.74881,3.74881,0,0,0,.74-.45,6.21989,6.21989,0,0,0,1.62-2.05A12.34047,12.34047,0,0,0,623.28023,333.57Zm-8.28-1.11v-.1c-.25-.49.19-.95.75-.95h6c.55,0,1,.46.74.95v.1a3.08954,3.08954,0,0,1-.87,1,3.91963,3.91963,0,0,1-1.29.69,4.99982,4.99982,0,0,1-3.06,0,4.06941,4.06941,0,0,1-1.3-.69A3.26,3.26,0,0,1,615.0002,332.46Zm7.39,13.89v.1a.73.73,0,0,1-.74,1h-6c-.56,0-1-.47-.75-1l.05-.1a3.21027,3.21027,0,0,1,.87-1,4.00032,4.00032,0,0,1,1.3-.68,5,5,0,0,1,3.06,0,4.19988,4.19988,0,0,1,1.29.68,3.23966,3.23966,0,0,1,.88,1Z"></path> <path class="cls-1" d="M645.62019,332.75h1.18v8.88h2v.88h-2v3.9h-1.08v-3.9h-6.56v-.9l3.62-5Zm-5.34,8.88h5.46v-7.44h-.06c-.66.88-1.58,2.16-2.78,3.84S640.82014,340.89,640.28017,341.63Zm25.57,4.78h-1.08v-7.78h0a3.6816,3.6816,0,0,1-.32.7c-.16.35-.28.59-.38.78l-1.34,2.66-1.38,2.76h-.84l-3-5.53-.7-1.4h-.06v7.86h-1v-9.74h1.25013c.23.4.7,1.32,1.42,2.76s1.27,2.48,1.64,3.18l.88,1.72h0l1.28-2.64.8-1.6,1.1-2.22.6-1.2h1.16Zm9.93,0h-1.1v-8.16h-.06l-1.46,2.26-3.9,5.9h-1v-9.74h1.08v8.08h.08c.09-.15.28-.45.58-.9s.52-.8.68-1c.28-.43.74-1.14,1.4-2.12l1.78-2.68.88-1.34h1.08Zm9.8,0h-1.12v-4.72h-5.22v4.72h-1.1v-9.74h1.12v4.1h5.2v-4.1h1.12Z"></path> <line class="cls-4" x1="62.1602" y1="378.91" x2="697.16017" y2="378.91"></line> <line class="cls-5" x1="61.6602" y1="378.91" x2="285.6602" y2="378.91"></line> <path class="cls-2" d="M280.6602,369.41l9,9.5-9,9.5,4-9.5Z"></path> <line class="cls-5" x1="61.6602" y1="482.91" x2="285.6602" y2="482.91"></line> <path class="cls-2" d="M280.6602,473.41l9,9.5-9,9.5,4-9.5Z"></path> <path class="cls-1" d="M129.8802,433.51V420.75h1.18v12.76h5.36V420.75h1.18v13.66h-14.34V420.75h1.16v12.76Zm11.6.9h-1.08v-9.78h1.08v4.18h2.16a1.88,1.88,0,0,0,1.9-1.46c.34-1.06.65-2,.92-2.7h1c-.07.18-.22.64-.44,1.36l-.44,1.34a2.82,2.82,0,0,1-1.38,1.86,1.82,1.82,0,0,1,1,.62,4.14976,4.14976,0,0,1,.62,1.2l1.08,3.38h-1.08l-.54-1.64c-.28-.86-.46-1.38-.52-1.58h0a2,2,0,0,0-2.06-1.56h-2.26Zm16-4.82a8.00078,8.00078,0,0,1-.2,1.82,6.25045,6.25045,0,0,1-.64,1.56,3.11992,3.11992,0,0,1-1.28,1.16,4.4696,4.4696,0,0,1-2,.42,3.51,3.51,0,0,1-3.1-1.36,7.14,7.14,0,0,1,.1-7.18,3.51,3.51,0,0,1,3.14-1.5,4.00012,4.00012,0,0,1,1.94.44,2.88,2.88,0,0,1,1.24,1.18,5.48,5.48,0,0,1,.62,1.6,8.29964,8.29964,0,0,1,.22,1.86Zm-1.16,0c0-2.82-1-4.22-2.84-4.22a2.65992,2.65992,0,0,0-1.48.38,2.28011,2.28011,0,0,0-.92,1,4.83024,4.83024,0,0,0-.46,1.34,7.04889,7.04889,0,0,0-.14,1.52,9.64,9.64,0,0,0,.12,1.52,4.54,4.54,0,0,0,.42,1.24,2,2,0,0,0,.92.92,3.28031,3.28031,0,0,0,1.54.32q2.86,0,2.88-4Zm10.4,4.78h-1.12v-8.84h-3.7l-.1,1.48a43.08912,43.08912,0,0,1-.46,4.54,3.84,3.84,0,0,1-2,2.92c-.23.09-.46.17-.7.24l-.28-.8a3.16989,3.16989,0,0,0,1.68-1.46,4.81993,4.81993,0,0,0,.38-1.24c.09-.54.16-1,.2-1.54s.08-1.17.14-2V427l.14-2.3h5.82Zm6.23-9.86a2.74,2.74,0,0,1,3.11,2.31,2.82014,2.82014,0,0,1,0,.87v5.8h1.32l.06.66a3.51973,3.51973,0,0,1-1.46.32,1,1,0,0,1-.8-.28,1.35993,1.35993,0,0,1-.22-.92h0a5.41006,5.41006,0,0,1-3.38,1.24,2.64994,2.64994,0,0,1-2.16-.8,2.86,2.86,0,0,1-.66-1.88,2.48,2.48,0,0,1,.86-2,3.84979,3.84979,0,0,1,2.32-.84l3.06-.16V428a3,3,0,0,0-.48-2,2.19,2.19,0,0,0-1.76-.58,9.3407,9.3407,0,0,0-3,.58l-.28-.78a8.89991,8.89991,0,0,1,3.53-.67Zm2,5.08-2.78.16a2.5499,2.5499,0,0,0-1.68.56,1.94,1.94,0,0,0,1.42,3.32,4.91993,4.91993,0,0,0,3-1.38Zm19.27,4.78h-1.22V421.75h-6.9v12.66h-1.22V420.73h9.32Zm3.86-8.78.08.06a4.84,4.84,0,0,1,3.06-1.14c2.36,0,3.54,1.6,3.54,4.82a7,7,0,0,1-.92,3.78,3.23,3.23,0,0,1-2.9,1.4,5.25009,5.25009,0,0,1-2.84-.74v4.8h-1.1v-13.9h1v.48a1.4598,1.4598,0,0,0,.12.48Zm0,1v6.2a4.34992,4.34992,0,0,0,1.22.56,5.33015,5.33015,0,0,0,1.48.24q2.82,0,2.82-4.34a4.87,4.87,0,0,0-.7-3,2.41,2.41,0,0,0-2-.88,3.88954,3.88954,0,0,0-1.5.36,4.28015,4.28015,0,0,0-1.26.94Zm12.74-1.32q-2.62,0-2.92,3.6h5.56q.06-3.53-2.58-3.52Zm0-.84c2.49,0,3.73,1.55,3.74,4.66v.58h-6.66q0,3.9,3,3.9a7.43033,7.43033,0,0,0,3.1-.74l.3.76a7.26986,7.26986,0,0,1-3.44.88,4.99985,4.99985,0,0,1-2-.38,2.85,2.85,0,0,1-1.28-1.1,4.67987,4.67987,0,0,1-.62-1.56,8.86037,8.86037,0,0,1-.18-1.92,7.44905,7.44905,0,0,1,.08-1.16,6.09969,6.09969,0,0,1,.34-1.32,4.2698,4.2698,0,0,1,.68-1.28,3.18,3.18,0,0,1,1.18-.94,3.99966,3.99966,0,0,1,1.8-.3Zm13.7.16v8.86h.86V437h-.9v-2.66h-7.78V437h-.92v-3.54h.8a2.81976,2.81976,0,0,0,.88-1,5.99974,5.99974,0,0,0,.52-1.72c.12-.72.2-1.35.24-1.88s.11-1.32.16-2.32l.1-1.9Zm-1.12.9h-3.92l-.06,1.16c0,1-.1,1.74-.14,2.24s-.11,1.06-.22,1.74a6.09,6.09,0,0,1-.42,1.68,3.93979,3.93979,0,0,1-.7,1.14h5.46Zm11.37,8.84h-1.12v-8.84h-5.2v8.84h-1.12v-9.72h7.44Zm3.46-8.78.08.06a4.84,4.84,0,0,1,3.06-1.14c2.36,0,3.54,1.6,3.54,4.82a6.77,6.77,0,0,1-.92,3.78,3.23,3.23,0,0,1-2.9,1.4,5.25009,5.25009,0,0,1-2.84-.74v4.8h-1.1V424.67h1v.48a1.45967,1.45967,0,0,0,.12.48Zm0,1v6.2a5,5,0,0,0,1.22.56,5.33014,5.33014,0,0,0,1.48.24q2.82,0,2.82-4.34a4.8,4.8,0,0,0-.7-3,2.37,2.37,0,0,0-2-.88,3.88954,3.88954,0,0,0-1.5.36,4.4596,4.4596,0,0,0-1.26,1Zm16.4,7.74h-1.1v-8.16h-.06s-.48.76-1.46,2.26c-2.29,3.48-3.59,5.44-3.9,5.9h-1v-9.74h1.08v8.08h.08l.58-.9.68-1,1.4-2.12,1.78-2.68c.54-.8.83-1.25.88-1.34h1.08Zm9.81,0h-1.12v-4.72h-5.22v4.72h-1.1v-9.74h1.12v4.1h5.2v-4.1h1.12Zm9.92,0h-1.1v-8.16h-.06l-1.46,2.26c-2.29,3.48-3.59,5.44-3.9,5.9h-1v-9.74h1.08v8.08h.08c.09-.15.29-.45.58-.9s.52-.8.68-1l1.4-2.12,1.78-2.68c.53-.8.83-1.25.88-1.34h1.08Zm12.46,0h-1v-7.78h0c-.05.12-.16.35-.32.7s-.28.59-.38.78l-1.34,2.66-1.38,2.76h-.84l-3-5.41-.7-1.4h-.06v7.86h-1v-9.74h1.2c.23.4.7,1.32,1.42,2.76s1.27,2.48,1.64,3.18l.88,1.72h0l1.28-2.64.8-1.6,1.1-2.22.6-1.2h1.16Zm6.22-9.86a3.1699,3.1699,0,0,1,2.32.76,3.22993,3.22993,0,0,1,.78,2.42v5.8h1.32l.06.66a3.24008,3.24008,0,0,1-1.46.32,1,1,0,0,1-.8-.28,1.36,1.36,0,0,1-.22-.92h0a5.41006,5.41006,0,0,1-3.38,1.24,2.64987,2.64987,0,0,1-2.16-.8,2.86,2.86,0,0,1-.66-1.88,2.48,2.48,0,0,1,.86-2,3.87994,3.87994,0,0,1,2.3-.75l3.06-.16V428a3,3,0,0,0-.48-2,2.16,2.16,0,0,0-1.76-.58,9.34081,9.34081,0,0,0-3,.58l-.28-.78a8.87021,8.87021,0,0,1,3.56-.67Zm2,5.08-2.78.16a2.56,2.56,0,0,0-1.68.56,1.77,1.77,0,0,0-.58,1.38,1.75,1.75,0,0,0,2,1.94,4.92,4.92,0,0,0,3-1.38Zm6.41,4.78v-8.84h-3.45v-.9h8v.9h-3.4v8.84Zm9.27-9.06q-2.62,0-2.92,3.6h5.56q.06-3.48-2.58-3.48Zm0-.84q3.73,0,3.74,4.66v.58h-6.66q0,3.9,3,3.9a7.43011,7.43011,0,0,0,3.1-.74l.3.76a7.26986,7.26986,0,0,1-3.44.88,4.99978,4.99978,0,0,1-2-.38,2.85,2.85,0,0,1-1.28-1.1,5.13946,5.13946,0,0,1-.62-1.56,9.53018,9.53018,0,0,1-.1-3.08,6.73889,6.73889,0,0,1,.34-1.32,4.27005,4.27005,0,0,1,.68-1.28,3.1798,3.1798,0,0,1,1.18-.94,4.08965,4.08965,0,0,1,1.8-.26Zm13.15,9.9h-1.12v-8.84h-3.75l-.1,1.48a43.09174,43.09174,0,0,1-.46,4.54,3.84,3.84,0,0,1-2,2.92c-.23.09-.46.17-.7.24l-.28-.8a3.16994,3.16994,0,0,0,1.68-1.46,4.82019,4.82019,0,0,0,.38-1.24c.09-.54.16-1.05.2-1.54s.08-1.17.14-2v-.72l.14-2.3h5.82Zm6.26-9.06c-1.74,0-2.72,1.2-2.92,3.6h5.56q0-3.48-2.6-3.48Zm0-.84c2.5,0,3.74,1.55,3.74,4.66v.58h-6.66q0,3.9,3,3.9a7.43006,7.43006,0,0,0,3.1-.74l.3.76a7.26983,7.26983,0,0,1-3.44.88,4.99978,4.99978,0,0,1-2-.38,2.85015,2.85015,0,0,1-1.28-1.1,5.13944,5.13944,0,0,1-.62-1.56,9.53019,9.53019,0,0,1-.1-3.08,7.52812,7.52812,0,0,1,.34-1.32,4.76906,4.76906,0,0,1,.68-1.28,3.28008,3.28008,0,0,1,1.18-.94,4.00008,4.00008,0,0,1,1.78-.26Zm13.41,9.9h-1.1v-8.16h-.06l-1.46,2.26c-2.29,3.48-3.59,5.44-3.9,5.9h-1v-9.74h1.08v8.08h.08c.09-.15.29-.45.58-.9s.52-.8.68-1l1.4-2.12,1.76-2.61c.53-.8.83-1.25.88-1.34h1.08Zm-4-10.86c-1.09,0-2.1-.69-3-2.06l.72-.5a3.11994,3.11994,0,0,0,2.36,1.6,4.21,4.21,0,0,0,2.76-1.48l.42.36a4.13,4.13,0,0,1-3.22,2.2Z"></path> <path class="cls-2" d="M513.05018,441.16a5.13047,5.13047,0,0,0,1.08-.38c.25-.12.38-.19.37-.41a.38.38,0,0,0-.38874-.3711l-.02124.0011h0l-1.39.07a.57014.57014,0,0,0-.35.16,4.75994,4.75994,0,0,0-1.29-2.43,4.67,4.67,0,0,0-3.36-1.39h-2.09a4.72,4.72,0,0,0-4.65,3.82.57012.57012,0,0,0-.35-.16l-1.39-.07a.4.4,0,0,0-.41.37c0,.22.12.29.37.41a5.33888,5.33888,0,0,0,1.08.38,2.71,2.71,0,0,0-1.6,2.47V449a.79.79,0,0,0,.77988.8h1.28012a.79.79,0,0,0,.79-.79v0h0v-1h10.29v1a.79.79,0,0,0,.77991.8h1.28015a.8.8,0,0,0,.8-.8v-5.34a2.7,2.7,0,0,0-1.61-2.47Zm-10-2.6a3.65,3.65,0,0,1,2.59-1.07h2.09a3.65,3.65,0,0,1,3.65,3.42h-9.38a3.73005,3.73005,0,0,1,1.06-2.35Zm-1.82,7.88a1.12163,1.12163,0,1,1,.01,0l-.01,0Zm7,.77h-3a.77.77,0,1,1,0-1.54h3a.77.77,0,1,1,0,1.54Zm3.93-.77a1.12,1.12,0,1,1,1.12-1.12h0a1.12,1.12,0,0,1-1.12,1.12Z"></path> <path class="cls-1" d="M531.74019,437.93l-3.06.3v-.78l3.1-.7h1.08v13.66h-1.12Zm6.36,11.78a.77988.77988,0,0,1,.24-.58.76011.76011,0,0,1,.6-.26.80008.80008,0,0,1,.66.3,1,1,0,0,1,.26.74,3.2596,3.2596,0,0,1-.44,1.52,3.08,3.08,0,0,1-1.1,1.22l-.3-.36a2.85017,2.85017,0,0,0,.72-1.8A.73.73,0,0,1,538.10017,449.71Zm11.78.7h-8.52v-.84c1-.92,1.77-1.7,2.4-2.32s1.33-1.39,2.1-2.28a12.8517,12.8517,0,0,0,1.74-2.52,4.90936,4.90936,0,0,0,.6-2.18,2.48008,2.48008,0,0,0-.8-2,3,3,0,0,0-2.08-.7,6,6,0,0,0-3.42,1.12l-.44-.74a6.72009,6.72009,0,0,1,4-1.38,4.12994,4.12994,0,0,1,2.8.92,3.35987,3.35987,0,0,1,1.08,2.72,5.529,5.529,0,0,1-.48,2.16,9.99958,9.99958,0,0,1-1.5,2.36c-.67.82-1.24,1.5-1.72,2l-2,2.06-.72.7h6.94Zm9,0h-1.08v-9.78h1.08v4.18h2.12a1.88,1.88,0,0,0,1.9-1.46c.34-1.06.65-2,.92-2.7h1c-.07.18-.22.64-.44,1.36l-.44,1.34a2.8199,2.8199,0,0,1-1.38,1.86,1.82,1.82,0,0,1,1,.62,4.15029,4.15029,0,0,1,.62,1.2l1.08,3.38h-1.08l-.54-1.64c-.28-.86-.46-1.38-.52-1.58h0a2,2,0,0,0-2.06-1.56h-2.26Zm18.18,0h-1.06v-7.78h0c-.06.12-.16.35-.32.7l-.38.78c-.12.24-.57,1.12-1.34,2.66s-1.24,2.45-1.38,2.76h-.84l-3-5.53-.7-1.4h0v7.86h-1v-9.74h1.2c.22.4.7,1.32,1.42,2.76s1.26,2.48,1.64,3.18l.88,1.72h0l1.28-2.64c.16-.32.42-.86.8-1.6s.74-1.5,1.1-2.22l.6-1.2h1.0401Z"></path> <path class="cls-3" d="M623.28023,437.57a14.28062,14.28062,0,0,0,.34-2.16,1,1,0,0,0-1-1h-8a1,1,0,0,0-1,1,14.30557,14.30557,0,0,0,.35,2.16,12.31789,12.31789,0,0,0,1.08,3.07,6.60034,6.60034,0,0,0,1.62,2.05,3.74939,3.74939,0,0,0,.74.45.28.28,0,0,1,.18.27h0a.27993.27993,0,0,1-.18.26,4.35187,4.35187,0,0,0-.74.46,6.41,6.41,0,0,0-1.62,2,12.31952,12.31952,0,0,0-1.05005,3.07,14.43674,14.43674,0,0,0-.35,2.17,1,1,0,0,0,1,1h8a1,1,0,0,0,1-1,14.40984,14.40984,0,0,0-.34-2.17,12.33977,12.33977,0,0,0-1.09-3.07,6.27,6.27,0,0,0-1.62-2,4.35148,4.35148,0,0,0-.74-.46.30011.30011,0,0,1-.17-.26h0a.3.3,0,0,1,.17-.27,3.74881,3.74881,0,0,0,.74-.45,6.21989,6.21989,0,0,0,1.62-2.05A12.34047,12.34047,0,0,0,623.28023,437.57Zm-8.28-1.11v-.1c-.25-.49.19-.95.75-.95h6c.55,0,1,.46.74.95v.1a3.08954,3.08954,0,0,1-.87,1,3.91963,3.91963,0,0,1-1.29.69,4.99982,4.99982,0,0,1-3.06,0,4.06941,4.06941,0,0,1-1.3-.69A3.26,3.26,0,0,1,615.0002,436.46Zm7.39,13.89v.1a.73.73,0,0,1-.74,1h-6c-.56,0-1-.47-.75-1l.05-.1a3.21027,3.21027,0,0,1,.87-1,4.00032,4.00032,0,0,1,1.3-.68,5,5,0,0,1,3.06,0,4.19988,4.19988,0,0,1,1.29.68,3.23966,3.23966,0,0,1,.88,1Z"></path> <path class="cls-1" d="M645.62019,436.75h1.18v8.88h2v.88h-2v3.9h-1.08v-3.9h-6.56v-.9l3.62-5Zm-5.34,8.88h5.46v-7.44h-.06c-.66.88-1.58,2.16-2.78,3.84S640.82014,444.89,640.28017,445.63Zm25.57,4.78h-1.08v-7.78h0a3.6816,3.6816,0,0,1-.32.7c-.16.35-.28.59-.38.78l-1.34,2.66-1.38,2.76h-.84l-3-5.53-.7-1.4h-.06v7.86h-1v-9.74h1.25013c.23.4.7,1.32,1.42,2.76s1.27,2.48,1.64,3.18l.88,1.72h0l1.28-2.64.8-1.6,1.1-2.22.6-1.2h1.16Zm9.93,0h-1.1v-8.16h-.06l-1.46,2.26-3.9,5.9h-1v-9.74h1.08v8.08h.08c.09-.15.28-.45.58-.9s.52-.8.68-1c.28-.43.74-1.14,1.4-2.12l1.78-2.68.88-1.34h1.08Zm9.8,0h-1.12v-4.72h-5.22v4.72h-1.1v-9.74h1.12v4.1h5.2v-4.1h1.12Z"></path> <line class="cls-4" x1="62.1602" y1="482.91" x2="697.16017" y2="482.91"></line> <path class="cls-1" d="M127.2602,538.41h-4V524.73h4.2q5.46,0,5.46,6.82T127.2602,538.41Zm0-12.74h-2.78v11.78h3.28l.78-.12a4.199,4.199,0,0,0,.9-.32,5.82132,5.82132,0,0,0,.84-.64,3.82006,3.82006,0,0,0,.74-1,6.94047,6.94047,0,0,0,.5-1.52,10.09037,10.09037,0,0,0,.2-2.12,11.181,11.181,0,0,0-.18-2.16,7.32949,7.32949,0,0,0-.46-1.58,3.76008,3.76008,0,0,0-.7-1.06,3.24958,3.24958,0,0,0-.8-.68,2.61987,2.61987,0,0,0-.86-.36,2.92047,2.92047,0,0,0-.78-.16,2.65025,2.65025,0,0,0-.7-.06Zm16,7.92a8.00115,8.00115,0,0,1-.2,1.82,6.25045,6.25045,0,0,1-.64,1.56,3.12017,3.12017,0,0,1-1.28,1.16,4.47052,4.47052,0,0,1-2,.42,3.51,3.51,0,0,1-3.1-1.36,7.14,7.14,0,0,1,.1-7.18,3.51,3.51,0,0,1,3.14-1.5,4.00012,4.00012,0,0,1,1.94.44,2.88007,2.88007,0,0,1,1.24,1.18,5.36971,5.36971,0,0,1,.62,1.6,8.31942,8.31942,0,0,1,.18,1.86Zm-1.16,0c0-2.82-.95-4.22-2.84-4.22a2.6599,2.6599,0,0,0-1.48.38,2.28011,2.28011,0,0,0-.92,1,4.83011,4.83011,0,0,0-.46,1.34,7.04917,7.04917,0,0,0-.14,1.52,9.64064,9.64064,0,0,0,.12,1.52,4.54027,4.54027,0,0,0,.42,1.24,2,2,0,0,0,.92.92,3.27994,3.27994,0,0,0,1.54.32q2.84,0,2.84-4Zm3,4.18.38-.8a6.40059,6.40059,0,0,0,2.88.66,3.47982,3.47982,0,0,0,1.84-.44,1.55,1.55,0,0,0,.7-1.38,1.31,1.31,0,0,0-.6-1.18,6.4196,6.4196,0,0,0-1.72-.8l-1.22-.42a9.3272,9.3272,0,0,1-1-.5,2.23973,2.23973,0,0,1-.78-.78,2.29,2.29,0,0,1-.24-1.06,2.19,2.19,0,0,1,.92-1.94,3.94021,3.94021,0,0,1,2.38-.66,5.69981,5.69981,0,0,1,2.72.6c-.2.49-.32.76-.34.82a6.36008,6.36008,0,0,0-2.4-.5,2.74994,2.74994,0,0,0-1.6.42,1.43,1.43,0,0,0-.6,1.28c0,.7.74,1.29,2.24,1.76l1,.32a5.27822,5.27822,0,0,1,.84.38,2.51,2.51,0,0,1,.8.52,2.779,2.779,0,0,1,.44.72,2.46,2.46,0,0,1-.78,3,4.57,4.57,0,0,1-2.6.68,6.37994,6.37994,0,0,1-3.3-.66Zm10-11.2.72-.12v2.18h2.88v.86h-2.9V536a2.08992,2.08992,0,0,0,.3,1.22,1.43008,1.43008,0,0,0,1.16.4,7.35059,7.35059,0,0,0,1.86-.34l.18.76a5.35974,5.35974,0,0,1-2.26.5c-1.56,0-2.34-.74-2.34-2.2v-6.76h-1.4V529l1.44-.34Zm8.68,11.06a4.064,4.064,0,0,1,.14-.46c.07-.24.19-.6.32-1s.26-.85.38-1.22c.19-.59.51-1.64,1-3.14s.82-2.56,1-3.14h1.14q-3.62,11.1-3.86,11.78a4.09,4.09,0,0,1-.94,1.72,2.00016,2.00016,0,0,1-1.52.58,9.56858,9.56858,0,0,1-2-.3l.18-.84a9.61772,9.61772,0,0,0,1.6.22,1.60016,1.60016,0,0,0,1-.28,2.42013,2.42013,0,0,0,.66-1.16l.66-2h-.54q-.32-1.07-1.68-5.12l-1.5-4.58h1.1c.11.33.44,1.37,1,3.12s.89,2.81,1,3.2l.84,2.68Zm6.57-4.56h.1l1.18-1.2,3.3-3.26h1.3l-3.82,3.8a2.78,2.78,0,0,1,.26.34l.36.46,3.46,5.12h-1.26c-.46-.67-1.12-1.62-2-2.86s-1.35-2-1.58-2.38l-.66.66-.64.64v3.94h-1.12V524.25h1.12v8.81995Zm21.53-4.5a4.81,4.81,0,0,1-.8,2.62,2.99963,2.99963,0,0,1-1.22,1,4.61065,4.61065,0,0,1-1.9.38h-3.22v5.78h-1.2V524.73h4.22a4.3201,4.3201,0,0,1,3,1,3.62,3.62,0,0,1,1.11,2.88Zm-4.12-2.94h-3v6h3.08a2.65,2.65,0,0,0,2.82-3,2.75,2.75,0,0,0-2.47738-2.99792l-.02262-.00208a1.80372,1.80372,0,0,0-.4,0Zm7.31-1.46v14.2h-1.07v-14.2Zm6.54,4.34a3.17,3.17,0,0,1,2.32.76,3.2299,3.2299,0,0,1,.78,2.42v5.8h1.29l.06.66a3.51984,3.51984,0,0,1-1.46.32,1.00005,1.00005,0,0,1-.8-.28,1.36009,1.36009,0,0,1-.22-.92h0a5.40984,5.40984,0,0,1-3.38,1.24,2.68,2.68,0,0,1-2.16-.8,2.85991,2.85991,0,0,1-.66-1.88,2.47994,2.47994,0,0,1,.86-2,3.85,3.85,0,0,1,2.32-.84l3.06-.16V532a3.00006,3.00006,0,0,0-.48-2,2.19,2.19,0,0,0-1.76-.58,9.34068,9.34068,0,0,0-3,.58l-.28-.78a8.76,8.76,0,0,1,3.5-.67Zm2,5.08-2.78.16a2.55,2.55,0,0,0-1.68.56,1.94,1.94,0,0,0,1.42,3.32,4.9199,4.9199,0,0,0,3-1.38Zm4.8,3.82v.1h5.94v.88h-7.35v-.78l5.82-8-.06-.08h-5.26v-.88h6.68v.84Zm11.36-8.9a3.17,3.17,0,0,1,2.32.76,3.23,3.23,0,0,1,.78,2.42v5.8h1.32l.06.66a3.23957,3.23957,0,0,1-1.46.32,1.00005,1.00005,0,0,1-.8-.28,1.36,1.36,0,0,1-.22-.92h0a5.40986,5.40986,0,0,1-3.38,1.24,2.68,2.68,0,0,1-2.16-.8,2.85991,2.85991,0,0,1-.66-1.88,2.47991,2.47991,0,0,1,.86-2,3.85,3.85,0,0,1,2.32-.84l3.06-.16V532a3,3,0,0,0-.48-2,2.16,2.16,0,0,0-1.76-.58,9.34074,9.34074,0,0,0-3,.58l-.28-.78a9.00072,9.00072,0,0,1,3.47-.67Zm2,5.08-2.78.16a2.55,2.55,0,0,0-1.68.56,1.77,1.77,0,0,0-.58,1.38,1.75,1.75,0,0,0,2,1.94,4.91993,4.91993,0,0,0,3-1.38Z"></path> <path class="cls-2" d="M513.05018,545.16a5.13273,5.13273,0,0,0,1.08-.38c.25-.12.38-.19.37-.41a.38.38,0,0,0-.38874-.3711l-.02124.0011h0l-1.39.07a.57027.57027,0,0,0-.35.16,4.75982,4.75982,0,0,0-1.29-2.43,4.66984,4.66984,0,0,0-3.36-1.39h-2.09a4.72,4.72,0,0,0-4.65,3.82.56992.56992,0,0,0-.35-.16l-1.39-.07a.4.4,0,0,0-.41.37c0,.22.12.29.37.41a5.34071,5.34071,0,0,0,1.08.38,2.71,2.71,0,0,0-1.6,2.47V553a.79.79,0,0,0,.77988.8h1.28012a.79.79,0,0,0,.79-.79h0v-1h10.29v1a.79.79,0,0,0,.77991.8h1.28015a.8.8,0,0,0,.8-.8v-5.34a2.69992,2.69992,0,0,0-1.61-2.47Zm-10-2.6a3.65011,3.65011,0,0,1,2.59-1.07h2.09a3.65,3.65,0,0,1,3.65,3.42h-9.38a3.73,3.73,0,0,1,1.06-2.35Zm-1.82,7.88a1.1183,1.1183,0,1,1,.01.00006l-.01-.00006Zm7,.77h-3a.77.77,0,0,1,0-1.54h3a.77.77,0,1,1,.00821,1.54Zm3.93-.77a1.12,1.12,0,1,1,1.12-1.12h0a1.12,1.12,0,0,1-1.12,1.12Z"></path> <path class="cls-1" d="M535.86018,554.41h-8.52v-.84c1-.92,1.77-1.7,2.4-2.32s1.32-1.39,2.1-2.28a12.851,12.851,0,0,0,1.74-2.52,4.90934,4.90934,0,0,0,.6-2.18,2.48007,2.48007,0,0,0-.8-2,3.00014,3.00014,0,0,0-2.08-.7,5.9997,5.9997,0,0,0-3.42,1.12l-.44-.74a6.72009,6.72009,0,0,1,4-1.38,4.13,4.13,0,0,1,2.8.92,3.36018,3.36018,0,0,1,1.08,2.72,5.56888,5.56888,0,0,1-.48,2.16,9.99964,9.99964,0,0,1-1.5,2.36c-.67.82-1.24,1.5-1.72,2l-2,2.06-.72.7h6.94Zm9,0h-1.08v-9.78h1.08v4.18h2.14a1.88,1.88,0,0,0,1.9-1.46c.35-1.06.66-2,.92-2.7h1l-.44,1.36c-.22.7-.37,1.15-.44,1.34a2.78989,2.78989,0,0,1-1.38,1.86,1.75994,1.75994,0,0,1,1,.62,3.70883,3.70883,0,0,1,.62,1.2l1.08,3.38h-1.08l-.54-1.64c-.28-.86-.45-1.38-.52-1.58h0a2,2,0,0,0-2.06-1.56h-2.26Zm18.18,0h-1.04v-7.78h0a3.67852,3.67852,0,0,1-.32.7c-.16.35-.28.59-.38.78l-1.34,2.66-1.38,2.76h-.84l-3-5.53-.7-1.4h0v7.86h-1v-9.74h1.2c.23.4.7,1.32,1.42,2.76s1.27,2.48,1.64,3.18l.88,1.72h0l1.28-2.64.8-1.6,1.1-2.22.6-1.2h1.0401Z"></path> <path class="cls-3" d="M621.28023,541.57a14.28083,14.28083,0,0,0,.34-2.16,1,1,0,0,0-1-1h-8a1,1,0,0,0-1,1,14.30641,14.30641,0,0,0,.35,2.16,12.31789,12.31789,0,0,0,1.08,3.07,6.6,6.6,0,0,0,1.62,2.05,3.748,3.748,0,0,0,.74.45.28005.28005,0,0,1,.18.27h0a.28.28,0,0,1-.18.26,4.34956,4.34956,0,0,0-.74.46,6.40974,6.40974,0,0,0-1.62,2A12.31888,12.31888,0,0,0,612.0002,553.2a14.43573,14.43573,0,0,0-.35,2.17,1,1,0,0,0,1,1h8a1,1,0,0,0,1-1,14.41,14.41,0,0,0-.34-2.17,12.33935,12.33935,0,0,0-1.09-3.07,6.27,6.27,0,0,0-1.62-2,4.34974,4.34974,0,0,0-.74-.46.3.3,0,0,1-.17-.26h0a.3.3,0,0,1,.17-.27,3.74739,3.74739,0,0,0,.74-.45,6.21958,6.21958,0,0,0,1.62-2.05A12.34046,12.34046,0,0,0,621.28023,541.57Zm-8.28-1.11v-.1a.73.73,0,0,1,.75-1h6c.55,0,1,.46.74,1v.1a3.08954,3.08954,0,0,1-.87,1,3.92018,3.92018,0,0,1-1.29.69,5.00026,5.00026,0,0,1-3.06,0,4.07059,4.07059,0,0,1-1.3-.69A3.2596,3.2596,0,0,1,613.0002,540.46Zm7.39,13.89v.1a.73.73,0,0,1-.74,1h-6c-.56,0-1-.47-.75-1l.05-.1a3.20994,3.20994,0,0,1,.87-1,4.00032,4.00032,0,0,1,1.3-.68,5.00045,5.00045,0,0,1,3.06,0,4.19923,4.19923,0,0,1,1.29.68,3.23977,3.23977,0,0,1,.88,1Z"></path> <path class="cls-1" d="M642.78023,540.55a6.00079,6.00079,0,0,1,2.82.62l-.28.84a6.52075,6.52075,0,0,0-2.54-.52,3.08031,3.08031,0,0,0-1.94.62,3.61983,3.61983,0,0,0-1.2,1.56,10.07217,10.07217,0,0,0-.58,1.76,9.00179,9.00179,0,0,0-.22,1.56l.06.06a6.81032,6.81032,0,0,1,3.6-1,3.71,3.71,0,0,1,3.99688,3.399l.00312.041a3.47061,3.47061,0,0,1,0,.72,4.09015,4.09015,0,0,1-4.32,4.38,4.6,4.6,0,0,1-2.18-.48,3.43029,3.43029,0,0,1-1.38-1.42,7.46038,7.46038,0,0,1-.66-2,13.99865,13.99865,0,0,1-.2-2.5,10.13,10.13,0,0,1,1.3-5.52A4.16,4.16,0,0,1,642.78023,540.55Zm2.54,9.72c0-2.23-1-3.35-3-3.34a5.64978,5.64978,0,0,0-1.82.3,4.7095,4.7095,0,0,0-1.18.5,2.28032,2.28032,0,0,0-.46.36v.52c0,3.36,1.1,5,3.32,5a3,3,0,0,0,2.32-.94,3.56,3.56,0,0,0,.82-2.4Zm18.53,4.14h-1.08v-7.78h0a3.68246,3.68246,0,0,1-.32.7c-.16.35-.28.59-.38.78l-1.34,2.66-1.38,2.76h-.84l-3-5.53-.7-1.4h-.06v7.86h-1v-9.74h1.25006c.23.4.7,1.32,1.42,2.76s1.27,2.48,1.64,3.18l.88,1.72h0l1.28-2.64.8-1.6,1.1-2.22.6-1.2h1.16Zm9.93,0h-1.1v-8.16h-.06l-1.46,2.26-3.9,5.9h-1v-9.74h1.08v8.08h.08c.09-.15.28-.45.58-.9s.52-.8.68-1c.28-.43.74-1.14,1.4-2.12l1.78-2.68.88-1.34h1.08Zm9.8,0h-1.12v-4.72h-5.22v4.72h-1.1v-9.74h1.12v4.1h5.2v-4.1h1.12Z"></path> <line class="cls-4" x1="62.1602" y1="586.90997" x2="697.16017" y2="586.90997"></line> <line class="cls-5" x1="61.6602" y1="586.90997" x2="397.6602" y2="586.90997"></line> <path class="cls-2" d="M392.6602,577.41l9,9.5-9,9.5,4-9.5Z"></path> <path class="cls-2" d="M513.05018,649.16a5.13273,5.13273,0,0,0,1.08-.38c.25-.12.38-.19.37-.41a.38.38,0,0,0-.38874-.3711l-.02124.0011h0l-1.39.07a.57027.57027,0,0,0-.35.16,4.75982,4.75982,0,0,0-1.29-2.43,4.66984,4.66984,0,0,0-3.36-1.39h-2.09a4.72,4.72,0,0,0-4.65,3.82.56992.56992,0,0,0-.35-.16l-1.39-.07a.4.4,0,0,0-.41.37c0,.22.12.29.37.41a5.34071,5.34071,0,0,0,1.08.38,2.71,2.71,0,0,0-1.6,2.47V657a.79.79,0,0,0,.77988.8h1.28012a.79.79,0,0,0,.79-.79h0v-1h10.29v1a.79.79,0,0,0,.77991.8h1.28015a.8.8,0,0,0,.8-.8v-5.34a2.69992,2.69992,0,0,0-1.61-2.47Zm-10-2.6a3.65011,3.65011,0,0,1,2.59-1.07h2.09a3.65,3.65,0,0,1,3.65,3.42h-9.38a3.73,3.73,0,0,1,1.06-2.35Zm-1.82,7.88a1.1183,1.1183,0,1,1,.01.00006l-.01-.00006Zm7,.77h-3a.77.77,0,0,1-.77-.77h0a.76.76,0,0,1,.74991-.77l.0101-.00006h3a.77.77,0,1,1,.00821,1.54h-.00821Zm3.93-.77a1.12,1.12,0,1,1,1.12-1.12h0a1.12,1.12,0,0,1-1.12,1.12Z"></path> <path class="cls-1" d="M527.9402,644.75h7.5l.2.76-4.5,4.7v.08h.54a4.68993,4.68993,0,0,1,3.1,1,3.5,3.5,0,0,1,1.2,2.92,4,4,0,0,1-1.36,3.26,5,5,0,0,1-3.38,1.14,9.38051,9.38051,0,0,1-3.84-.7l.3-.84a10.89993,10.89993,0,0,0,3.4.6,3.99993,3.99993,0,0,0,2.7-.88,3.23984,3.23984,0,0,0,1-2.58,2.64992,2.64992,0,0,0-1-2.2,3.91,3.91,0,0,0-2.56-.78,8.60192,8.60192,0,0,0-1.6.1l-.26-.72,4.52-4.78v-.1h-6Zm16.89,13.66h-1.08v-9.78h1.08v4.18h2.17a1.88,1.88,0,0,0,1.9-1.46c.35-1.06.66-2,.92-2.7h1l-.44,1.36c-.22.7-.37,1.15-.44,1.34a2.78989,2.78989,0,0,1-1.38,1.86,1.75994,1.75994,0,0,1,1,.62,3.70883,3.70883,0,0,1,.62,1.2l1.08,3.38h-1.08l-.54-1.64c-.28-.86-.45-1.38-.52-1.58h0a2,2,0,0,0-2.06-1.56h-2.26Zm18.18,0h-1.08v-7.78h0a3.67852,3.67852,0,0,1-.32.7c-.16.35-.28.59-.38.78l-1.34,2.66-1.38,2.76h-.84l-3-5.53-.7-1.4h0v7.86h-1v-9.74h1.2c.23.4.7,1.32,1.42,2.76s1.27,2.48,1.64,3.18l.88,1.72h0l1.28-2.64.8-1.6,1.1-2.22.6-1.2h1.11011Z"></path> <path class="cls-3" d="M621.28023,645.57a14.28083,14.28083,0,0,0,.34-2.16,1,1,0,0,0-1-1h-8a1,1,0,0,0-1,1,14.30641,14.30641,0,0,0,.35,2.16,12.31789,12.31789,0,0,0,1.08,3.07,6.6,6.6,0,0,0,1.62,2.05,3.748,3.748,0,0,0,.74.45.28005.28005,0,0,1,.18.27h0a.28.28,0,0,1-.18.26,4.34956,4.34956,0,0,0-.74.46,6.40974,6.40974,0,0,0-1.62,2A12.31888,12.31888,0,0,0,612.0002,657.2a14.43573,14.43573,0,0,0-.35,2.17,1,1,0,0,0,1,1h8a1,1,0,0,0,1-1,14.41,14.41,0,0,0-.34-2.17,12.33935,12.33935,0,0,0-1.09-3.07,6.27,6.27,0,0,0-1.62-2,4.34974,4.34974,0,0,0-.74-.46.3.3,0,0,1-.17-.26h0a.3.3,0,0,1,.17-.27,3.74739,3.74739,0,0,0,.74-.45,6.21958,6.21958,0,0,0,1.62-2.05A12.34046,12.34046,0,0,0,621.28023,645.57Zm-8.28-1.11v-.1a.73.73,0,0,1,.75-1h6c.55,0,1,.46.74,1v.1a3.08954,3.08954,0,0,1-.87,1,3.92018,3.92018,0,0,1-1.29.69,5.00026,5.00026,0,0,1-3.06,0,4.07059,4.07059,0,0,1-1.3-.69A3.2596,3.2596,0,0,1,613.0002,644.46Zm7.39,13.89v.1a.73.73,0,0,1-.74,1h-6c-.56,0-1-.47-.75-1l.05-.1a3.20994,3.20994,0,0,1,.87-1,4.00032,4.00032,0,0,1,1.3-.68,5.00045,5.00045,0,0,1,3.06,0,4.19923,4.19923,0,0,1,1.29.68,3.23977,3.23977,0,0,1,.88,1Z"></path> <path class="cls-1" d="M646.0002,647.77a4.4,4.4,0,0,1-2.1,3.54,3.83,3.83,0,0,1,2.42,3.52,3.50014,3.50014,0,0,1-1.18,2.66,4.76,4.76,0,0,1-3.24,1.06,4.85016,4.85016,0,0,1-3.26-1,3.14985,3.14985,0,0,1-1.12-2.48,4.89,4.89,0,0,1,.64-2.42,4.9998,4.9998,0,0,1,2-2,4.7804,4.7804,0,0,1-1.48-1.24,2.6697,2.6697,0,0,1-.46-1.6,3,3,0,0,1,1.1-2.36,4.00006,4.00006,0,0,1,2.82-1,4.56983,4.56983,0,0,1,2.7.82A2.71,2.71,0,0,1,646.0002,647.77Zm-4,9.9a3.29992,3.29992,0,0,0,2.4-.82,2.75,2.75,0,0,0,.86-2,2.60049,2.60049,0,0,0-.26-1.2,2.36992,2.36992,0,0,0-.8-.92,7.00129,7.00129,0,0,0-1.2-.73c-.38-.19-.87-.41-1.48-.66l-.22-.06-.16-.08-.2-.1a4.44992,4.44992,0,0,0-2.34009,3.9,2.54009,2.54009,0,0,0,.82,1.9,3.44005,3.44005,0,0,0,2.5.81Zm.1-12.2a2.78,2.78,0,0,0-2,.7,2.24986,2.24986,0,0,0-.76,1.72,1.90969,1.90969,0,0,0,.22.88,3.57792,3.57792,0,0,0,.5.66,4.191,4.191,0,0,0,.86.58c.41.21.71.36.9.44l1.08.44a3.99994,3.99994,0,0,0,2-3.1,2.27009,2.27009,0,0,0-.72-1.58,2.7799,2.7799,0,0,0-2.18-.74Zm21.83,12.94h-1.08v-7.78h0c-.05.12-.16.35-.32.7s-.28.59-.38.78l-1.34,2.66-1.38,2.76h-.84l-3-5.53-.7-1.4h-.06v7.86h-1v-9.74h1.17011c.23.4.7,1.32,1.42,2.76s1.27,2.48,1.64,3.18l.88,1.72h0l1.28-2.64.8-1.6,1.1-2.22.6-1.2h1.16Zm9.93,0h-1.1v-8.16h-.06l-1.46,2.26-3.9,5.9h-1v-9.74h1.08v8.08h.08c.09-.15.28-.45.58-.9s.52-.8.68-1c.28-.43.74-1.14,1.4-2.12l1.78-2.68.88-1.34h1.08Zm9.8,0h-1.12v-4.72h-5.22v4.72h-1.1v-9.74h1.12v4.1h5.2v-4.1h1.12Z"></path> <line class="cls-4" x1="62.1602" y1="690.90997" x2="697.16017" y2="690.90997"></line> <line class="cls-5" x1="61.6602" y1="690.90997" x2="508.96019" y2="690.90997"></line> <path class="cls-2" d="M501.6602,681.41l9,9.5-9,9.5,4-9.5Z"></path> <path class="cls-1" d="M131.4602,746.41h-8.2V732.75h7.86v.92h-6.68v5h5.72v.92h-5.72v5.84h7Zm1.66-.6.38-.8a6.40063,6.40063,0,0,0,2.88.66,3.4799,3.4799,0,0,0,1.84-.44,1.55,1.55,0,0,0,.7-1.38,1.31,1.31,0,0,0-.6-1.18,6.4196,6.4196,0,0,0-1.72-.8l-1.22-.42a9.32906,9.32906,0,0,1-1-.5,2.23989,2.23989,0,0,1-.78-.78,2.29,2.29,0,0,1-.24-1.06,2.21,2.21,0,0,1,.92-1.94,4.10974,4.10974,0,0,1,2.38-.66,5.69964,5.69964,0,0,1,2.72.6c-.2.49-.31.76-.34.82a6.36013,6.36013,0,0,0-2.4-.5,2.83024,2.83024,0,0,0-1.6.42,1.43,1.43,0,0,0-.6,1.28c0,.7.75,1.29,2.24,1.76.47.14.79.25,1,.32a5.27782,5.27782,0,0,1,.84.38,2.50985,2.50985,0,0,1,.8.52,2.32969,2.32969,0,0,1,.44.72,2.14984,2.14984,0,0,1,.22,1,2.29,2.29,0,0,1-1,2,4.57005,4.57005,0,0,1-2.6.68A6.37037,6.37037,0,0,1,133.12021,745.81Zm12.8-8.46q-2.62-.0001-2.92,3.6h5.56Q148.56021,737.35,145.92021,737.35Zm0-.84c2.49,0,3.73,1.55,3.74,4.66v.58h-6.66q0,3.9,3,3.9a7.59,7.59,0,0,0,3.1-.74l.3.76a7.27,7.27,0,0,1-3.44.88,4.99917,4.99917,0,0,1-2-.38,2.84982,2.84982,0,0,1-1.28-1.1,4.6804,4.6804,0,0,1-.62-1.56,8.85992,8.85992,0,0,1-.18-1.92,7.45124,7.45124,0,0,1,.08-1.16,6.09962,6.09962,0,0,1,.34-1.32,4.27033,4.27033,0,0,1,.68-1.28,3.18036,3.18036,0,0,1,1.18-.94,3.87058,3.87058,0,0,1,1.74-.38Zm13.28,9.9h-1.12v-6.54a3.3,3.3,0,0,0-.38-1.82,1.63007,1.63007,0,0,0-1.5-.6,7.10022,7.10022,0,0,0-3.32,1.06v7.9h-1.12v-9.74h1.1v.9a.05989.05989,0,0,1,.06,0,6.86,6.86,0,0,1,3.54-1.12,3.56058,3.56058,0,0,1,1.48.26,1.53008,1.53008,0,0,1,.84.72,3.00026,3.00026,0,0,1,.32.88,4.77,4.77,0,0,1,.08,1Zm3.51-11.8.72-.12v2.18h2.88v.86h-2.9V744a2.08992,2.08992,0,0,0,.3,1.22,1.43008,1.43008,0,0,0,1.16.4,7.35051,7.35051,0,0,0,1.86-.34l.18.76a5.35974,5.35974,0,0,1-2.26.5c-1.56,0-2.34-.74-2.34-2.2v-6.76h-1.4V737l1.44-.34Zm9.38,1.94a2.74,2.74,0,0,1,3.11,2.31,2.82014,2.82014,0,0,1,0,.87v5.8h1.32l.06.66a3.51984,3.51984,0,0,1-1.46.32,1.00009,1.00009,0,0,1-.8-.28,1.36,1.36,0,0,1-.22-.92h0a5.40984,5.40984,0,0,1-3.38,1.24,2.68,2.68,0,0,1-2.16-.8,2.85992,2.85992,0,0,1-.66-1.88,2.48,2.48,0,0,1,.86-2,3.81036,3.81036,0,0,1,2.24-.86993l3.06-.16V740a3,3,0,0,0-.48-2,2.19,2.19,0,0,0-1.76-.58,9.34074,9.34074,0,0,0-3,.58l-.28-.78a8.89983,8.89983,0,0,1,3.53-.67Zm2,5.08-2.78.16a2.55,2.55,0,0,0-1.68.56,1.94,1.94,0,0,0,1.42,3.32,4.92,4.92,0,0,0,3-1.38Zm5.87,4.78h-1.12v-9.74h1.16Zm.26-12.24a.80005.80005,0,0,1-.24.56.77987.77987,0,0,1-.58.24.82.82,0,0,1-.8-.8.77991.77991,0,0,1,.24-.58.71.71,0,0,1,.56-.26.71993.71993,0,0,1,.58.26.77.77,0,0,1,.22.58Zm9.63-1.4c.49,1.09,1.21,2.7,2.14,4.82l2.1,4.68.72,1.66h.1c.17-.38.42-.94.74-1.68s1.76-3.91,4.28-9.48h1.26v13.64h-1.19V735h0l-.92,2.08q-3.3,7.27-3.66,8.08h-1.14c-.36-.83-.89-2-1.58-3.48-.35-.8-1-2.36-2.1-4.66l-.88-2h-.06v11.42h-1.12V732.77Zm18,3.78a3.17,3.17,0,0,1,2.32.76,3.23,3.23,0,0,1,.78,2.42v5.8h1.32l.06.66a3.51984,3.51984,0,0,1-1.46.32,1.00005,1.00005,0,0,1-.8-.28,1.36,1.36,0,0,1-.22-.92h0a5.40984,5.40984,0,0,1-3.38,1.24,2.65014,2.65014,0,0,1-2.16-.8,2.85991,2.85991,0,0,1-.66-1.88,2.47994,2.47994,0,0,1,.86-2,3.85,3.85,0,0,1,2.32-.84l3.06-.16V740a3.00006,3.00006,0,0,0-.48-2,2.19,2.19,0,0,0-1.76-.58,9.34068,9.34068,0,0,0-3,.58l-.28-.78a8.919,8.919,0,0,1,3.46-.67Zm2,5.08-2.78.16a2.55,2.55,0,0,0-1.68.56,1.94,1.94,0,0,0,1.42,3.32,4.91993,4.91993,0,0,0,3-1.38Zm5.68-9.42v14.2h-1.12v-14.2Zm4.1,0v14.2h-1.12v-14.2Z"></path> <path class="cls-2" d="M513.05018,753.16a5.13273,5.13273,0,0,0,1.08-.38c.25-.12.38-.19.37-.41a.38.38,0,0,0-.38874-.3711l-.02124.0011h0l-1.39.07a.57027.57027,0,0,0-.35.16,4.75982,4.75982,0,0,0-1.29-2.43,4.66984,4.66984,0,0,0-3.36-1.39h-2.09a4.72,4.72,0,0,0-4.65,3.82.56992.56992,0,0,0-.35-.16l-1.39-.07a.4.4,0,0,0-.41.37c0,.22.12.29.37.41a5.34071,5.34071,0,0,0,1.08.38,2.71,2.71,0,0,0-1.6,2.47V761a.79.79,0,0,0,.77988.8h1.28012a.79.79,0,0,0,.79-.79h0v-1h10.29v1a.79.79,0,0,0,.77991.8h1.28015a.8.8,0,0,0,.8-.8v-5.34a2.69992,2.69992,0,0,0-1.61-2.47Zm-10-2.6a3.65011,3.65011,0,0,1,2.59-1.07h2.09a3.65,3.65,0,0,1,3.65,3.42h-9.38a3.73,3.73,0,0,1,1.06-2.35Zm-1.82,7.88a1.1183,1.1183,0,1,1,.01.00006l-.01-.00006Zm7,.77h-3a.77.77,0,0,1-.77-.77h0a.76.76,0,0,1,.74991-.77l.0101-.00006h3a.77.77,0,1,1,.00821,1.54h-.00821Zm3.93-.77a1.12,1.12,0,1,1,1.12-1.12h0a1.12,1.12,0,0,1-1.12,1.12Z"></path> <path class="cls-1" d="M531.9402,754a4.53022,4.53022,0,0,1,3,1,3.78005,3.78005,0,0,1,1.26,3.12,4.07985,4.07985,0,0,1-1.34,3.3,4.9,4.9,0,0,1-3.3,1.14,9.68946,9.68946,0,0,1-3.94-.74l.3-.84a10.40984,10.40984,0,0,0,3.26.62,4.21991,4.21991,0,0,0,2.82-.86,3.25994,3.25994,0,0,0,1-2.62,3,3,0,0,0-1-2.4,3.51,3.51,0,0,0-2.4-.84,5.61031,5.61031,0,0,0-2.48.58l-.72-.48.36-6.26h6.78v.94h-5.84l-.26,4.78A6.12036,6.12036,0,0,1,531.9402,754Zm12.89,8.42h-1.08v-9.78h1.08v4.18h2.17a1.88,1.88,0,0,0,1.9-1.46c.35-1.06.66-2,.92-2.7h1l-.44,1.36c-.22.7-.37,1.15-.44,1.34a2.78989,2.78989,0,0,1-1.38,1.86,1.76,1.76,0,0,1,1,.62,3.709,3.709,0,0,1,.62,1.2l1.08,3.38h-1.08l-.54-1.64c-.28-.86-.45-1.38-.52-1.58h0a2,2,0,0,0-2.06-1.56h-2.26Zm18.18,0h-1.08v-7.78h0a3.67852,3.67852,0,0,1-.32.7c-.16.35-.28.59-.38.78l-1.34,2.66-1.38,2.76h-.84l-3-5.54-.7-1.4h0v7.86h-1v-9.74h1.2c.23.4.7,1.32,1.42,2.76s1.27,2.48,1.64,3.18l.88,1.72h0l1.28-2.64.8-1.6,1.1-2.22.6-1.2h1.11011Z"></path> <path class="cls-3" d="M621.28023,749.57a14.28083,14.28083,0,0,0,.34-2.16,1,1,0,0,0-1-1h-8a1,1,0,0,0-1,1,14.30641,14.30641,0,0,0,.35,2.16,12.31789,12.31789,0,0,0,1.08,3.07,6.6,6.6,0,0,0,1.62,2.05,3.748,3.748,0,0,0,.74.45.28005.28005,0,0,1,.18.27h0a.28.28,0,0,1-.18.26,4.34956,4.34956,0,0,0-.74.46,6.40974,6.40974,0,0,0-1.62,2A12.31888,12.31888,0,0,0,612.0002,761.2a14.43573,14.43573,0,0,0-.35,2.17,1,1,0,0,0,1,1h8a1,1,0,0,0,1-1,14.41,14.41,0,0,0-.34-2.17,12.33935,12.33935,0,0,0-1.09-3.07,6.27,6.27,0,0,0-1.62-2,4.34974,4.34974,0,0,0-.74-.46.3.3,0,0,1-.17-.26h0a.3.3,0,0,1,.17-.27,3.74739,3.74739,0,0,0,.74-.45,6.21958,6.21958,0,0,0,1.62-2.05A12.34046,12.34046,0,0,0,621.28023,749.57Zm-8.28-1.11v-.1a.73.73,0,0,1,.75-1h6c.55,0,1,.46.74,1v.1a3.08954,3.08954,0,0,1-.87,1,3.92018,3.92018,0,0,1-1.29.69,5.00026,5.00026,0,0,1-3.06,0,4.07059,4.07059,0,0,1-1.3-.69A3.2596,3.2596,0,0,1,613.0002,748.46Zm7.39,13.89v.1a.73.73,0,0,1-.74,1h-6c-.56,0-1-.47-.75-1l.05-.1a3.20994,3.20994,0,0,1,.87-1,4.00032,4.00032,0,0,1,1.3-.68,5.00045,5.00045,0,0,1,3.06,0,4.19923,4.19923,0,0,1,1.29.68,3.23977,3.23977,0,0,1,.88,1Z"></path> <path class="cls-1" d="M641.74019,749.93l-3.06.3v-.78l3.1-.7h1.08v13.66h-1.12Zm15.6,5.72a12.99838,12.99838,0,0,1-.24,2.48,8.26993,8.26993,0,0,1-.74,2.2,3.8899,3.8899,0,0,1-1.44,1.62,4.05984,4.05984,0,0,1-2.22.6,5.14,5.14,0,0,1-2.08-.4,4.08973,4.08973,0,0,1-1.4-1,5.5298,5.5298,0,0,1-.82-1.58,9.75158,9.75158,0,0,1-.4-1.84,18.99749,18.99749,0,0,1-.1-2,17.2848,17.2848,0,0,1,.1-1.9,10.43656,10.43656,0,0,1,.42-1.92,5.93987,5.93987,0,0,1,.82-1.7,3.99957,3.99957,0,0,1,1.4-1.18,4.2999,4.2999,0,0,1,2.08-.48c3.08,0,4.62,2.35,4.62,7.1Zm-1.14.06v-1.24a9.95908,9.95908,0,0,0-.12-1.34,5.471,5.471,0,0,0-.34-1.38,6.13016,6.13016,0,0,0-.62-1.12,2.26,2.26,0,0,0-1-.86,3.09984,3.09984,0,0,0-1.4-.3q-3.68,0-3.68,6.28a13.42054,13.42054,0,0,0,.08,1.86,7.99888,7.99888,0,0,0,.32,1.6,4.20018,4.20018,0,0,0,.66,1.3,2.99949,2.99949,0,0,0,1.06.82,3.76975,3.76975,0,0,0,1.56.3,2.93023,2.93023,0,0,0,1.72-.52,3.17008,3.17008,0,0,0,1.08-1.42,9.16669,9.16669,0,0,0,.52-1.86,12.54374,12.54374,0,0,0,.16-2.12Zm18.3,6.7h-1.08v-7.78h0a3.67852,3.67852,0,0,1-.32.7l-.38.78c-.12.24-.57,1.12-1.34,2.66L670.0002,761.53h-.84l-3-5.53-.7-1.4h-.06v7.86h-1v-9.74h1.2c.23.4.7,1.32,1.42,2.76s1.27,2.48,1.64,3.18l.88,1.72h0l1.28-2.64.8-1.6c.37-.76.74-1.5,1.1-2.22l.6-1.2h1.16Zm9.92,0h-1.1v-8.16h-.06l-1.46,2.26c-2.29,3.48-3.59,5.44-3.9,5.9h-1v-9.74h1.1001v8.08h0c.09-.15.29-.45.58-.9s.52-.8.68-1l1.4-2.12,1.78-2.68c.53-.8.83-1.25.88-1.34h1.08Zm9.8,0h-1.11994v-4.72h-5.22v4.72h-1.1v-9.74h1.12v4.1h5.2v-4.1h1.12Z"></path> <line class="cls-4" x1="62.1602" y1="794.90997" x2="697.16017" y2="794.90997"></line> <line class="cls-5" x1="61.6602" y1="794.90997" x2="620.79017" y2="794.90997"></line> <path class="cls-2" d="M612.66017,785.41l9,9.5-9,9.5,4-9.5Z"></path> <path class="cls-1" d="M132.3602,850.41h-1.22l-1.2-3.74h-5.62c-.12.37-.31,1-.56,1.82l-.6,1.92h-1.22l4.46-13.66h1.52q.86,2.6,2.4,7.38C131.3602,847.31,132.0002,849.41,132.3602,850.41Zm-2.7-4.66c-.8-2.59-1.41-4.51-1.82-5.78-.12-.44-.34-1.18-.66-2.2h-.06l-.68,2.2-1.8,5.78Zm5.61-9.54v14.2h-1.12v-14.2Zm16.06,14.2h-1.12v-6.54a3.55985,3.55985,0,0,0-.36-1.84c-.24-.39-.76-.58-1.56-.58a6.20989,6.20989,0,0,0-3.18,1,5.99916,5.99916,0,0,1,.08,1.12v6.8h-1.12v-6.72a2.74994,2.74994,0,0,0-.4-1.68,1.61011,1.61011,0,0,0-1.4-.54,6.42023,6.42023,0,0,0-3.2,1.06v7.88h-1.07v-9.74h1v.92h0a6.65977,6.65977,0,0,1,3.42-1.12,2.38,2.38,0,0,1,2.36,1.22,6.99987,6.99987,0,0,1,3.62-1.22,3.74951,3.74951,0,0,1,1.52.26,1.68,1.68,0,0,1,.86.74,2.75959,2.75959,0,0,1,.34.92,4.77,4.77,0,0,1,.08,1Zm6.25-9.86a2.74,2.74,0,0,1,3.11,2.31,2.82014,2.82014,0,0,1,0,.87v5.8h1.31l.06.66a3.51984,3.51984,0,0,1-1.46.32,1.00005,1.00005,0,0,1-.8-.28,1.36009,1.36009,0,0,1-.22-.92h0a5.40984,5.40984,0,0,1-3.38,1.24,2.65014,2.65014,0,0,1-2.16-.8,2.85991,2.85991,0,0,1-.66-1.88,2.47994,2.47994,0,0,1,.86-2,3.85,3.85,0,0,1,2.32-.84l3.06-.16V844a3.00006,3.00006,0,0,0-.48-2,2.19,2.19,0,0,0-1.76-.58,9.34068,9.34068,0,0,0-3,.58l-.28-.78a8.66078,8.66078,0,0,1,3.48-.67Zm2,5.08-2.78.16a2.55,2.55,0,0,0-1.68.56,1.94,1.94,0,0,0,1.42,3.32,4.91993,4.91993,0,0,0,3-1.38Zm5.39-7,.72-.12v2.18h2.88v.86h-2.9V848a2.09007,2.09007,0,0,0,.3,1.22,1.46,1.46,0,0,0,1.16.4,7.35059,7.35059,0,0,0,1.86-.34l.18.76a5.35966,5.35966,0,0,1-2.26.5c-1.56,0-2.34-.74-2.34-2.2v-6.76h-1.4V841l1.44-.34Zm8.68,11.06a3.50067,3.50067,0,0,0,.14-.46l.32-1c.13-.4.26-.85.38-1.22l1-3.14c.48-1.5.82-2.56,1-3.14h1.14q-3.62,11.1-3.86,11.78a4.09009,4.09009,0,0,1-.94,1.72,2.00022,2.00022,0,0,1-1.52.58,9.56878,9.56878,0,0,1-2-.3l.18-.84a9.61654,9.61654,0,0,0,1.6.22,1.60007,1.60007,0,0,0,1-.28,2.42023,2.42023,0,0,0,.66-1.16l.66-2h-.58q-.32-1.07007-1.68-5.12l-1.5-4.58h1.1c.11.33.44,1.37,1,3.12s.9,2.81,1,3.2l.84,2.68Zm15.55.74h-1.2V837.69h-4.4v-1h9.94v1h-4.36Zm7-8.86.12.06a7.87984,7.87984,0,0,1,3.56-1.12,3.35985,3.35985,0,0,1,1.26.2,1.92989,1.92989,0,0,1,.8.48,1.51,1.51,0,0,1,.42.72,2.8095,2.8095,0,0,1,.18.8,5.60817,5.60817,0,0,1,0,.82v6.9h-1.12v-6.56a3.46,3.46,0,0,0-.36-1.82c-.23-.39-.73-.58-1.52-.58a7.10018,7.10018,0,0,0-3.32,1.06v7.9h-1.12v-14.2h1.1v3a20.40919,20.40919,0,0,1,0,2.32Zm12.65-.2q-2.62,0-2.92,3.6h5.56q0-3.62-2.62-3.62Zm0-.84q3.74,0,3.74,4.66v.58h-6.66q0,3.90006,3,3.9a7.42976,7.42976,0,0,0,3.1-.74l.3.76a7.27,7.27,0,0,1-3.44.88,4.99917,4.99917,0,0,1-2-.38,2.84977,2.84977,0,0,1-1.28-1.1,4.68021,4.68021,0,0,1-.62-1.56,8.85992,8.85992,0,0,1-.18-1.92,7.45124,7.45124,0,0,1,.08-1.16,6.1002,6.1002,0,0,1,.34-1.32,4.27055,4.27055,0,0,1,.68-1.28,3.18033,3.18033,0,0,1,1.18-.94,3.99979,3.99979,0,0,1,1.76-.4Zm9.7,0a3.17,3.17,0,0,1,2.32.76,3.23,3.23,0,0,1,.78,2.42v5.8h1.35l.06.66a3.23951,3.23951,0,0,1-1.46.32,1.00005,1.00005,0,0,1-.8-.28,1.36009,1.36009,0,0,1-.22-.92h0a5.40984,5.40984,0,0,1-3.38,1.24,2.65014,2.65014,0,0,1-2.16-.8,2.85991,2.85991,0,0,1-.66-1.88,2.47994,2.47994,0,0,1,.86-2,3.85,3.85,0,0,1,2.32-.84l3.06-.16V844a3.00006,3.00006,0,0,0-.48-2,2.16,2.16,0,0,0-1.76-.58,9.34068,9.34068,0,0,0-3,.58l-.28-.78a8.86991,8.86991,0,0,1,3.45-.67Zm2,5.08-2.78.16a2.55007,2.55007,0,0,0-1.68.56,1.77,1.77,0,0,0-.58,1.38,1.75,1.75,0,0,0,2,1.94,4.91993,4.91993,0,0,0,3-1.38Zm5.4-7,.72-.12v2.18h2.88v.86h-2.9V848a2.09007,2.09007,0,0,0,.3,1.22,1.4301,1.4301,0,0,0,1.16.4,7.35059,7.35059,0,0,0,1.86-.34l.18.76a5.35966,5.35966,0,0,1-2.26.5c-1.56,0-2.34-.74-2.34-2.2v-6.76h-1.4V841l1.44-.34Zm6.8,3.34h.1a8.21958,8.21958,0,0,1,1.62-1.06,3.77959,3.77959,0,0,1,1.58-.48c.27,0,.4.12.4.38a1.9,1.9,0,0,1-.38,1.1,13.6713,13.6713,0,0,0-1.66.32l-1.58.3v7.86h-1.14v-9.74h1.12v.64c0,.36-.06.61-.06.73Zm8.91-.6q-2.62,0-2.92,3.6h5.56Q244.30018,841.35013,241.66019,841.3501Zm0-.84q3.74,0,3.74,4.66v.58h-6.66q0,3.90006,3,3.9a7.43,7.43,0,0,0,3.1-.74l.3.76a7.26987,7.26987,0,0,1-3.44.88,4.99917,4.99917,0,0,1-2-.38,2.84982,2.84982,0,0,1-1.28-1.1,5.13964,5.13964,0,0,1-.62-1.56,9.53015,9.53015,0,0,1-.1-3.08,6.73986,6.73986,0,0,1,.34-1.32,4.27055,4.27055,0,0,1,.68-1.28,3.18029,3.18029,0,0,1,1.18-.94,3.87058,3.87058,0,0,1,1.74-.38Z"></path> <path class="cls-2" d="M513.05018,857.16a5.13273,5.13273,0,0,0,1.08-.38c.25-.12.38-.19.37-.41a.38.38,0,0,0-.38874-.3711l-.02124.0011h0l-1.39.07a.57027.57027,0,0,0-.35.16,4.75982,4.75982,0,0,0-1.29-2.43,4.66984,4.66984,0,0,0-3.36-1.39h-2.09a4.72,4.72,0,0,0-4.65,3.82.56992.56992,0,0,0-.35-.16l-1.39-.07a.4.4,0,0,0-.41.37c0,.22.12.29.37.41a5.34071,5.34071,0,0,0,1.08.38,2.71,2.71,0,0,0-1.6,2.47V865a.79.79,0,0,0,.77988.8h1.28012a.79.79,0,0,0,.79-.79h0v-1h10.29v1a.79.79,0,0,0,.77991.8h1.28015a.8.8,0,0,0,.8-.8v-5.34a2.69992,2.69992,0,0,0-1.61-2.47Zm-10-2.6a3.65011,3.65011,0,0,1,2.59-1.07h2.09a3.65,3.65,0,0,1,3.65,3.42h-9.38a3.73,3.73,0,0,1,1.06-2.35Zm-1.82,7.88a1.1183,1.1183,0,1,1,.01.00006l-.01-.00006Zm7,.77h-3a.77.77,0,0,1,0-1.54h3a.77.77,0,1,1,.00821,1.54Zm3.93-.77a1.12,1.12,0,1,1,1.12-1.12h0a1.12,1.12,0,0,1-1.12,1.12Z"></path> <path class="cls-1" d="M535.84022,853.63l-5.54,12.78h-1.12l5.56-12.72h-6.74v-.94h7.84Zm9,12.78h-1.08v-9.78h1.08v4.18h2.16a1.88,1.88,0,0,0,1.9-1.46c.35-1.06.66-2,.92-2.7h1l-.44,1.36c-.22.7-.37,1.15-.44,1.34a2.78987,2.78987,0,0,1-1.38,1.86,1.75994,1.75994,0,0,1,1,.62,3.70883,3.70883,0,0,1,.62,1.2l1.08,3.38h-1.08l-.54-1.64c-.28-.86-.45-1.38-.52-1.58h0a2,2,0,0,0-2.06-1.56h-2.26Zm18.18,0h-1.08v-7.78h0a3.67852,3.67852,0,0,1-.32.7c-.16.35-.28.59-.38.78l-1.34,2.66-1.38,2.76h-.84l-3-5.53-.7-1.4h0v7.86h-1v-9.74h1.2c.23.4.7,1.32,1.42,2.76s1.27,2.48,1.64,3.18l.88,1.72h0l1.28-2.64.8-1.6,1.1-2.22.6-1.2h1.1001Z"></path> <path class="cls-3" d="M621.28023,853.57a14.28083,14.28083,0,0,0,.34-2.16,1,1,0,0,0-1-1h-8a1,1,0,0,0-1,1,14.30641,14.30641,0,0,0,.35,2.16,12.31789,12.31789,0,0,0,1.08,3.07,6.6,6.6,0,0,0,1.62,2.05,3.748,3.748,0,0,0,.74.45.28005.28005,0,0,1,.18.27h0a.28.28,0,0,1-.18.26,4.34956,4.34956,0,0,0-.74.46,6.40974,6.40974,0,0,0-1.62,2A12.31888,12.31888,0,0,0,612.0002,865.2a14.43573,14.43573,0,0,0-.35,2.17,1,1,0,0,0,1,1h8a1,1,0,0,0,1-1,14.41,14.41,0,0,0-.34-2.17,12.33935,12.33935,0,0,0-1.09-3.07,6.27,6.27,0,0,0-1.62-2,4.34974,4.34974,0,0,0-.74-.46.3.3,0,0,1-.17-.26h0a.3.3,0,0,1,.17-.27,3.74739,3.74739,0,0,0,.74-.45,6.21958,6.21958,0,0,0,1.62-2.05A12.34046,12.34046,0,0,0,621.28023,853.57Zm-8.28-1.11v-.1a.73.73,0,0,1,.75-1h6c.55,0,1,.46.74,1v.1a3.08954,3.08954,0,0,1-.87,1,3.92018,3.92018,0,0,1-1.29.69,5.00026,5.00026,0,0,1-3.06,0,4.07059,4.07059,0,0,1-1.3-.69A3.2596,3.2596,0,0,1,613.0002,852.46Zm7.39,13.89v.1a.73.73,0,0,1-.74,1h-6c-.56,0-1-.47-.75-1l.05-.1a3.20994,3.20994,0,0,1,.87-1,4.00032,4.00032,0,0,1,1.3-.68,5.00045,5.00045,0,0,1,3.06,0,4.19923,4.19923,0,0,1,1.29.68,3.23977,3.23977,0,0,1,.88,1Z"></path> <path class="cls-1" d="M641.74019,853.93l-3.06.3v-.78l3.1-.7h1.08v13.66h-1.12Zm15.6,5.72a12.99838,12.99838,0,0,1-.24,2.48,8.26993,8.26993,0,0,1-.74,2.2,3.8899,3.8899,0,0,1-1.44,1.62,4.05984,4.05984,0,0,1-2.22.6,5.14,5.14,0,0,1-2.08-.4,4.08973,4.08973,0,0,1-1.4-1,5.5298,5.5298,0,0,1-.82-1.58,9.75158,9.75158,0,0,1-.4-1.84,18.99749,18.99749,0,0,1-.1-2,17.2848,17.2848,0,0,1,.1-1.9,10.43656,10.43656,0,0,1,.42-1.92,5.93987,5.93987,0,0,1,.82-1.7,3.99957,3.99957,0,0,1,1.4-1.18,4.2999,4.2999,0,0,1,2.08-.48c3.08,0,4.62,2.35,4.62,7.1Zm-1.14.06v-1.24a9.95908,9.95908,0,0,0-.12-1.34,5.471,5.471,0,0,0-.34-1.38,6.13016,6.13016,0,0,0-.62-1.12,2.26,2.26,0,0,0-1-.86,3.09984,3.09984,0,0,0-1.4-.3q-3.68,0-3.68,6.28a13.42054,13.42054,0,0,0,.08,1.86,7.99888,7.99888,0,0,0,.32,1.6,4.20018,4.20018,0,0,0,.66,1.3,2.99949,2.99949,0,0,0,1.06.82,3.76975,3.76975,0,0,0,1.56.3,2.93023,2.93023,0,0,0,1.72-.52,3.17008,3.17008,0,0,0,1.08-1.42,9.16669,9.16669,0,0,0,.52-1.86,12.54374,12.54374,0,0,0,.16-2.12Zm18.3,6.7h-1.08v-7.78h0a3.67852,3.67852,0,0,1-.32.7l-.38.78c-.12.24-.57,1.12-1.34,2.66L670.0002,865.53h-.84l-3-5.53-.7-1.4h-.06v7.86h-1v-9.74h1.2c.23.4.7,1.32,1.42,2.76s1.27,2.48,1.64,3.18l.88,1.72h0l1.28-2.64.8-1.6c.37-.76.74-1.5,1.1-2.22l.6-1.2h1.16Zm9.92,0h-1.1v-8.16h-.06l-1.46,2.26c-2.29,3.48-3.59,5.44-3.9,5.9h-1v-9.74h1.1001v8.08h0c.09-.15.29-.45.58-.9s.52-.8.68-1l1.4-2.12,1.78-2.68c.53-.8.83-1.25.88-1.34h1.08Zm9.8,0h-1.11994v-4.72h-5.22v4.72h-1.1v-9.74h1.12v4.1h5.2v-4.1h1.12Z"></path> <line class="cls-4" x1="62.1602" y1="898.90997" x2="697.16017" y2="898.90997"></line> <line class="cls-5" x1="61.6602" y1="898.90997" x2="620.79017" y2="898.90997"></line> <path class="cls-2" d="M612.66017,889.41l9,9.5-9,9.5,4-9.5Z"></path> <path class="cls-1" d="M.0502,14.67a13.59992,13.59992,0,0,1,2.13-7.36A15.21993,15.21993,0,0,1,7.8502,2a15.27994,15.27994,0,0,1,7.48-1.91,10.67939,10.67939,0,0,1,1.67.1,15.21009,15.21009,0,0,1,6.75,2.29,13.87,13.87,0,0,1,6.52,11.8v.28a14.58005,14.58005,0,0,1-2.14,7.44,14.22009,14.22009,0,0,1-5.47,5.14,15.7,15.7,0,0,1-7.59,1.86,16.24,16.24,0,0,1-5.69-1,15.23986,15.23986,0,0,1-4.88-2.92,13.81,13.81,0,0,1-3.3-4.53,13.41992,13.41992,0,0,1-1.2-5.62.24.24,0,0,0,0-.12A.34009.34009,0,0,0,.0502,14.67Zm5.08-.19a21.77,21.77,0,0,0,1.1,6.45,12.27987,12.27987,0,0,0,3.31,5.23,8.05,8.05,0,0,0,5.65,2.06,9.16,9.16,0,0,0,6.07-2.49,11.49021,11.49021,0,0,0,2.18-2.73,17.91,17.91,0,0,0,1.83-8.51,21.84017,21.84017,0,0,0-.54-4.9,14.7602,14.7602,0,0,0-1.67-4.24,8.94006,8.94006,0,0,0-3-3.14A8.72006,8.72006,0,0,0,15.4702,1h-.4a8,8,0,0,0-5.51,2,12.35,12.35,0,0,0-3.35,5.06,18.91973,18.91973,0,0,0-1.08,6.33Zm45.26,3.9c-.12-2.72-.69-4.68-1.69-5.86a4.79,4.79,0,0,0-1.9-1.43,5.34,5.34,0,0,0-2.32-.54,11.68994,11.68994,0,0,0-1.19.09,5,5,0,0,0-2.67,1.83,8.24,8.24,0,0,0-1.5,3.16,15.66987,15.66987,0,0,0-.45,3.8,25.53956,25.53956,0,0,0,.33,3.26,10.1498,10.1498,0,0,0,1.1,2.86,5.99985,5.99985,0,0,0,1.83,1.92,4.5399,4.5399,0,0,0,2.51.7,6.63981,6.63981,0,0,0,1.92-.35,4.82,4.82,0,0,0,3.14-3,14.19988,14.19988,0,0,0,.89-5.2Zm-15.7,1.24a43.28821,43.28821,0,0,1,.49-6.92,16.8096,16.8096,0,0,1,1.69-5.25,9.71,9.71,0,0,1,3.37-3.63A12.94011,12.94011,0,0,1,45.6302,2q5.07-.66,6.24-2h.72q-.84,4.16-5.67,4.83a22.5,22.5,0,0,0-7.15,1.92,6.3,6.3,0,0,0-3.14,3.42,19.35,19.35,0,0,0-.75,6.1,13.49007,13.49007,0,0,1,3.66-4.81,8.1,8.1,0,0,1,5.27-1.73,9.17,9.17,0,0,1,4.71,1.27,10,10,0,0,1,3.57,3.44,8.91,8.91,0,0,1,1.33,4.74,9.49,9.49,0,0,1-.77,3.82,10,10,0,0,1-5.37,5.25,10.30994,10.30994,0,0,1-3.8.73,10.08,10.08,0,0,1-4.92-1.25,9.38,9.38,0,0,1-3.56-3.43A8.99991,8.99991,0,0,1,34.6902,19.62Zm31.59-5.91a9.77128,9.77128,0,0,0-.12-1.71,1.09,1.09,0,0,0-.32-.72,1.36,1.36,0,0,0-.78-.24h-.23a6.52,6.52,0,0,0-2.35.47,2.93,2.93,0,0,0-1.64,1.69c-.08.34-.17.67-.28,1a.44.44,0,0,1-.49.33h-.07q-.33,0-.33-.51v-.17a.60963.60963,0,0,0,0-.19c0-.32.06-.72.09-1.19s.08-1,.14-1.64c.06-.41.43-.61,1.1-.61.85,0,2.2,0,4.08.09s2.88.08,3,.1h.73l1.08-.07h2.73a.31.31,0,0,1,.23.33c0,.22-.08.35-.23.4l-1.27.4a2,2,0,0,0-1.19.72,3.20994,3.20994,0,0,0-.24,1.5v3.85a.68.68,0,0,0,.57672.76954l.00328.00046a.6097.6097,0,0,0,.19,0h2.07q5.55,0,8,1.83a3.23,3.23,0,0,1,1.13,1.5,5.29019,5.29019,0,0,1,.37,2,4.71,4.71,0,0,1-.44,2.06,4.86,4.86,0,0,1-3.14,2.3,20.54025,20.54025,0,0,1-5.35.61c-.7,0-1.65,0-2.86-.09s-2-.09-2.43-.09l-1.74.09q-1.59.09-2.25.09h-.61a.37.37,0,0,1-.26-.33.9001.9001,0,0,1,.12-.28.55005.55005,0,0,1,.19-.21,8.77108,8.77108,0,0,1,1.24-.35,3.45975,3.45975,0,0,0,1-.33,1,1,0,0,0,.4-.65,5.52955,5.52955,0,0,0,.14-1.46Zm5.6,5.3h-.68c-.86,0-1.29.3-1.29.91v5.46a1.91,1.91,0,0,0,.84,1.78,4.73991,4.73991,0,0,0,2.51.52l.12.05a5.67,5.67,0,0,0,3.72-1.18,3.74,3.74,0,0,0,1.46-3,3.5,3.5,0,0,0-1-2.58,5.44,5.44,0,0,0-2.44-1.45,9.27,9.27,0,0,0-3-.47Zm19.12-1.92a14.82849,14.82849,0,0,0-.14,2,10,10,0,0,0,.94,4.41,7.27994,7.27994,0,0,0,2.49,2.95,5.89994,5.89994,0,0,0,3.3,1,6.16,6.16,0,0,0,4.31-1.79c.16-.18.33-.38.52-.58a.79.79,0,0,1,.58-.33h.12a.24.24,0,0,1,.12,0,.45.45,0,0,1,.26.44,1.99993,1.99993,0,0,1-.61,1.1,7.87,7.87,0,0,1-1,1,8.94,8.94,0,0,1-5.56,1.71,10.26,10.26,0,0,1-6.17-1.92,8.29,8.29,0,0,1-2.57-3.21,9.7,9.7,0,0,1-.87-4,10.66988,10.66988,0,0,1,.89-4.24,10.23,10.23,0,0,1,2.51-3.52,9.59,9.59,0,0,1,9.56-1.73,7.00009,7.00009,0,0,1,2.67,1.71,6.58017,6.58017,0,0,1,1.65,2.84c.1.44.18.89.24,1.34s-.37.82-1.1.82Zm.24-1.22h8.46c.48,0,.73-.32.73-.94a5.29009,5.29009,0,0,0-.45-1.88,3.84007,3.84007,0,0,0-.87-1.5,4.23,4.23,0,0,0-2.71-.91,4.8,4.8,0,0,0-2.56.68c-1.43.83-2.29,2.34-2.62,4.55Zm20.37-2.58a4.50992,4.50992,0,0,0-.1-1.1.82.82,0,0,0-.35-.52,2.73,2.73,0,0,0-1-.4c-.13,0-.32-.07-.59-.11a4.23059,4.23059,0,0,1-.68-.24c-.18-.09-.28-.2-.28-.33a.42.42,0,0,1,.14-.28c0-.12.32-.18.82-.18a4.51042,4.51042,0,0,1,.52,0h.42l.45.07h5.2a4.61038,4.61038,0,0,1,.91,0,.36.36,0,0,1,.1.28.77.77,0,0,1-.07.26,1.22058,1.22058,0,0,1-.1.24,2.21,2.21,0,0,0-1.45.65,2.71006,2.71006,0,0,0-.35,1.55v6l1.8-1.81a42.67037,42.67037,0,0,0,2.93-3.23,4.78,4.78,0,0,0,1.29-2.32.62.62,0,0,0,0-.33,1.00006,1.00006,0,0,0-.7-.28c-.35-.07-.66-.11-.94-.14a.58.58,0,0,1-.49-.36.21008.21008,0,0,0,0-.11v-.07c0-.22.19-.33.58-.33h.09a11.90177,11.90177,0,0,1,1.34.1c.59.06,1,.09,1.31.09h.47l.78-.09a13.70038,13.70038,0,0,1,1.38-.09c.84,0,1.26.12,1.26.37v.14a.37.37,0,0,1-.3.28,5.71881,5.71881,0,0,1-.59.17l-.61.11a4.19985,4.19985,0,0,0-1.57.94c-.42.42-1,1.07-1.78,1.95l-3.12,3.44,7.67,7.94c.69.69,1.17,1.15,1.43,1.39a2.81,2.81,0,0,0,1.17.49.74.74,0,0,1,.4.23.53.53,0,0,1,.19.35c0,.16-.09.25-.26.29l-.7.09a3.29013,3.29013,0,0,1-.54.05h-.66l-.86-.07h-.64a4.33875,4.33875,0,0,0-.51,0c-.25,0-.43.05-.54.05a1.56,1.56,0,0,1-1-.33l-6.5-7a5.48982,5.48982,0,0,0-.82-.78,1.25,1.25,0,0,0-.79-.28h-.1v4.78a.33009.33009,0,0,1,0,.14v.12a3.38,3.38,0,0,0,.25,1.57,2,2,0,0,0,1.22.63c.64.15,1.07.25,1.29.33a.37.37,0,0,1,.26.4.36.36,0,0,1-.26.38h-.61c-.42,0-1.15,0-2.2-.09l-1.74-.09-1.75.09q-1.62.09-2.28.09h-.58a.37.37,0,0,1-.24-.33.64.64,0,0,1,.1-.24q.09-.18.18-.21a9.29953,9.29953,0,0,1,1.25-.35,3.46045,3.46045,0,0,0,1-.33,1.06,1.06,0,0,0,.4-.65,5.53042,5.53042,0,0,0,.14-1.46Zm24.11-3.07h15c.64,0,1,.2,1,.61a9.38044,9.38044,0,0,1,.12,1.29c0,.4.08.92.14,1.54V14q0,.51-.3.51h-.14a.45.45,0,0,1-.38-.21,2.07946,2.07946,0,0,1-.21-.59,3.76944,3.76944,0,0,0-.14-.58c-.52-1.35-1.92-2-4.22-2a1.36,1.36,0,0,0-1.19.54,4.19,4.19,0,0,0-.38,2.18v11a7.14028,7.14028,0,0,0,.12,1.46,1.18991,1.18991,0,0,0,.37.65,4.50009,4.50009,0,0,0,.94.31,8.83994,8.83994,0,0,1,1.24.37.36.36,0,0,1,.21.19.4.4,0,0,1,.1.26.34.34,0,0,1-.26.33h-.61c-.42,0-1.16,0-2.2-.09l-1.74-.09-1.78.09c-1,.06-1.78.09-2.2.09h-.63a.32.32,0,0,1-.24-.33c0-.25.1-.4.28-.45a9.29911,9.29911,0,0,1,1.25-.35,3.55981,3.55981,0,0,0,1-.33,1,1,0,0,0,.39-.65,5.13993,5.13993,0,0,0,.15-1.46v-11a4,4,0,0,0-.4-2.18,1.44,1.44,0,0,0-1.25-.54q-3.37,0-4.21,2a8.78041,8.78041,0,0,1-.29,1,.44.44,0,0,1-.49.33h-.09q-.33,0-.33-.51a.48976.48976,0,0,0,0-.17.61024.61024,0,0,0,0-.19c0-.32.06-.72.09-1.19s.08-1,.14-1.64c.08-.34.42-.54,1.12-.54Zm30.85,17.46.09.05a5.7,5.7,0,0,0,3.73-1.18,3.75,3.75,0,0,0,1.45-3,3.53993,3.53993,0,0,0-1-2.58,5.50984,5.50984,0,0,0-2.39-1.45,9.26988,9.26988,0,0,0-3-.47h-1c-.86,0-1.29.3-1.29.91v5.46a1.91,1.91,0,0,0,.84,1.78,4.78,4.78,0,0,0,2.55.48Zm-7-2.84V13.71a4.4198,4.4198,0,0,0-.24-1.69c-.14-.34-.54-.59-1.19-.75-.13,0-.32-.07-.59-.11a4.23013,4.23013,0,0,1-.68-.24c-.19-.09-.28-.2-.28-.33a.42.42,0,0,1,.14-.28c.08-.12.35-.18.82-.18a4.51042,4.51042,0,0,1,.52,0h.42a3.11135,3.11135,0,0,1,.44.07h.26l1.06.09a2.93978,2.93978,0,0,1,.51.05h1.36l1.1-.07h2.7a.32.32,0,0,1,.26.33.37.37,0,0,1-.26.4c-.36.14-.76.27-1.19.4a3.11987,3.11987,0,0,0-.92.35,1,1,0,0,0-.42.61,4.47011,4.47011,0,0,0-.14,1.26v3.85a.67.67,0,0,0,.55359.769l.00641.001a.60963.60963,0,0,0,.19,0h2.32c3.66,0,6.25.57,7.78,1.69a3.21006,3.21006,0,0,1,1.08,1.53,5.58989,5.58989,0,0,1,.4,2.06,4.56009,4.56009,0,0,1-.42,2.06,5,5,0,0,1-3.16,2.26,20.31013,20.31013,0,0,1-5.32.61c-.69,0-1.64,0-2.84-.09s-2-.09-2.44-.09l-1.71.09c-1,.06-1.8.09-2.27.09h-.59c-.18-.07-.28-.18-.28-.33a.63992.63992,0,0,1,.1-.24q.09-.18.18-.21a9.29994,9.29994,0,0,1,1.25-.35,3.45975,3.45975,0,0,0,1-.33,1.15,1.15,0,0,0,.4-.63,6.00017,6.00017,0,0,0,.11-1.52Zm16-13.8c-.16,0-.23-.16-.23-.4a.31.31,0,0,1,.23-.33h.59c.4,0,1.13,0,2.18.09l1.73.09,1.78-.09c1.06-.06,1.8-.09,2.2-.09h.64a.32.32,0,0,1,.19.33c0,.22-.08.35-.24.4-.8.23-1.37.4-1.73.49a1.22,1.22,0,0,0-.78.59,4.40009,4.40009,0,0,0-.23,1.73v11a4.71983,4.71983,0,0,0,.23,1.79,1.86,1.86,0,0,0,1.17.65c.61.14,1.06.26,1.34.35s.24.18.24.45a.32.32,0,0,1-.19.33h-.64c-.4,0-1.14,0-2.2-.09l-1.78-.09-1.73.09c-1.05.06-1.78.09-2.18.09h-.59c-.16,0-.23-.16-.23-.38s.07-.35.23-.4.74-.21,1.34-.35a1.64,1.64,0,0,0,1.14-.61,3.13,3.13,0,0,0,.26-1.57V13.85a4.93941,4.93941,0,0,0-.14-1.38,1.08994,1.08994,0,0,0-.4-.66,2.29015,2.29015,0,0,0-.82-.35Zm46,2.81a4.06992,4.06992,0,0,0-.35-2.2,2.06,2.06,0,0,0-1.57-.42h-5.53a2.74,2.74,0,0,0-1.1.14.86.86,0,0,0-.45.63,9.54077,9.54077,0,0,0-.12,1.85v11a.33009.33009,0,0,1,0,.14v.12a3.12989,3.12989,0,0,0,.26,1.57,1.76993,1.76993,0,0,0,1.14.61c.61.14,1.07.26,1.36.35a.37.37,0,0,1,.26.4.36.36,0,0,1-.26.38h-.61c-.4,0-1.14,0-2.2-.09l-1.73-.09-1.71.09q-1.58.09-2.28.09h-.68c-.19-.07-.29-.18-.29-.33a1.22,1.22,0,0,1,.1-.24c.06-.12.12-.19.19-.21a8.77084,8.77084,0,0,1,1.24-.35,3.45985,3.45985,0,0,0,1-.33,1.15,1.15,0,0,0,.4-.63,5.68025,5.68025,0,0,0,.14-1.48v-11a3.92,3.92,0,0,0-.24-1.73,1.15,1.15,0,0,0-.77-.59c-.36-.09-.94-.26-1.73-.49a.39.39,0,0,1-.29-.4c0-.16.1-.26.29-.33h.58q.7,0,2.28.09l1.71.09h2.86l3.46-.05,3.12.05h3.28l1.78-.09c1-.06,1.79-.09,2.21-.09h.61a.31.31,0,0,1,.18.33c0,.22-.07.35-.23.4l-1.73.49a1.22,1.22,0,0,0-.78.59,4.40011,4.40011,0,0,0-.23,1.73v11a4.71983,4.71983,0,0,0,.23,1.79,1.8,1.8,0,0,0,1.17.65c.61.14,1.06.26,1.34.35s.23.18.23.45a.31.31,0,0,1-.18.33h-.61c-.42,0-1.16,0-2.21-.09l-1.78-.09-1.76.09c-1,.06-1.77.09-2.17.09h-.59a.35.35,0,0,1-.28-.38.36.36,0,0,1,.28-.4c.3-.09.74-.21,1.34-.35a1.74,1.74,0,0,0,1.14-.61,3.13011,3.13011,0,0,0,.26-1.57Zm10.88,5.49a9.25014,9.25014,0,0,1,1.4-4.93,10.00014,10.00014,0,0,1,3.67-3.41,10.41,10.41,0,0,1,5-1.24,8.89992,8.89992,0,0,1,3.63.77,10.06,10.06,0,0,1,3.1,2,9.33988,9.33988,0,0,1,2.08,3,8.47,8.47,0,0,1,.8,3.64,9.56029,9.56029,0,0,1-.77,3.77,9.99993,9.99993,0,0,1-2.16,3.14,9.62,9.62,0,0,1-3.2,2.14,10.00012,10.00012,0,0,1-3.75.73h-.05a11.58015,11.58015,0,0,1-3.82-.75,10.36008,10.36008,0,0,1-3.14-2,9.19,9.19,0,0,1-2.08-3,9.48,9.48,0,0,1-.75-3.75Zm8.6-8.7a5,5,0,0,0-2.67,1.83,8.23987,8.23987,0,0,0-1.5,3.16,15.66987,15.66987,0,0,0-.45,3.8,25.54137,25.54137,0,0,0,.33,3.26,10.14982,10.14982,0,0,0,1.1,2.86,6,6,0,0,0,1.83,1.92,4.54,4.54,0,0,0,2.51.7,6.63982,6.63982,0,0,0,1.92-.35,4.82,4.82,0,0,0,3.14-3,14.19988,14.19988,0,0,0,.89-5.2V18.38c-.13-2.72-.69-4.68-1.69-5.86a4.79,4.79,0,0,0-1.9-1.43,5.33987,5.33987,0,0,0-2.32-.54,5.75671,5.75671,0,0,0-1.24.09Zm31.1,7.74c-.13-2.72-.69-4.68-1.69-5.86a4.78987,4.78987,0,0,0-1.9-1.43,5.3398,5.3398,0,0,0-2.32-.54,11.68973,11.68973,0,0,0-1.19.09,5.00012,5.00012,0,0,0-2.67,1.83,8.24,8.24,0,0,0-1.5,3.16,15.66938,15.66938,0,0,0-.45,3.8,25.53954,25.53954,0,0,0,.33,3.26,10.1498,10.1498,0,0,0,1.1,2.86,6,6,0,0,0,1.83,1.92,4.54,4.54,0,0,0,2.51.7,6.63988,6.63988,0,0,0,1.92-.35,4.82,4.82,0,0,0,3.14-3,14.20072,14.20072,0,0,0,.89-5.2Zm-15.7,1.24a43.28936,43.28936,0,0,1,.49-6.92,16.80986,16.80986,0,0,1,1.69-5.25,9.71015,9.71015,0,0,1,3.37-3.63,13.10009,13.10009,0,0,1,5.35-1.82c3.38-.44,5.45-1.11,6.24-2h.72q-.84,4.16-5.67,4.83a22.49988,22.49988,0,0,0-7.15,1.92,6.26006,6.26006,0,0,0-3.14,3.42,19.35059,19.35059,0,0,0-.75,6.1,13.48987,13.48987,0,0,1,3.66-4.81,8.1,8.1,0,0,1,5.27-1.73,9.17,9.17,0,0,1,4.71,1.27,10,10,0,0,1,3.56,3.44,8.71985,8.71985,0,0,1,1.34,4.74,9.21979,9.21979,0,0,1-.77,3.77,10,10,0,0,1-5.37,5.27,10.31,10.31,0,0,1-3.8.73,10.08,10.08,0,0,1-4.92-1.25,9.29991,9.29991,0,0,1-3.56-3.4,8.89,8.89,0,0,1-1.31-4.68Zm29.09,5.38a11.07,11.07,0,0,0,1.46-2.57,16.14136,16.14136,0,0,0,.92-3.4,39.783,39.783,0,0,0,.47-5.11v-.26a2.59989,2.59989,0,0,0-.33-1.52,2.59994,2.59994,0,0,0-1.46-.7l-1.24-.35a.34.34,0,0,1-.23-.36.64963.64963,0,0,1,.09-.23.43987.43987,0,0,1,.19-.19,4.61028,4.61028,0,0,1,.91,0h13.88a8.55049,8.55049,0,0,1,1.24,0,.32.32,0,0,1,.19.33c0,.22-.08.35-.24.4-.79.23-1.37.4-1.73.49a1.21,1.21,0,0,0-.77.59,3.92021,3.92021,0,0,0-.24,1.73v11a4.5204,4.5204,0,0,0,.24,1.79,1.8,1.8,0,0,0,1.17.65c.61.14,1.05.26,1.33.35s.24.18.24.45a.32.32,0,0,1-.19.33h-.63c-.41,0-1.14,0-2.21-.09l-1.78-.09-1.73.09c-1,.06-1.78.09-2.2.09h-.57c-.15,0-.23-.16-.23-.38s.08-.35.23-.4c.3-.09.74-.21,1.34-.35a1.73,1.73,0,0,0,1.15-.61,3.23,3.23,0,0,0,.25-1.57V13.85a9.5305,9.5305,0,0,0-.06-1.85.87.87,0,0,0-.31-.63,1.3,1.3,0,0,0-.7-.14h-2.99a1.5,1.5,0,0,0-1.29.51,4.15978,4.15978,0,0,0-.44,2.11,38.27016,38.27016,0,0,1-1.06,7.53,21.64,21.64,0,0,1-1.82,4.87,6.17021,6.17021,0,0,1-1.71,1.85,3.71,3.71,0,0,1-2.18.73,1.99994,1.99994,0,0,1-1.48-.49,1.84,1.84,0,0,1-.49-1.32,1.49005,1.49005,0,0,1,.25-.82,2.47,2.47,0,0,1,.66-.63,1.42,1.42,0,0,1,.77-.23,3.94016,3.94016,0,0,1,1.08.18,3.20993,3.20993,0,0,0,.8.19A1.83,1.83,0,0,0,285.54021,25Zm36.07-9.51-9.12,9.07v.32a.33009.33009,0,0,1,0,.14v.12a3.38012,3.38012,0,0,0,.25,1.57,1.8599,1.8599,0,0,0,1.15.61c.61.14,1.06.26,1.36.35a.37.37,0,0,1,.26.4.36.36,0,0,1-.26.38h-.61c-.4,0-1.14,0-2.2-.09l-1.74-.09-1.71.09c-1,.06-1.8.09-2.27.09h-.59c-.18-.07-.28-.18-.28-.33a.64.64,0,0,1,.1-.24q.09-.18.18-.21a9.30036,9.30036,0,0,1,1.25-.35,3.45985,3.45985,0,0,0,1-.33,1.15006,1.15006,0,0,0,.4-.63,5.68068,5.68068,0,0,0,.14-1.48v-11a3.92006,3.92006,0,0,0-.24-1.73,1.15,1.15,0,0,0-.77-.59c-.36-.09-.94-.26-1.74-.49a.39.39,0,0,1-.28-.4c0-.16.1-.26.28-.33h.59c.47,0,1.23,0,2.27.09l1.71.09,1.74-.09c1.06-.06,1.8-.09,2.2-.09h.61a.32.32,0,0,1,.26.33.37.37,0,0,1-.26.4l-1.71.47a1.24,1.24,0,0,0-.8.56,3.45994,3.45994,0,0,0-.25,1.59v9.66l9.12-9.07v-.59a3.35963,3.35963,0,0,0-.26-1.57,2.15,2.15,0,0,0-1.33-.72c-.71-.19-1.09-.3-1.15-.33a.36.36,0,0,1-.28-.4.32.32,0,0,1,.28-.33h.58c.41,0,1.14,0,2.18.09l1.76.09,1.78-.09c1.05-.06,1.78-.09,2.21-.09h.6a.31.31,0,0,1,.19.33c0,.22-.08.35-.23.4-.8.23-1.38.4-1.74.49a1.27,1.27,0,0,0-.77.59,4.06,4.06,0,0,0-.23,1.73v11a4.34009,4.34009,0,0,0,.23,1.79,1.8,1.8,0,0,0,1.17.65c.61.14,1.06.26,1.34.35s.23.18.23.45a.31.31,0,0,1-.19.33h-.6c-.43,0-1.16,0-2.21-.09l-1.78-.09-1.76.09c-1,.06-1.77.09-2.18.09h-.58a.35.35,0,0,1-.28-.38.36.36,0,0,1,.28-.4c.29-.09.74-.21,1.33-.35a1.67994,1.67994,0,0,0,1.15-.61,3.12979,3.12979,0,0,0,.26-1.57Zm20.32-5.77a7.36,7.36,0,0,1,4.34,2.55,4,4,0,0,1,.65,2.3,3.19,3.19,0,0,1-.7,2.16,4.00014,4.00014,0,0,1-1.62,1,27.28043,27.28043,0,0,1-2.67.64,9.73974,9.73974,0,0,1,2.72.6,5.19007,5.19007,0,0,1,1.85,1.32,4.37,4.37,0,0,1,1.05,3,4.64022,4.64022,0,0,1-.46,2.2,6,6,0,0,1-3.09,2.56,13.38007,13.38007,0,0,1-4.81.83l-.86-.05h-1a8.00006,8.00006,0,0,1-2.53-.75,3.62991,3.62991,0,0,1-1.71-1.64,2.35,2.35,0,0,1-.14-.52.48.48,0,0,1,.41-.54h.13c.14,0,.44.25.91.73a6.77017,6.77017,0,0,0,1.6,1.19,5,5,0,0,0,2.37.47h.51a6.16,6.16,0,0,0,3.57-1.25,3.99993,3.99993,0,0,0,1.52-2.88v-.72a4,4,0,0,0-.87-2.77,2.93,2.93,0,0,0-2.3-1,10.19112,10.19112,0,0,0-1.1.09h-.28c-.39,0-.58-.18-.58-.54a.43.43,0,0,1,.14-.35.52.52,0,0,1,.39-.17,5.08008,5.08008,0,0,0,3.29-1.07,4.44011,4.44011,0,0,0,.93-3.14,3.38,3.38,0,0,0-1.33-2.79,4.34,4.34,0,0,0-2.79-1.06h-.28a3.12,3.12,0,0,0-1.83,1,3,3,0,0,0-.59,1,5.35077,5.35077,0,0,1-.61,1.19,1,1,0,0,1-.91.42h-.3a1.32,1.32,0,0,1-.75-.42,1.24995,1.24995,0,0,1-.31-.82,1.7,1.7,0,0,1,.73-1.43c1.17-1.07,3-1.61,5.41-1.6a9.58963,9.58963,0,0,1,1.93.22Zm10.15,9.66a9.24988,9.24988,0,0,1,1.4-4.93,9.99984,9.99984,0,0,1,3.71-3.45,10.41,10.41,0,0,1,5-1.24,8.99986,8.99986,0,0,1,3.64.77,10.13007,10.13007,0,0,1,3.09,2,9.64993,9.64993,0,0,1,2.09,3,8.77008,8.77008,0,0,1,.79,3.64,9.53037,9.53037,0,0,1-.8,3.83,10.00013,10.00013,0,0,1-2.16,3.14,9.68005,9.68005,0,0,1-3.21,2.11,9.99988,9.99988,0,0,1-3.75.73h0a11.68991,11.68991,0,0,1-3.83-.75,10.3601,10.3601,0,0,1-3.14-2,9.19024,9.19024,0,0,1-2.08-3,9.48017,9.48017,0,0,1-.75-3.75Zm8.6-8.7a5.08,5.08,0,0,0-2.68,1.79,8.23987,8.23987,0,0,0-1.5,3.16,15.66989,15.66989,0,0,0-.45,3.8,25.53954,25.53954,0,0,0,.33,3.26,10.15012,10.15012,0,0,0,1.1,2.86,6,6,0,0,0,1.83,1.92,4.54,4.54,0,0,0,2.51.7,6.64,6.64,0,0,0,1.92-.35,4.81991,4.81991,0,0,0,3.14-3,14.20052,14.20052,0,0,0,.89-5.2V18.38c-.12-2.72-.69-4.68-1.69-5.86a4.75986,4.75986,0,0,0-1.89-1.43,5.48,5.48,0,0,0-2.32-.54,11.68994,11.68994,0,0,0-1.19.09Zm15.12,8.93a10.45032,10.45032,0,0,1,.93-4,9.85,9.85,0,0,1,2.4-3.31,9.1102,9.1102,0,0,1,3.46-2,11.10019,11.10019,0,0,1,3.61-.54q3.24,0,4.71,1.36a1.80007,1.80007,0,0,1,.66,1.43,1.2,1.2,0,0,1-1.05,1.24h-.38a1.15,1.15,0,0,1-.89-.35,4.53054,4.53054,0,0,1-.66-1.1,4.27026,4.27026,0,0,0-.56-1c-.31-.45-1-.68-2.06-.68h-.35a4.76,4.76,0,0,0-3,1.2,7,7,0,0,0-2,2.93,15.35064,15.35064,0,0,0-.75,4.66,11.00009,11.00009,0,0,0,1.33,5.48,5.18,5.18,0,0,0,4.08,2.72,6.6392,6.6392,0,0,0,1,.1,4.61,4.61,0,0,0,2.28-.47,6.62972,6.62972,0,0,0,1.52-1.17c.45-.47.76-.71.91-.71.35,0,.52.18.52.54a1.54,1.54,0,0,1-.09.52c-.58,1.19-2,2-4.27,2.39-1.14.08-1.8.12-2,.12a10.69986,10.69986,0,0,1-4.78-1.06,8.36008,8.36008,0,0,1-3.36993-3.14,9.25984,9.25984,0,0,1-1.24-4.85Zm22.59-9.35h15c.64,0,1,.2,1.05.61s.1.87.12,1.29.08.92.14,1.54V14q0,.51-.3.51h-.15a.44.44,0,0,1-.37-.21,2.08065,2.08065,0,0,1-.21-.59,3.77063,3.77063,0,0,0-.14-.58c-.52-1.35-1.92-2-4.22-2a1.36,1.36,0,0,0-1.2.54,4.29,4.29,0,0,0-.37,2.18v11a7.14168,7.14168,0,0,0,.12,1.46,1.12992,1.12992,0,0,0,.37.65,4.00012,4.00012,0,0,0,.94.31,8.84008,8.84008,0,0,1,1.24.37.36.36,0,0,1,.21.19.51994.51994,0,0,1,.1.26.34.34,0,0,1-.26.33h-.61c-.42,0-1.16,0-2.2-.09l-1.74-.09-1.78.09c-1.05.06-1.78.09-2.2.09h-.64a.32.32,0,0,1-.23-.33c0-.25.09-.4.28-.45a10.89056,10.89056,0,0,1,1.24-.35,3.45985,3.45985,0,0,0,1-.33,1,1,0,0,0,.4-.65,5.52951,5.52951,0,0,0,.14-1.46v-11a3.91006,3.91006,0,0,0-.4-2.18,1.42,1.42,0,0,0-1.24-.54c-2.25,0-3.65.67-4.22,2-.08.34-.17.67-.28,1a.44.44,0,0,1-.49.33h-.09q-.33,0-.33-.51v-.17a.61024.61024,0,0,0,0-.19c0-.32.07-.72.1-1.19s.08-1,.14-1.64c0-.34.41-.54,1.08-.54Zm36.66,5.23-9.12,9.07v.32a.33009.33009,0,0,1,0,.14.24.24,0,0,1,0,.12,3.35976,3.35976,0,0,0,.26,1.57,1.79,1.79,0,0,0,1.15.61c.61.14,1.06.26,1.36.35a.37.37,0,0,1,.26.4.36.36,0,0,1-.26.38h-.61c-.41,0-1.14,0-2.2-.09l-1.74-.09-1.71.09c-1.05.06-1.8.09-2.27.09h-.59c-.19-.07-.28-.18-.28-.33a1.17,1.17,0,0,1,.09-.24c.07-.12.13-.19.19-.21a10.89056,10.89056,0,0,1,1.24-.35,3.45985,3.45985,0,0,0,1-.33,1.00006,1.00006,0,0,0,.4-.63,5.63036,5.63036,0,0,0,.14-1.48v-11a4.05979,4.05979,0,0,0-.23-1.73,1.18,1.18,0,0,0-.77-.59c-.36-.09-.94-.26-1.74-.49a.38.38,0,0,1-.28-.4c0-.16.09-.26.28-.33h.59c.47,0,1.22,0,2.27.09l1.71.09,1.74-.09c1.06-.06,1.79-.09,2.2-.09h.61a.32.32,0,0,1,.26.33.37.37,0,0,1-.26.4l-1.71.47a1.24,1.24,0,0,0-.8.56,3.46026,3.46026,0,0,0-.26,1.59.35.35,0,0,1,0,.19v9.47l9.12-9.07v-.59a3.3595,3.3595,0,0,0-.26-1.57,2.12,2.12,0,0,0-1.34-.72c-.7-.19-1.08-.3-1.15-.33a.37.37,0,0,1-.28-.4.33.33,0,0,1,.28-.33h.66c.41,0,1.13,0,2.18.09l1.76.09,1.78-.09c1.05-.06,1.78-.09,2.2-.09h.61a.31.31,0,0,1,.19.33c0,.22-.08.35-.23.4-.8.23-1.38.4-1.74.49a1.27,1.27,0,0,0-.77.59,3.92008,3.92008,0,0,0-.24,1.73v11a4.5202,4.5202,0,0,0,.24,1.79,1.8,1.8,0,0,0,1.17.65c.61.14,1,.26,1.34.35s.23.18.23.45a.31.31,0,0,1-.19.33h-.61c-.42,0-1.15,0-2.2-.09l-1.78-.09-1.76.09c-1.05.06-1.77.09-2.18.09h-.59a.36.36,0,0,1-.3995-.31559l-.00049-.00441a.57088.57088,0,0,1,0-.13.37.37,0,0,1,.28-.4c.3-.09.75-.21,1.34-.35a1.73,1.73,0,0,0,1.15-.61,3.1299,3.1299,0,0,0,.26-1.57Z"></path> <path class="cls-1" d="M124.2502,646.89h-1.25v-14.2h1.22v6.12h2.78a2.69,2.69,0,0,0,2.7-2.24l1.16-3.84h1.14l-1,3.82c-.46,1.54-1.16,2.45-2.1,2.74a2.62,2.62,0,0,1,1.54.9,4.99974,4.99974,0,0,1,.85,1.78l1.37,4.92h-1.2l-1.35-4.69a2.83,2.83,0,0,0-2.85-2.35h-3Z"></path> <path class="cls-1" d="M142.5202,641.89a8,8,0,0,1-.2,1.88,5.60971,5.60971,0,0,1-.67,1.62,3,3,0,0,1-1.33,1.21,4.57025,4.57025,0,0,1-2.09.44,3.58989,3.58989,0,0,1-3.21-1.43,6.3901,6.3901,0,0,1-1-3.68,6.53015,6.53015,0,0,1,1.06-3.77,3.68,3.68,0,0,1,3.26-1.55,4.34024,4.34024,0,0,1,2,.45,3.15988,3.15988,0,0,1,1.29,1.22,5.92011,5.92011,0,0,1,.65,1.68A8.94006,8.94006,0,0,1,142.5202,641.89Zm-1.2,0q0-4.38-2.95-4.38a3.00007,3.00007,0,0,0-1.52.38,2.47009,2.47009,0,0,0-1,1.05,5.71922,5.71922,0,0,0-.48,1.39,9.27869,9.27869,0,0,0-.14,1.58,9.1506,9.1506,0,0,0,.12,1.57,4.58026,4.58026,0,0,0,.44,1.29,2.11,2.11,0,0,0,1,1,3.53978,3.53978,0,0,0,1.6.33q2.93,0,2.93-4.17Z"></path> <path class="cls-1" d="M145.87019,646.89h-1.12V636.74h1.12v4.34h2.24a2,2,0,0,0,2-1.52c.36-1.09.68-2,1-2.8h1.08c-.07.19-.23.66-.46,1.4s-.39,1.21-.46,1.4a2.85,2.85,0,0,1-1.43,1.93,1.9998,1.9998,0,0,1,1,.65,4.15021,4.15021,0,0,1,.63,1.24l1.12,3.51h-1.12l-.56-1.7-.54-1.64h0a2.13,2.13,0,0,0-2.14-1.62h-2.34Z"></path> <path class="cls-1" d="M159.1302,642.05h-5v-1h5Z"></path> <path class="cls-1" d="M166.3802,646.89h-1.21V633.68h-4.56v-1h10.32v1h-4.53Z"></path> <path class="cls-1" d="M180.8302,641.89a8.52923,8.52923,0,0,1-.21,1.88,5.88036,5.88036,0,0,1-.66,1.62,3.17021,3.17021,0,0,1-1.33,1.21,4.60941,4.60941,0,0,1-2.1.44,3.61,3.61,0,0,1-3.21-1.43,7.38,7.38,0,0,1,.1-7.45,3.68,3.68,0,0,1,3.26-1.55,4.34024,4.34024,0,0,1,2,.45,3.24985,3.24985,0,0,1,1.3,1.22,5.61,5.61,0,0,1,.64,1.68A8.92108,8.92108,0,0,1,180.8302,641.89Zm-1.2,0c0-2.92-1-4.38-2.95-4.38a2.99974,2.99974,0,0,0-1.53.38,2.58994,2.58994,0,0,0-1,1.05,5.71924,5.71924,0,0,0-.48,1.39,8.36968,8.36968,0,0,0-.15,1.58,8.2493,8.2493,0,0,0,.13,1.57,4.9,4.9,0,0,0,.43,1.29,2.1101,2.1101,0,0,0,1,1,3.41012,3.41012,0,0,0,1.6.33c2,0,2.95-1.39,2.95-4.17Z"></path> <path class="cls-1" d="M186.6602,633c1.9-.77,3-1.25,3.39-1.43.09.17.23.43.41.79-.77.4-1.91.91-3.42,1.51a4.99979,4.99979,0,0,0-2.37,1.86,7.10991,7.10991,0,0,0-.93,3.15h0a3.93017,3.93017,0,0,1,1.39-1.5,3.70967,3.70967,0,0,1,2-.56,3.80957,3.80957,0,0,1,1.87.43,2.99969,2.99969,0,0,1,1.22,1.16,5.9999,5.9999,0,0,1,.62,1.59,8.25027,8.25027,0,0,1,.2,1.85,8.90043,8.90043,0,0,1-.12,1.46,5.50945,5.50945,0,0,1-.42,1.38,3.93994,3.93994,0,0,1-.79,1.18,3.31023,3.31023,0,0,1-1.25.8,4.80018,4.80018,0,0,1-1.76.31,4.46009,4.46009,0,0,1-2-.44,3.00039,3.00039,0,0,1-1.26-1.19,5.91028,5.91028,0,0,1-.62-1.57,8.79113,8.79113,0,0,1-.18-1.77,41.73041,41.73041,0,0,1,.22-4.61A5.78008,5.78008,0,0,1,186.6602,633Zm.36,4.74a2.81037,2.81037,0,0,0-1.5.4,2.70975,2.70975,0,0,0-1,1.07,5.72976,5.72976,0,0,0-.51,1.38,6.54,6.54,0,0,0-.17,1.46,9.99954,9.99954,0,0,0,.1,1.44,5.00028,5.00028,0,0,0,.41,1.26,2.25,2.25,0,0,0,.93,1,3.1905,3.1905,0,0,0,1.57.35q3,0,3-4.15a10.32077,10.32077,0,0,0-.06-1.11,5.34027,5.34027,0,0,0-.25-1.12,3.33048,3.33048,0,0,0-.49-1,2.31045,2.31045,0,0,0-.83-.69,2.57021,2.57021,0,0,0-1.22-.25Z"></path> <path class="cls-1" d="M197.1902,636.61q3.88,0,3.88,4.84v.6h-6.91q0,4.05,3.11,4.05a7.62008,7.62008,0,0,0,3.22-.77l.31.79a7.41006,7.41006,0,0,1-3.57.92,5.13007,5.13007,0,0,1-2.12-.4,2.81993,2.81993,0,0,1-1.32-1.14,5.06039,5.06039,0,0,1-.65-1.62,9.60028,9.60028,0,0,1-.18-2,8.19854,8.19854,0,0,1,.08-1.21,7.05987,7.05987,0,0,1,.35-1.37,5.21909,5.21909,0,0,1,.71-1.34,3.39978,3.39978,0,0,1,1.23-1A4.09005,4.09005,0,0,1,197.1902,636.61Zm0,.87q-2.72,0-3,3.74h5.81c0-2.49-.93-3.73-2.79-3.74Z"></path> </g> </g> <path class="cls-1" d="M541.66017,130.59a5.1602,5.1602,0,0,0-2.32.57l-1-.67.4-6.4h7.26v1.32h-5.86l-.27,4.3a6.36,6.36,0,0,1,2.28-.41,4.79,4.79,0,0,1,3.16,1.08,4,4,0,0,1,1.3,3.24,4.21017,4.21017,0,0,1-1.41,3.38,5.2,5.2,0,0,1-3.48,1.19,9.21991,9.21991,0,0,1-4.17-.83l.39-1.18a11.84041,11.84041,0,0,0,3.38.63,3.99992,3.99992,0,0,0,2.67993-.81,3,3,0,0,0,1-2.41,2.77,2.77,0,0,0-.93-2.25A3.55992,3.55992,0,0,0,541.66017,130.59Z"></path> <path class="cls-1" d="M558.56019,131.14a12.0584,12.0584,0,0,1-.25,2.53,9.28173,9.28173,0,0,1-.78,2.24,4.14991,4.14991,0,0,1-1.53,1.66,4.39014,4.39014,0,0,1-2.34.61,5.31976,5.31976,0,0,1-2.15-.4,4.1406,4.1406,0,0,1-1.47-1.05,5,5,0,0,1-.87-1.59,8.10889,8.10889,0,0,1-.45-1.89,16.3799,16.3799,0,0,1-.11-2.07,14.161,14.161,0,0,1,.21-2.51,10.06017,10.06017,0,0,1,.73-2.3,4.18033,4.18033,0,0,1,1.57-1.81,4.63,4.63,0,0,1,2.56-.67Q558.57024,123.89,558.56019,131.14Zm-1.66,0v-1.23a12.27533,12.27533,0,0,0-.12-1.3,5.06109,5.06109,0,0,0-.31-1.3,6.83128,6.83128,0,0,0-.56-1.07,2.20981,2.20981,0,0,0-.9-.79,2.79,2.79,0,0,0-1.29-.28q-3.4,0-3.4,6a16.00229,16.00229,0,0,0,.13,2.22,6.84187,6.84187,0,0,0,.49,1.76,2.66007,2.66007,0,0,0,1.05,1.25,3.19011,3.19011,0,0,0,1.73.43c2.1.05,3.18-1.83,3.18-5.65Z"></path> <path class="cls-1" d="M576.7502,138h-1.57v-7.11h-.08c-.07.14-.21.43-.42.89a9.016,9.016,0,0,1-.5,1c-.13.2-.5,1-1,2s-.85,1.7-1.12,2.25h-1.18l-.4-.78-.92-1.74-.9-1.71c-.56-1.06-.91-1.73-1-2h-.08V138h-1.58v-9.9h1.81l2.46,4.71c.17.32.34.66.51,1s.33.66.46.93.21.44.24.49h0s.08-.19.21-.46.29-.6.49-1,.39-.81.58-1.19l2.23993-4.48h1.73Z"></path> </g> </g> <path class="cls-1" d="M535.14233,138.03237h-8.52v-.84c1-.92,1.77-1.7,2.4-2.32s1.32-1.39,2.1-2.28a12.85115,12.85115,0,0,0,1.74-2.52,4.90946,4.90946,0,0,0,.6-2.18,2.48007,2.48007,0,0,0-.8-2,3.00016,3.00016,0,0,0-2.08-.7,5.99982,5.99982,0,0,0-3.42,1.12l-.44-.74a6.72014,6.72014,0,0,1,4-1.38,4.13,4.13,0,0,1,2.8.92,3.36023,3.36023,0,0,1,1.08,2.72,5.56928,5.56928,0,0,1-.48,2.16,10.00022,10.00022,0,0,1-1.5,2.36c-.67.82-1.24,1.5-1.72,2l-2,2.06-.72.7h6.94Z"></path> </g> </g> </svg> 